<svg width="232" height="108" viewBox="0 0 232 108" fill="none" xmlns="http://www.w3.org/2000/svg">
<g clip-path="url(#clip0_206_2378)">
<path d="M228.124 47.6254C229.6 68.2822 230.337 78.6107 226.095 86.2267C223.694 90.5368 220.242 94.1694 216.059 96.7861C208.668 101.41 198.316 101.198 177.611 100.773L48.6064 98.1299C30.5018 97.7589 21.4495 97.5734 14.9321 93.802C9.15021 90.4561 4.68831 85.2313 2.28888 78.9969C-0.415738 71.9695 0.818195 62.9997 3.28606 45.0602V45.0602C5.20405 31.1179 6.16305 24.1467 9.47174 18.8443C12.4177 14.1232 16.6499 10.3408 21.671 7.9414C27.3102 5.24665 34.3449 5.07354 48.4143 4.72731L177.406 1.553C195.673 1.10349 204.806 0.878736 211.761 4.73872C215.713 6.93151 219.102 10.0103 221.663 13.7334C226.171 20.2871 226.822 29.3999 228.124 47.6254V47.6254Z" fill="#FFD9C7"/>
<path d="M210.371 70.0025L215.337 31.9923C215.695 29.2541 213.765 26.7444 211.027 26.3866L102.087 12.1524C99.3485 11.7946 96.8387 13.7243 96.481 16.4624L91.5145 54.4727C91.1568 57.2108 93.0864 59.7206 95.8246 60.0783L204.765 74.3126C207.503 74.6704 210.013 72.7407 210.371 70.0025Z" fill="#FFF9ED"/>
<path d="M128.543 37.0214C128.611 37.6678 128.629 38.3264 128.595 38.9927L128.095 38.9665C128.079 39.2798 128.05 39.5949 128.009 39.9114C127.967 40.228 127.914 40.5399 127.849 40.8469L128.339 40.9499C128.201 41.6028 128.014 42.2346 127.783 42.8417L127.315 42.6634C127.088 43.259 126.816 43.83 126.503 44.3728L126.936 44.6225C126.605 45.1958 126.231 45.739 125.819 46.248L125.431 45.9334C125.032 46.4258 124.596 46.8851 124.127 47.3075L124.462 47.6789C123.973 48.1196 123.45 48.5216 122.898 48.881L122.625 48.462C122.097 48.8063 121.541 49.1098 120.963 49.3686L121.167 49.825C120.569 50.0926 119.948 50.3144 119.309 50.4865L119.179 50.0038C118.574 50.1668 117.952 50.2834 117.318 50.3502L117.37 50.8474C116.724 50.9155 116.065 50.9338 115.399 50.8988L115.425 50.3995C115.112 50.3831 114.797 50.3544 114.48 50.3131C114.164 50.2717 113.852 50.2185 113.545 50.1538L113.442 50.6431C112.789 50.5057 112.157 50.3188 111.55 50.0869L111.728 49.6198C111.133 49.3924 110.562 49.1199 110.019 48.8069L109.769 49.2401C109.196 48.9095 108.653 48.5356 108.144 48.1234L108.458 47.7349C107.966 47.3361 107.507 46.9 107.084 46.4314L106.713 46.7662C106.272 46.2772 105.87 45.7543 105.511 45.2027L105.93 44.9298C105.585 44.4013 105.282 43.8453 105.023 43.2669L104.567 43.4712C104.299 42.8733 104.077 42.2524 103.905 41.6133L104.388 41.4833C104.225 40.8783 104.108 40.2565 104.042 39.6224L103.544 39.6748C103.476 39.0284 103.458 38.3698 103.493 37.7035L103.992 37.7297C104.009 37.4164 104.037 37.1013 104.079 36.7847C104.12 36.4682 104.173 36.1563 104.238 35.8493L103.749 35.7463C103.886 35.0934 104.073 34.4616 104.305 33.8544L104.772 34.0328C104.999 33.4372 105.272 32.8662 105.585 32.3234L105.152 32.0737C105.482 31.5004 105.856 30.9572 106.268 30.4482L106.657 30.7628C107.056 30.2704 107.492 29.8111 107.96 29.3887L107.626 29.0173C108.115 28.5766 108.638 28.1746 109.189 27.8152L109.462 28.2342C109.991 27.8899 110.547 27.5864 111.125 27.3275L110.921 26.8712C111.519 26.6036 112.139 26.3818 112.779 26.2096L112.909 26.6924C113.514 26.5294 114.135 26.4128 114.769 26.346L114.717 25.8488C115.363 25.7807 116.022 25.7624 116.688 25.7973L116.662 26.2967C116.975 26.3131 117.291 26.3418 117.607 26.3831C117.924 26.4245 118.236 26.4777 118.543 26.5424L118.646 26.0531C119.298 26.1905 119.93 26.3774 120.537 26.6093L120.359 27.0764C120.955 27.3038 121.526 27.5763 122.068 27.8893L122.318 27.4561C122.891 27.7867 123.435 28.1606 123.944 28.5727L123.629 28.9613C124.121 29.3601 124.581 29.7962 125.003 30.2648L125.375 29.93C125.815 30.419 126.217 30.9419 126.577 31.4935L126.158 31.7664C126.502 32.2949 126.805 32.8509 127.064 33.4293L127.521 33.225C127.788 33.8229 128.01 34.4438 128.182 35.0829L127.699 35.2129C127.862 35.8179 127.979 36.4397 128.046 37.0738L128.543 37.0214Z" stroke="black" stroke-opacity="0.18" stroke-linejoin="round" stroke-dasharray="2 2"/>
<rect x="142.066" y="29.5789" width="24.1333" height="24.1333" transform="rotate(7.44413 142.066 29.5789)" stroke="black" stroke-opacity="0.18" stroke-linejoin="round" stroke-dasharray="2 2"/>
<path d="M189.836 38.0191L191.09 36.3812L191.487 36.6851L191.588 36.5538L191.651 36.7066L192.113 36.5148L192.904 38.42L192.443 38.6118L193.234 40.517L193.696 40.3252L194.487 42.2304L194.025 42.4222L194.817 44.3273L195.278 44.1355L196.07 46.0407L195.608 46.2325L196.399 48.1377L196.861 47.9459L197.652 49.8511L197.191 50.0429L197.982 51.9481L198.444 51.7563L199.235 53.6615L198.773 53.8533L199.565 55.7585L200.026 55.5667L200.818 57.4719L200.356 57.6637L201.147 59.5689L201.609 59.3771L202.4 61.2823L201.939 61.474L202.002 61.6269L201.838 61.6054L201.773 62.1012L199.728 61.8339L199.792 61.3381L197.747 61.0709L197.682 61.5666L195.636 61.2994L195.701 60.8036L193.656 60.5363L193.591 61.0321L191.545 60.7648L191.61 60.269L189.564 60.0017L189.5 60.4975L187.454 60.2302L187.519 59.7345L185.473 59.4672L185.408 59.963L183.363 59.6957L183.428 59.1999L181.382 58.9326L181.317 59.4284L179.272 59.1611L179.336 58.6653L177.291 58.3981L177.226 58.8938L175.18 58.6266L175.245 58.1308L175.081 58.1093L175.182 57.978L174.785 57.674L176.039 56.0361L176.436 56.34L177.69 54.7021L177.293 54.3981L178.548 52.7602L178.945 53.0642L180.199 51.4263L179.802 51.1223L181.056 49.4844L181.453 49.7884L182.707 48.1505L182.31 47.8465L183.565 46.2086L183.962 46.5126L185.216 44.8747L184.819 44.5707L186.073 42.9328L186.47 43.2368L187.724 41.5989L187.327 41.2949L188.582 39.657L188.979 39.961L190.233 38.3231L189.836 38.0191Z" stroke="black" stroke-opacity="0.18" stroke-linejoin="round" stroke-dasharray="2 2"/>
<ellipse cx="117.522" cy="41.0601" rx="12.5667" ry="12.5667" transform="rotate(7.44413 117.522 41.0601)" fill="#C6DFD9"/>
<rect x="116" y="81.7368" width="25.1333" height="25.1333" transform="rotate(-3.64741 116 81.7368)" fill="#E1D4E8"/>
<path d="M159.128 64.3185L179.759 84.5308L151.939 92.2915L159.128 64.3185Z" fill="#FEEBC3"/>
</g>
<path d="M30.1964 64.0245L9.27556 75.6562C8.9577 75.8329 8.84328 76.2339 9.02001 76.5517L25.7205 106.589C25.8972 106.907 26.2982 107.022 26.616 106.845L47.5369 95.2131C47.8548 95.0364 47.9692 94.6354 47.7925 94.3176L31.092 64.28C30.9152 63.9622 30.5143 63.8477 30.1964 64.0245Z" fill="#FFF9ED"/>
<path d="M43.5445 92.3266L26.2708 101.931L26.5174 102.374L43.7911 92.7702L43.5445 92.3266Z" fill="black" fill-opacity="0.18"/>
<path d="M37.6601 91.9105L29.0233 96.7125L29.8236 98.1519L38.4604 93.35L37.6601 91.9105Z" fill="black" fill-opacity="0.18"/>
<path d="M39.4821 96.3179L31.8049 100.586L32.0516 101.03L39.7288 96.7615L39.4821 96.3179Z" fill="black" fill-opacity="0.18"/>
<path d="M23.6922 72.1849C23.3251 72.663 23.7227 73.4579 23.7227 73.4579L24.6102 73.9156C24.6102 73.9156 25.3467 73.5868 25.3748 72.7973C25.4049 71.9632 24.1919 71.5339 23.6922 72.1849V72.1849Z" fill="#D0976E"/>
<path d="M19.3704 74.5071C18.5553 74.6021 18.279 75.9259 19.0029 76.3399C19.6885 76.7326 20.3564 76.2806 20.3564 76.2806L20.4545 75.2101C20.4545 75.2101 20.0671 74.4256 19.37 74.5064L19.3704 74.5071Z" fill="#D0976E"/>
<path d="M19.1476 75.3241C18.8467 76.0775 20.0763 75.931 20.0763 75.931L20.1984 75.551C20.1984 75.551 19.4083 74.6721 19.1473 75.3234L19.1476 75.3241Z" fill="#F4D1B8"/>
<path d="M24.4908 72.3861C23.7994 72.2635 24.129 73.3984 24.129 73.3984L24.5158 73.4945C24.5158 73.4945 25.2899 72.527 24.4904 72.3854L24.4908 72.3861Z" fill="#F4D1B8"/>
<path d="M26.9662 76.2179C25.475 73.845 24.249 72.3751 21.5765 73.7404C19.0251 75.0446 19.695 77.8742 20.6872 79.7737C21.5986 81.5196 21.2633 83.1297 22.4415 85.8292C23.6193 88.528 24.627 89.3551 25.4676 90.1128C26.3086 90.8713 27.2367 91.3224 27.2119 91.627C27.1874 91.9305 26.7851 92.5415 27.352 92.807C27.919 93.0725 29.7753 91.9437 29.9253 91.3444C30.0759 90.7447 29.9499 90.7509 29.8098 90.4415C29.6703 90.1316 29.4591 89.9272 29.4591 89.9272C29.4591 89.9272 29.873 89.8806 30.4599 89.5428C31.0141 89.224 31.2052 88.8917 31.2052 88.8917C31.2052 88.8917 31.4569 89.4609 31.6844 89.7538C31.912 90.0466 32.4674 90.3504 33.5515 89.7476C34.6357 89.1448 35.0404 88.5971 34.7335 88.219C34.427 87.8415 33.7172 88.0748 33.701 87.6965C33.6841 87.3185 33.683 85.1879 32.8973 83.467C32.351 82.2708 31.8566 81.4198 30.963 80.3165C29.401 78.3872 27.8392 77.6111 26.9646 76.2197L26.9662 76.2179Z" fill="#D0976E"/>
<path d="M23.2637 76.5045C22.3566 76.9841 22.7223 77.9607 23.0874 78.5679C23.4529 79.1759 24.0887 78.9944 24.5103 78.7227C25.042 78.381 25.1088 77.9113 24.9008 77.4862C24.6921 77.0614 24.1702 76.0254 23.2637 76.5045Z" fill="#F4D1B8"/>
<path d="M23.0416 77.1377C23.0442 77.3304 23.4696 77.5806 23.7312 77.4803C23.9929 77.3801 23.9471 76.8497 23.8041 76.7137C23.6894 76.6047 23.0399 77.0119 23.0416 77.1377Z" fill="#323232"/>
<path d="M21.6573 76.7495C21.5137 76.8293 21.4699 77.0248 21.5591 77.1853C21.6483 77.3458 21.8375 77.4117 21.981 77.3319C22.1246 77.2521 22.1681 77.0577 22.0785 76.8965C21.9889 76.7353 21.8008 76.6697 21.6573 76.7495Z" fill="#323232"/>
<path d="M24.255 75.3053C24.1114 75.3851 24.0683 75.5802 24.1575 75.7407C24.2467 75.9012 24.4359 75.9671 24.5787 75.8877C24.7216 75.8083 24.7658 75.6135 24.6762 75.4523C24.5866 75.2911 24.3985 75.2255 24.255 75.3053Z" fill="#323232"/>
<path d="M24.9137 79.6243C22.1959 81.0884 23.4976 85.8406 25.1543 87.7137C26.8474 89.6269 28.4598 89.5788 30.1333 88.518C32.24 87.1827 32.2475 85.8249 31.6371 84.0606C31.0918 82.4835 27.7053 78.1192 24.9133 79.6237L24.9137 79.6243Z" fill="#F4D1B8"/>
<path d="M24.6574 83.5707C23.3887 83.2229 23.087 81.6167 23.0707 81.5283C23.0707 81.5283 22.6063 84.0542 23.1019 84.6394C23.7894 85.4504 24.9462 85.7531 25.7085 85.6732C26.5195 85.5885 26.6127 84.4631 26.2692 84.0716C25.7998 83.5366 25.2679 83.7374 24.657 83.57L24.6574 83.5707Z" fill="#D0976E"/>
<path d="M28.1373 81.6359C27.9572 82.2431 27.5066 82.5886 27.7126 83.2701C27.8638 83.7684 28.8689 84.2832 29.3689 83.639C29.8384 83.0341 30.1924 81.8913 29.8665 80.8793C29.6309 80.1495 27.2397 79.2114 27.2397 79.2114C27.3051 79.2716 28.5101 80.3755 28.137 81.637L28.1373 81.6359Z" fill="#D0976E"/>
<path d="M68.0955 10.5379H44.1585C43.7948 10.5379 43.5 10.8327 43.5 11.1964V45.5644C43.5 45.9281 43.7948 46.223 44.1585 46.223H68.0955C68.4592 46.223 68.754 45.9281 68.754 45.5644V11.1964C68.754 10.8327 68.4592 10.5379 68.0955 10.5379Z" fill="#FFF9ED"/>
<path d="M49.7833 46.2229L43.744 23.0732C43.7073 22.9325 43.5 22.959 43.5 23.1045V45.5644C43.5 45.9281 43.7948 46.2229 44.1585 46.2229H49.7833Z" fill="#F0E6D1"/>
<path d="M66.0086 41.7599H46.2446V42.2675H66.0086V41.7599Z" fill="black" fill-opacity="0.18"/>
<path d="M60.042 38.537H52.5389V40.184H60.042V38.537Z" fill="black" fill-opacity="0.18"/>
<path d="M60.5185 43.2744H51.7345V43.7819H60.5185V43.2744Z" fill="black" fill-opacity="0.18"/>
<path d="M58.9135 21.3052L59.7547 22.9177C59.6242 23.0052 58.9251 23.6117 58.4396 25.6878C58.046 27.3725 57.0589 28.2539 56.8169 28.641C56.5042 29.1418 56.1703 29.7468 56.1703 29.7468C56.1703 29.7468 55.6928 27.0066 55.9101 26.2236C56.1273 25.44 58.9135 21.3052 58.9135 21.3052V21.3052Z" fill="#F2E4D4"/>
<path d="M49.5963 26.5641C49.1895 25.5318 49.0117 24.0702 50.3268 23.5279C52.8578 22.4832 54.6883 25.0303 56.7374 23.6124C57.5539 23.0475 58.522 21.3052 58.522 21.3052L59.2182 22.0888C59.2182 22.0888 57.4336 24.4398 56.9547 26.0932C56.4757 27.7472 56.6062 29.0091 57.2594 31.3601C57.6786 32.8683 57.648 33.1628 57.9811 33.7074C58.1677 34.0107 58.4834 34.6412 58.148 34.6048C57.8171 34.5683 57.5073 34.2913 57.1595 33.2467C56.8111 32.202 55.6053 28.9668 55.6053 28.9668C55.6053 28.9668 55.0834 29.141 54.2997 28.9231C53.7027 28.7569 52.314 28.4624 51.6878 28.3311C51.5383 28.5221 51.2905 28.7802 50.9427 28.9544C50.3333 29.2591 50.189 29.4363 50.119 29.706C49.9936 30.1857 49.963 30.5057 50.006 31.8988C50.0497 33.2919 49.971 33.3757 50.006 33.7249C50.0322 33.9859 50.2444 34.6996 49.9644 34.6434C49.756 34.6019 49.5438 34.3438 49.5001 33.7344C49.4563 33.1249 49.5504 32.35 49.4192 31.2186C49.2887 30.0873 49.0547 29.3313 49.4629 28.9114C50.1183 28.2386 49.9564 27.4797 49.597 26.5655L49.5963 26.5641Z" fill="#D0976E"/>
<path d="M55.1059 30.7281C55.2801 29.7272 55.1059 28.3282 55.1059 28.3282L56.483 29.4764C56.483 29.4764 55.5863 31.2872 55.2575 32.614C54.772 34.5684 55.0425 34.7083 54.6459 34.6041C54.463 34.556 54.4163 34.2279 54.479 33.4982C54.5577 32.5833 54.9317 31.7297 55.1059 30.7281V30.7281Z" fill="#D0976E"/>
<path d="M52.3809 27.0504L52.7418 28.1139C52.698 28.2444 52.2045 30.1485 52.0689 31.0561C51.9749 31.6823 52.0033 31.8347 52.1287 33.0084C52.1732 33.4261 52.553 34.4875 52.3015 34.6311C52.1557 34.7149 51.8634 34.6099 51.7219 33.9888C51.5747 33.3393 51.6046 32.684 51.4558 31.8033C51.2838 30.7857 51.1934 30.8768 51.0994 30.1223C50.974 29.1207 51.1621 27.764 51.1621 27.764L52.3817 27.0504H52.3809Z" fill="#D0976E"/>
<path d="M54.6428 16.4116C55.8857 16.6638 56.7102 18.0781 56.7102 18.0781L56.6059 18.8253C56.6059 18.8253 56.2859 19.0841 55.4498 19.2692C54.6136 19.4544 53.9422 19.1227 53.3948 18.226C53.0106 17.5962 52.692 17.1114 52.692 16.7098C52.692 16.3081 53.5989 16.2009 54.6435 16.4123L54.6428 16.4116Z" fill="#D0976E"/>
<path d="M54.6787 17.2454C55.7867 17.6952 56.4238 18.4155 56.445 18.4526L56.3488 18.7785C56.3488 18.7785 55.3464 19.1087 54.597 18.8426C53.8476 18.5758 53.1988 17.3344 53.1609 16.9619C53.123 16.5893 54.1181 17.018 54.6787 17.2454V17.2454Z" fill="#F2E4D4"/>
<path d="M61.1893 15.0687C62.0575 14.4505 62.9301 14.1801 63.0934 14.5475C63.2567 14.9149 63.1627 15.4871 63.0672 16.2183C62.9316 17.2608 62.4526 17.8359 61.6136 18.0072C60.7745 18.1786 60.3765 18.0714 60.3765 18.0714L59.9777 17.4321C59.9777 17.4321 60.1563 15.8043 61.1893 15.0687V15.0687Z" fill="#D0976E"/>
<path d="M61.3917 15.7501C61.9837 15.1903 62.6507 14.6137 62.7666 14.9694C62.8833 15.3251 62.795 16.7233 62.2184 17.2715C61.6425 17.8197 60.5921 17.9254 60.5921 17.9254L60.3486 17.7082C60.3537 17.6659 60.6526 16.4478 61.391 15.7501H61.3917Z" fill="#F2E4D4"/>
<path d="M58.4555 19.1423C58.5612 19.1197 58.6662 19.1066 58.769 19.0942C58.8681 19.0643 58.9694 19.0337 59.0744 19.0103C61.8839 18.4089 62.3687 19.1831 62.3687 19.1831C62.3687 19.1831 62.1558 22.9797 59.7035 23.4914C57.7221 23.9047 55.49 20.9618 55.49 20.9618C55.49 20.9618 55.6445 19.7335 58.4562 19.1416L58.4555 19.1423Z" fill="#F2E4D4"/>
<path d="M58.2996 17.0618C58.3112 17.0589 58.3236 17.0567 58.3353 17.0545C58.3477 17.0516 58.3594 17.0487 58.3717 17.0465C60.695 16.5464 61.9802 17.968 62.3688 19.1963C62.005 19.146 61.3912 19.0942 60.5449 19.7387C59.5673 20.483 59.8807 22.718 59.8807 22.718L59.2261 22.8573C59.2261 22.8573 58.6036 20.6871 57.4088 20.405C56.3729 20.1607 55.7146 20.7002 55.4893 20.951C55.3195 19.6679 55.9369 17.5575 58.2996 17.0626V17.0618Z" fill="#D0976E"/>
<path d="M59.4719 22.3811C59.668 22.3403 59.8721 22.3337 59.9187 22.3876C60.1083 22.61 59.8816 23.1122 59.6381 23.164C59.3953 23.2158 58.9579 22.8629 59.0673 22.5692C59.0913 22.5021 59.2765 22.4241 59.4726 22.3811H59.4719Z" fill="#323232"/>
<path d="M56.8483 21.677C56.7739 21.6383 56.7017 21.5603 56.6587 21.4699C56.7798 21.5603 56.9496 21.623 57.1034 21.5567C57.2587 21.4896 57.4373 21.3482 57.6706 21.3737C58.2297 21.4364 58.3048 21.97 58.3048 21.97C58.3048 21.97 58.0803 21.712 57.7602 21.6449C57.3382 21.5567 57.1829 21.7637 56.9321 21.7798C56.7163 21.7936 56.6172 21.6493 56.6172 21.6493C56.6172 21.6493 56.6952 21.7054 56.8483 21.677V21.677Z" fill="#323232"/>
<path d="M60.7424 20.7212C60.945 20.6024 61.1659 20.6592 61.3343 20.6578C61.502 20.6556 61.6317 20.5295 61.7053 20.3975C61.7032 20.4981 61.6689 20.5987 61.6164 20.6643C61.768 20.6279 61.8161 20.5455 61.8161 20.5455C61.8161 20.5455 61.7848 20.7175 61.5814 20.7934C61.346 20.8801 61.12 20.754 60.7701 21.0062C60.5054 21.1972 60.4048 21.5245 60.4048 21.5245C60.4048 21.5245 60.2568 21.0062 60.7424 20.7226V20.7212Z" fill="#323232"/>
<path d="M49.5022 22.7763C49.6742 22.6983 49.6589 23.1627 49.7529 23.3814C49.8426 23.5906 50.108 23.7991 50.108 23.7991C50.108 23.7991 49.7945 24.2999 49.6071 24.2999C49.4198 24.2999 49.2565 23.9901 49.2208 23.6846C49.1479 23.0686 49.3301 22.855 49.5022 22.7763Z" fill="#D0976E"/>
<path d="M53.1326 24.5426C53.3353 24.6345 53.3768 24.8707 53.3032 25.0325C53.2303 25.1951 53.0393 25.2869 52.8366 25.1951C52.634 25.1032 52.6573 24.8962 52.7309 24.7343C52.8038 24.5725 52.9292 24.4508 53.1326 24.5426Z" fill="#F2E4D4"/>
<path d="M51.9706 24.6381C52.0683 24.7299 52.045 24.8757 51.9692 24.9567C51.8941 25.0369 51.7651 25.0543 51.6674 24.9625C51.569 24.8706 51.6244 24.754 51.7002 24.6738C51.7753 24.5929 51.8722 24.5462 51.9714 24.6381H51.9706Z" fill="#F2E4D4"/>
<path d="M54.0991 24.1635C54.2019 24.1227 54.3098 24.1212 54.3594 24.2459C54.409 24.3712 54.3259 24.493 54.2231 24.5331C54.1203 24.5746 53.9964 24.5353 53.9468 24.4106C53.8965 24.2852 53.9964 24.2036 54.0991 24.1628V24.1635Z" fill="#F2E4D4"/>
<path d="M52.0877 23.6919C52.3363 23.7283 52.4602 23.9383 52.4347 24.1067C52.4099 24.2751 52.2364 24.407 51.9878 24.3705C51.7393 24.3341 51.6955 24.1358 51.7203 23.9674C51.7451 23.799 51.8391 23.6554 52.087 23.6919H52.0877Z" fill="#F2E4D4"/>
<path d="M50.6899 24.0805C50.862 24.0243 51.0114 24.1257 51.0515 24.2481C51.0916 24.3699 51.0223 24.5157 50.8503 24.5725C50.6783 24.6287 50.585 24.5091 50.5449 24.3866C50.5048 24.2642 50.5179 24.1366 50.6907 24.0805H50.6899Z" fill="#F2E4D4"/>
<path d="M49.9615 24.7672C50.1 24.6739 50.2568 24.7235 50.3216 24.8204C50.3865 24.9166 50.361 25.061 50.2225 25.155C50.084 25.2483 49.9717 25.1681 49.9068 25.0719C49.842 24.9757 49.8223 24.8612 49.9608 24.7679L49.9615 24.7672Z" fill="#F2E4D4"/>
<path d="M42.4233 20.3416L19.0107 25.3248C18.655 25.4005 18.428 25.7502 18.5037 26.106L25.6583 59.721C25.734 60.0767 26.0838 60.3037 26.4395 60.228L49.8521 55.2449C50.2078 55.1692 50.4348 54.8194 50.3591 54.4637L43.2045 20.8487C43.1288 20.4929 42.779 20.2659 42.4233 20.3416Z" fill="#FFF9ED"/>
<path d="M46.8818 51.3141L27.5508 55.4285L27.6564 55.925L46.9875 51.8106L46.8818 51.3141Z" fill="black" fill-opacity="0.18"/>
<path d="M40.375 49.4039L33.0363 50.9659L33.3791 52.5768L40.7179 51.0148L40.375 49.4039Z" fill="black" fill-opacity="0.18"/>
<path d="M41.8273 53.9383L33.2357 55.7669L33.3414 56.2633L41.9329 54.4347L41.8273 53.9383Z" fill="black" fill-opacity="0.18"/>
<path d="M29.949 40.6905C29.4817 40.8256 29.6682 41.6486 29.8582 42.484C30.0413 43.2912 30.2886 44.036 30.1686 44.4698C30.0727 44.8166 29.7813 45.0667 29.9203 45.2739C30.0584 45.4813 30.6916 45.3692 30.9206 45.0018C31.0399 44.8101 31.0957 44.5737 31.0253 44.0219C30.9547 43.4694 31.0683 40.3687 29.95 40.6911L29.949 40.6905Z" fill="#323232"/>
<path d="M34.8228 39.263C33.3013 38.6397 31.9836 38.2751 31.6559 36.212C31.1452 35.8854 28.8449 36.6684 28.8449 36.6684C28.5527 37.9163 28.319 40.3635 30.1426 42.3485C30.6467 42.8976 31.1934 43.3035 31.7041 43.6136C32.0535 43.857 32.4217 44.0537 32.8356 44.1998C33.0292 44.2874 33.2016 44.3613 33.3408 44.4265C33.4166 44.4147 33.4872 44.4032 33.5543 44.3915C33.6696 44.414 33.7869 44.4334 33.9096 44.45C35.2302 44.6198 36.6635 44.7753 37.1975 43.3515C37.7334 41.9238 36.5316 39.9649 34.8213 39.2642L34.8228 39.263Z" fill="#F79F7C"/>
<path d="M36.8707 42.8797C36.8707 42.8797 37.9201 43.0672 38.1231 41.9767C38.3251 40.8856 37.0162 40.0064 37.6341 37.9092C38.6093 34.5999 41.8298 34.5873 41.8298 34.5873C41.8298 34.5873 41.1487 35.8684 41.4969 37.8435C41.7777 39.4369 42.0107 41.5045 40.702 42.8338C38.7085 44.8581 36.6511 43.696 36.6511 43.696L36.8699 42.8798L36.8707 42.8797Z" fill="#F79F7C"/>
<path d="M37.8801 37.2403C38.2003 36.9945 38.8288 36.4151 39.3093 36.2893C39.236 36.5948 39.2742 37.4981 39.3915 37.7831C39.6899 37.2312 40.2449 36.6168 40.6408 36.3672C40.7998 36.8321 40.8785 37.2263 41.1634 37.7106C41.27 37.8925 41.4029 38.0714 41.5648 38.2433C41.5438 38.1076 41.5206 37.9741 41.4979 37.8431C41.1498 35.868 41.8309 34.5869 41.8309 34.5869C41.8309 34.5869 39.0607 34.5976 37.8808 37.2393L37.8801 37.2403Z" fill="#F2E4D4"/>
<path d="M25.8816 32.3953C25.8816 32.3953 24.8158 29.53 25.7117 29.0294C26.4196 28.635 28.3629 30.725 28.3629 30.725L25.8816 32.3953Z" fill="#F79F7C"/>
<path d="M33.3791 32.1401C33.3791 32.1401 34.2474 29.2079 33.3188 28.7701C32.5865 28.4245 30.7899 30.642 30.7899 30.642L33.3789 32.1393L33.3791 32.1401Z" fill="#F79F7C"/>
<path d="M26.2569 32.2407C26.2569 32.2407 25.4703 30.1273 26.1315 29.7585C26.6526 29.4674 28.0858 31.0087 28.0858 31.0087L26.2567 32.2398L26.2569 32.2407Z" fill="#F2E4D4"/>
<path d="M33.032 32.0104C33.032 32.0104 33.6718 29.8485 32.9879 29.5257C32.4472 29.2708 31.1228 30.9064 31.1228 30.9064L33.0322 32.0113L33.032 32.0104Z" fill="#F2E4D4"/>
<path d="M31.7106 31.4847C31.1236 31.4172 30.3589 31.4346 29.6039 31.5056C28.8461 31.4859 28.0818 31.5214 27.5015 31.6284C25.8846 31.9264 25.2523 33.6044 25.3595 34.2877C25.4442 34.8207 28.0537 37.6203 29.7987 37.5397C29.802 37.539 29.8064 37.5389 29.8099 37.5391C29.8141 37.5382 29.8177 37.5391 29.8221 37.5391C31.5684 37.5017 33.9809 34.5307 34.0283 33.993C34.0896 33.3036 33.3439 31.6725 31.7099 31.4857L31.7106 31.4847Z" fill="#F2E4D4"/>
<path d="M29.5569 30.1201C26.0067 30.2316 25.1931 33.3106 25.3507 34.1981C25.7396 33.9482 26.77 33.3519 27.8871 33.7923C29.1771 34.3012 29.4165 36.0062 29.4165 36.0062L29.7567 35.9982L29.5569 30.1201Z" fill="#F79F7C"/>
<path d="M29.5569 30.1201C33.1057 29.9898 34.1282 33.0072 34.0307 33.9028C33.6257 33.68 32.5566 33.1545 31.4726 33.6707C30.2201 34.2664 30.0981 35.9829 30.0981 35.9829L29.7578 35.9988L29.5569 30.1201Z" fill="#F79F7C"/>
<path d="M30.2084 35.9125C30.1666 35.8509 29.9575 35.817 29.7466 35.8236C29.5352 35.8321 29.3254 35.8767 29.2919 35.9439C29.1547 36.2195 29.5138 36.6758 29.7754 36.6663C30.0372 36.6576 30.3945 36.1854 30.2084 35.9125Z" fill="#323232"/>
<path d="M31.271 40.6511C30.8029 40.7864 31.0518 41.8164 31.2417 42.6517C31.425 43.4597 31.673 44.2035 31.5521 44.6375C31.4554 44.9846 31.1649 45.2344 31.3038 45.4416C31.4428 45.6489 32.0758 45.5359 32.3041 45.1696C32.4228 44.9789 32.4794 44.7422 32.4088 44.1897C32.3382 43.6371 32.3904 40.3293 31.272 40.6517L31.271 40.6511Z" fill="#F79F7C"/>
<path d="M32.4078 44.1891C32.3564 43.7839 32.3708 41.9013 31.9424 41.0497C31.857 41.2168 31.8229 41.4121 31.8057 41.5933C31.6734 41.4334 31.5234 41.199 31.4227 40.9914C31.3665 41.0913 31.3011 41.4056 31.2882 41.6068C31.1813 41.452 31.1008 41.2576 31.0181 41.0123C30.9545 41.4167 31.1121 42.0796 31.2418 42.6518C31.425 43.4598 31.673 44.2036 31.5522 44.6376C31.4555 44.9846 31.1649 45.2345 31.3039 45.4417C31.4428 45.6489 32.0758 45.536 32.3041 45.1696C32.4228 44.979 32.4794 44.7423 32.4088 44.1897L32.4078 44.1891Z" fill="#323232"/>
<path d="M35.6771 44.0503C35.4786 43.9924 34.988 44.1735 34.8101 44.2044C34.2184 44.3068 33.7476 44.1633 33.1803 44.4294C32.6619 44.672 32.3422 45.3651 33.1635 45.3113C33.7128 45.2754 34.122 44.9045 34.662 44.8862C34.9236 44.8766 35.3704 44.8416 35.6259 44.7376C36.0591 44.561 35.9376 44.1254 35.678 44.0501L35.6771 44.0503Z" fill="#F79F7C"/>
<path d="M36.3329 44.2858C36.4047 44.1652 36.4884 44.0229 36.5106 43.8693C36.3582 43.9549 36.1803 44.0145 36.0189 44.0776C36.0819 43.8422 36.0972 43.6074 36.0219 43.3683C35.8244 43.7855 35.0946 44.1098 34.807 44.1771C34.2229 44.3153 33.7467 44.1633 33.1793 44.4286C32.6609 44.6713 32.3412 45.3644 33.1625 45.3106C33.7118 45.2746 34.129 44.9168 34.669 44.8985C34.7726 44.8948 35.1345 44.8534 35.285 44.8284C35.5077 44.7914 36.4676 44.5505 36.6371 44.1532C36.5433 44.2071 36.4354 44.244 36.3329 44.2858Z" fill="#323232"/>
<path d="M27.3777 34.6886C27.2011 34.6974 27.0655 34.8656 27.0757 35.0645C27.0858 35.2635 27.2376 35.4166 27.4141 35.4077C27.5915 35.3987 27.7263 35.2307 27.7171 35.0325C27.707 34.8335 27.5552 34.6804 27.3787 34.6892L27.3777 34.6886Z" fill="#323232"/>
<path d="M31.9815 34.5236C31.8041 34.5326 31.6685 34.7008 31.6784 34.8989C31.6884 35.097 31.8404 35.251 32.0169 35.2421C32.1942 35.2331 32.3291 35.0651 32.3191 34.867C32.3089 34.6681 32.158 34.5148 31.9806 34.5238L31.9815 34.5236Z" fill="#323232"/>
<path d="M80.7534 58.5121L59.0049 48.5129C58.6745 48.361 58.2835 48.5057 58.1315 48.8362L43.775 80.062C43.6231 80.3924 43.7678 80.7835 44.0983 80.9354L65.8467 90.9345C66.1772 91.0865 66.5682 90.9418 66.7201 90.6113L81.0766 59.3855C81.2286 59.0551 81.0839 58.664 80.7534 58.5121Z" fill="#FFF9ED"/>
<path d="M65.8156 86.0081L47.8585 77.7521L47.6465 78.2133L65.6035 86.4693L65.8156 86.0081Z" fill="black" fill-opacity="0.18"/>
<path d="M61.0513 80.2704L55.315 77.6331L54.627 79.1295L60.3633 81.7668L61.0513 80.2704Z" fill="black" fill-opacity="0.18"/>
<path d="M60.1947 85.0907L52.2137 81.4213L52.0017 81.8825L59.9826 85.5518L60.1947 85.0907Z" fill="black" fill-opacity="0.18"/>
<path d="M64.9518 69.8818C64.9518 69.8818 65.4305 71.4657 64.8086 72.9315C64.1878 74.3968 62.9984 75.1291 62.9984 75.1291C62.9984 75.1291 65.0359 76.0398 64.508 76.7904C63.9804 77.5401 62.8015 76.9202 61.9381 76.1834C61.0747 75.4467 61.1118 74.8594 60.3518 74.4609C59.3168 73.9195 58.6457 74.8035 56.7529 73.8774C55.5341 73.2815 55.7251 72.5521 56.1545 72.3655C56.8582 72.0596 58.0212 72.7098 58.0212 72.7098C58.0212 72.7098 57.6893 70.8402 59.1755 69.1818C60.6051 67.5859 61.0681 67.7324 61.0681 67.7324L64.9507 69.8823L64.9518 69.8818Z" fill="#C4C4C4"/>
<path d="M64.775 67.0409C64.775 67.0409 64.8222 70.4342 63.7332 72.3695C63.2562 73.2185 62.0538 74.4877 60.6047 73.7145C58.9078 72.8102 59.2247 71.0156 60.1726 69.4649C61.12 67.9149 63.0104 66.2296 63.0104 66.2296L64.775 67.0409V67.0409Z" fill="#F5F1EC"/>
<path d="M65.1764 68.0002C65.1764 68.0002 65.6933 69.4736 65.3926 70.3517C64.9369 71.6841 63.9913 71.1242 63.9913 71.1242C63.9913 71.1242 63.4829 71.7673 62.9075 71.342C62.462 71.013 62.5936 70.599 63.0456 70.0138C63.5986 69.2988 64.4846 69.5425 64.4846 69.5425C64.4846 69.5425 64.5567 68.8183 64.4679 68.3857C64.3793 67.9523 64.2943 67.6264 64.2943 67.6264L65.1772 68.0005L65.1764 68.0002Z" fill="#C4C4C4"/>
<path d="M62.0992 66.4864C62.0992 66.4864 60.578 67.1219 60.1064 67.9214C59.3917 69.1347 60.4323 69.488 60.4323 69.488C60.4323 69.488 60.2751 70.2926 60.9733 70.4529C61.5131 70.5768 61.7416 70.2074 61.8917 69.4833C62.0752 68.5985 61.3126 68.0843 61.3126 68.0843C61.3126 68.0843 61.8154 67.558 62.2016 67.3438C62.5882 67.1289 62.8909 66.9813 62.8909 66.9813L62.0992 66.4864V66.4864Z" fill="#C4C4C4"/>
<path d="M65.5514 62.2314C63.7315 61.4293 61.6334 63.3299 61.1998 64.273C60.7662 65.2161 60.858 66.3854 63.3831 67.5964C65.9082 68.8074 67.0058 68.5825 67.5906 67.3104C68.1754 66.0384 68.1561 63.3779 65.5517 62.2306L65.5514 62.2314Z" fill="#C4C4C4"/>
<path d="M64.2762 65.4276C64.9441 65.6308 64.9133 66.2336 64.7528 66.6246C64.4781 67.2933 64.185 67.6061 63.5412 67.2774C62.9777 66.9895 63.0935 66.5576 63.3594 66.0504C63.6261 65.5436 63.956 65.3305 64.2754 65.4273L64.2762 65.4276Z" fill="#F5F1EC"/>
<path d="M66.842 64.0672C66.963 64.0805 68.2134 63.8498 69.6663 61.8893C71.1191 59.9288 71.332 58.5425 70.8201 58.1801C70.3082 57.8177 68.5385 58.8847 67.6302 60.2323C66.4741 61.9472 66.0263 63.3524 66.0263 63.3524L66.8424 64.0664L66.842 64.0672Z" fill="#C4C4C4"/>
<path d="M66.8641 63.1583C67.1537 63.4474 68.1465 62.722 68.8655 61.6627C69.6546 60.499 70.1532 59.4145 70.0106 59.2643C69.8679 59.114 68.4614 60.2055 67.839 61.1908C67.2166 62.176 66.6797 62.9754 66.8641 63.1583Z" fill="#FFD9C7"/>
<path d="M65.0977 62.8831C65.0977 62.8831 65.9055 61.0928 66.4975 59.8385C67.0457 58.6777 66.9086 58.3605 66.7139 58.0448C66.437 57.5941 64.559 57.3226 64.2532 57.9876C63.8993 58.7575 63.9412 59.6815 64.0578 60.6254C64.1752 61.5696 64.3709 62.804 64.3709 62.804L65.0974 62.8839L65.0977 62.8831Z" fill="#C4C4C4"/>
<path d="M64.8351 62.2542C65.0976 62.3258 65.4357 61.1319 65.7145 60.1571C65.9789 59.2305 66.3441 58.3272 65.7386 58.2605C65.1338 58.1942 64.7959 58.9292 64.7321 59.6207C64.6682 60.3122 64.4588 62.1514 64.8359 62.2545L64.8351 62.2542Z" fill="#FFD9C7"/>
<path d="M66.4791 57.88C66.4309 57.9849 65.5391 60.1716 64.7563 59.8435C63.7137 59.4065 64.0956 58.2683 64.3748 57.8452C64.654 57.422 66.4783 57.8796 66.4783 57.8796L66.4791 57.88Z" fill="#C4C4C4"/>
<path d="M64.6682 66.0889C64.6597 65.9608 63.9669 65.5961 63.8578 65.7163C63.7218 65.8655 63.7177 66.4103 63.9919 66.4921C64.2669 66.5743 64.6809 66.2853 64.6682 66.0889Z" fill="#323232"/>
<path d="M66.0363 65.9759C66.1595 66.0325 66.2081 66.1906 66.1442 66.3296C66.0802 66.4687 65.929 66.5339 65.8058 66.4772C65.6827 66.4206 65.6341 66.2626 65.6976 66.1243C65.7612 65.9861 65.9132 65.9193 66.0363 65.9759Z" fill="#323232"/>
<path d="M63.1038 64.6276C63.2269 64.6843 63.2755 64.8423 63.2116 64.9814C63.1477 65.1204 62.9964 65.1856 62.8733 65.129C62.7501 65.0724 62.7015 64.9143 62.7651 64.7761C62.8286 64.6378 62.9806 64.571 63.1038 64.6276Z" fill="#323232"/>
<defs>
<clipPath id="clip0_206_2378">
<rect y="0.871216" width="232" height="106.333" rx="12" fill="white"/>
</clipPath>
</defs>
</svg>
