<svg width="232" height="107" viewBox="0 0 232 107" fill="none" xmlns="http://www.w3.org/2000/svg">
<g clip-path="url(#clip0_206_2304)">
<path d="M229.141 45.8397C227.531 33.5929 226.726 27.4695 224.081 22.6526C221.02 17.0806 216.228 12.6577 210.428 10.054C205.415 7.80318 199.246 7.49194 186.91 6.86947L61.6108 0.547132C41.6797 -0.45855 31.7142 -0.961391 24.147 3.50877C21.4309 5.11327 18.9923 7.14674 16.9258 9.53034C11.1686 16.1711 9.87252 26.0648 7.28029 45.8521V45.8521C3.95256 71.2538 2.2887 83.9546 7.90126 92.8747C9.89343 96.0408 12.4747 98.7953 15.5049 100.989C24.042 107.168 36.8241 106.332 62.3881 104.659L187.579 96.4662C203.007 95.4566 210.721 94.9518 216.416 91.8198C222.996 88.2009 227.932 82.1887 230.2 75.0294C232.163 68.8334 231.155 61.1688 229.141 45.8397V45.8397Z" fill="#E8F1E8"/>
<rect x="-1.05212" y="27.6045" width="103.15" height="69.6716" rx="10.2028" transform="rotate(-12.1762 -1.05212 27.6045)" fill="#D7DCEA"/>
<rect x="6.47498" y="32.46" width="90.4826" height="57.004" rx="5.95166" transform="rotate(-12.1762 6.47498 32.46)" fill="#FFF9EE"/>
<mask id="mask0_206_2304" style="mask-type:alpha" maskUnits="userSpaceOnUse" x="7" y="14" width="99" height="74">
<rect x="6.47498" y="32.46" width="90.4826" height="57.004" rx="5.95166" transform="rotate(-12.1762 6.47498 32.46)" fill="white"/>
</mask>
<g mask="url(#mask0_206_2304)">
<path fill-rule="evenodd" clip-rule="evenodd" d="M69.8992 55.0659C72.5815 54.4215 70.7935 45.02 69.2622 45.5253L69.2517 45.5276C67.6472 34.9492 66.1844 31.1093 52.9977 33.9547C39.811 36.8 40.3809 41.2153 43.1186 51.1664C41.4861 51.3546 43.9855 60.6573 46.4201 60.132C48.6604 63.1432 51.6943 65.6196 55.2458 66.4204L56.5778 72.5938C40.3012 77.5804 41.8796 84.9473 43.5542 92.7626C43.5934 92.9458 43.6327 93.1292 43.6718 93.3129L44.001 94.8384L44.0219 94.8339C51.2424 97.5845 59.0548 98.1625 66.5886 96.5369C74.1223 94.9113 81.0118 91.1611 86.4533 85.6674L86.3496 85.1868C86.2357 84.6772 86.1263 84.1669 86.0173 83.6585C84.3374 75.8193 82.7506 68.4149 65.8252 70.5984L64.4931 64.4249C67.3828 62.2341 69.0999 58.7328 69.8992 55.0659Z" fill="#FFDBB7"/>
<path fill-rule="evenodd" clip-rule="evenodd" d="M44.0036 94.849L43.6721 93.313C41.9637 85.294 39.92 77.6974 56.5781 72.5939C60.29 74.5925 63.3553 73.8983 65.8046 70.6031C83.8278 68.2779 84.4581 76.8248 86.329 85.1914L86.4327 85.672C80.9912 91.1657 74.1017 94.916 66.568 96.5415C59.0342 98.1671 51.2218 97.5892 44.0013 94.8385L44.0036 94.849Z" fill="#FFD9C7"/>
<path fill-rule="evenodd" clip-rule="evenodd" d="M61.584 73.2417L65.4009 68.7328L66.8615 70.4845L67.0959 77.2467L61.9628 74.9971L58.141 79.179L55.5765 72.9195L56.1744 70.7236L61.584 73.2417Z" fill="white"/>
<path fill-rule="evenodd" clip-rule="evenodd" d="M63.1584 32.7465C69.448 35.6433 73.8272 44.3326 71.2556 50.913C70.9372 49.1336 69.8166 47.5382 68.1957 47.5271C61.8631 47.4719 48.8198 46.2182 46.4148 43.4346C46.6319 46.9746 46.1086 51.7461 44.0959 52.8584C43.2454 53.3262 43.0987 55.1294 43.6352 57.0586C38.9045 51.0478 38.401 42.9876 43.6104 36.9754C39.181 32.3102 42.6392 27.1023 51.312 25.231C59.9847 23.3596 65.2932 26.6759 63.1584 32.7465V32.7465Z" fill="#D0976E"/>
</g>
<rect x="169.167" y="4.63794" width="18.3667" height="18.3667" transform="rotate(-12.8993 169.167 4.63794)" fill="#FEEBC3"/>
<rect x="169.167" y="4.63794" width="18.3667" height="3.24118" transform="rotate(-12.8993 169.167 4.63794)" fill="#F1D8A3"/>
<path d="M216.684 28.1387C216.773 27.3549 216.707 26.5603 216.491 25.7994C216.276 25.0368 215.915 24.3216 215.429 23.6928C214.926 23.0396 214.299 22.4916 213.583 22.0805C212.58 21.5016 211.445 21.2091 210.297 21.2329C210.023 21.2386 209.751 21.2623 209.483 21.3039C209.385 21.0509 209.27 20.8041 209.138 20.5635C208.585 19.558 207.764 18.7207 206.761 18.1417C206.039 17.7248 205.26 17.4581 204.441 17.3489C203.651 17.2425 202.858 17.2875 202.086 17.4825C201.319 17.6749 200.598 18.0156 199.964 18.4854C199.305 18.9741 198.761 19.583 198.349 20.2954C197.961 20.9675 197.695 21.7477 197.559 22.6187C197.445 23.3467 197.418 24.1546 197.479 25.0213C197.576 26.3934 197.899 27.9524 198.436 29.6534C199.325 32.4729 200.504 34.7469 200.556 34.8412L200.861 35.4263C200.996 35.6848 201.271 35.8434 201.562 35.8314L202.221 35.803C202.33 35.7983 204.886 35.6836 207.774 35.045C209.516 34.6592 211.027 34.1595 212.264 33.5578C213.045 33.1772 213.733 32.751 214.305 32.2872C214.991 31.7333 215.534 31.1128 215.922 30.4407C216.335 29.7295 216.59 28.9538 216.684 28.1387V28.1387Z" fill="#FFCFC7"/>
<path d="M216.684 28.1387C216.773 27.3549 216.707 26.5603 216.491 25.7994C216.276 25.0368 215.915 24.3216 215.429 23.6928C214.926 23.0396 214.299 22.4916 213.583 22.0805C212.58 21.5016 211.445 21.2091 210.297 21.2329C210.023 21.2386 209.751 21.2623 209.483 21.3039C209.385 21.0509 209.27 20.8041 209.138 20.5635C208.585 19.558 207.764 18.7207 206.761 18.1417C206.039 17.7248 205.26 17.4581 204.441 17.3489C203.651 17.2425 202.858 17.2875 202.086 17.4825C201.319 17.6749 200.598 18.0156 199.964 18.4854C199.305 18.9741 198.761 19.583 198.349 20.2954C197.961 20.9675 197.695 21.7477 197.559 22.6187C197.445 23.3467 197.418 24.1546 197.479 25.0213C197.576 26.3934 197.899 27.9524 198.436 29.6534C199.325 32.4729 200.504 34.7469 200.556 34.8412L200.861 35.4263C200.996 35.6848 201.271 35.8434 201.562 35.8314L202.221 35.803C202.33 35.7983 204.886 35.6836 207.774 35.045C209.516 34.6592 211.027 34.1595 212.264 33.5578C213.045 33.1772 213.733 32.751 214.305 32.2872C214.991 31.7333 215.534 31.1128 215.922 30.4407C216.335 29.7295 216.59 28.9538 216.684 28.1387V28.1387Z" fill="url(#paint0_linear_206_2304)" fill-opacity="0.2"/>
</g>
<path fill-rule="evenodd" clip-rule="evenodd" d="M134.629 28.9663L183.899 33.3519C185.496 33.4941 186.699 34.9088 186.557 36.5114L180.615 103.26C180.473 104.863 179.039 106.043 177.441 105.901L128.171 101.515C126.574 101.373 125.396 99.9607 125.538 98.358L131.48 31.609C131.623 30.0064 133.031 28.8241 134.629 28.9663Z" fill="#FFD9C7"/>
<path d="M181.516 37.9341L136.165 33.8974C135.615 33.8484 135.129 34.2547 135.08 34.8048L129.647 95.8478C129.598 96.3979 130.004 96.8836 130.554 96.9325L175.905 100.969C176.455 101.018 176.941 100.612 176.989 100.062L182.423 39.0188C182.472 38.4687 182.066 37.9831 181.516 37.9341Z" fill="#FFF9ED"/>
<path fill-rule="evenodd" clip-rule="evenodd" d="M134.047 90.6288C135.011 90.7145 135.727 91.573 135.641 92.5397C135.555 93.5063 134.698 94.2248 133.735 94.1391C132.771 94.0533 132.055 93.1948 132.141 92.2282C132.227 91.2615 133.084 90.543 134.047 90.6288Z" fill="#FFD9C7"/>
<path fill-rule="evenodd" clip-rule="evenodd" d="M134.575 84.7018C135.539 84.7875 136.255 85.6462 136.169 86.6129C136.082 87.5796 135.226 88.2981 134.262 88.2123C133.299 88.1265 132.583 87.2681 132.669 86.3014C132.755 85.3347 133.611 84.616 134.575 84.7018Z" fill="#FFD9C7"/>
<path fill-rule="evenodd" clip-rule="evenodd" d="M135.105 78.7492C136.068 78.835 136.784 79.6935 136.698 80.6604C136.612 81.6273 135.756 82.3456 134.792 82.2598C133.829 82.174 133.113 81.3156 133.199 80.3489C133.285 79.3822 134.141 78.6635 135.105 78.7492Z" fill="#FFD9C7"/>
<path fill-rule="evenodd" clip-rule="evenodd" d="M135.632 72.8222C136.596 72.908 137.312 73.7665 137.226 74.7334C137.14 75.7003 136.284 76.4186 135.32 76.3328C134.356 76.247 133.64 75.3883 133.727 74.4219C133.813 73.4555 134.669 72.7365 135.632 72.8222Z" fill="#FFD9C7"/>
<path fill-rule="evenodd" clip-rule="evenodd" d="M136.16 66.8949C137.124 66.9806 137.84 67.8391 137.754 68.806C137.667 69.7729 136.811 70.4912 135.847 70.4054C134.884 70.3196 134.168 69.4612 134.254 68.4945C134.34 67.5279 135.196 66.8091 136.16 66.8949Z" fill="#FFD9C7"/>
<path fill-rule="evenodd" clip-rule="evenodd" d="M136.69 60.9426C137.653 61.0284 138.369 61.8868 138.283 62.8535C138.197 63.8202 137.341 64.5389 136.377 64.4531C135.414 64.3674 134.698 63.5087 134.784 62.542C134.87 61.5754 135.726 60.8568 136.69 60.9426Z" fill="#FFD9C7"/>
<path fill-rule="evenodd" clip-rule="evenodd" d="M137.217 55.0156C138.181 55.1014 138.897 55.9598 138.811 56.9265C138.725 57.8932 137.868 58.6119 136.905 58.5261C135.941 58.4404 135.225 57.5819 135.311 56.615C135.397 55.6481 136.253 54.9298 137.217 55.0156Z" fill="#FFD9C7"/>
<path fill-rule="evenodd" clip-rule="evenodd" d="M137.745 49.0885C138.708 49.1742 139.427 50.0073 139.338 50.9994C139.25 51.9915 138.396 52.6848 137.432 52.599C136.469 52.5132 135.753 51.6546 135.839 50.6879C135.925 49.7212 136.781 49.0027 137.745 49.0885Z" fill="#FFD9C7"/>
<path fill-rule="evenodd" clip-rule="evenodd" d="M138.802 37.2092C139.766 37.295 140.482 38.1534 140.396 39.1201C140.31 40.0868 139.453 40.8055 138.49 40.7197C137.526 40.634 136.81 39.7753 136.896 38.8086C136.982 37.842 137.839 37.1234 138.802 37.2092Z" fill="#FFD9C7"/>
<path fill-rule="evenodd" clip-rule="evenodd" d="M138.275 43.1361C139.238 43.2219 139.954 44.0803 139.868 45.047C139.782 46.0137 138.926 46.7322 137.962 46.6464C136.999 46.5606 136.283 45.7022 136.369 44.7355C136.455 43.7688 137.311 43.0503 138.275 43.1361Z" fill="#FFD9C7"/>
<path d="M134.567 79.6245L126.579 78.9135C126.098 78.8707 125.683 79.2183 125.642 79.6764C125.599 80.1596 125.948 80.5495 126.43 80.5924L134.418 81.3034C134.874 81.344 135.286 81.0218 135.329 80.5386C135.37 80.0808 135.023 79.6652 134.567 79.6245Z" fill="#40494C"/>
<path d="M134.037 85.577L126.05 84.8661C125.568 84.8232 125.153 85.1708 125.113 85.6289C125.072 86.0869 125.418 86.502 125.9 86.5449L133.888 87.2559C134.344 87.2966 134.759 86.9489 134.799 86.4911C134.84 86.0333 134.494 85.6177 134.037 85.577Z" fill="#40494C"/>
<path d="M135.095 73.6975L127.107 72.9865C126.625 72.9437 126.211 73.2913 126.17 73.7491C126.129 74.2069 126.476 74.6225 126.958 74.6654L134.945 75.3764C135.402 75.417 135.816 75.0694 135.857 74.6113C135.897 74.1533 135.551 73.7381 135.095 73.6975Z" fill="#40494C"/>
<path d="M133.51 91.5039L125.522 90.7929C125.04 90.7501 124.626 91.0977 124.585 91.5558C124.544 92.0138 124.891 92.4289 125.373 92.4718L133.36 93.1828C133.817 93.2234 134.231 92.8758 134.272 92.418C134.312 91.9602 133.966 91.5445 133.51 91.5039Z" fill="#40494C"/>
<path d="M130.127 39.0523L138.115 39.7633C138.571 39.8039 138.986 39.4562 139.026 38.9982C139.067 38.5401 138.721 38.1247 138.264 38.0841L130.277 37.3731C129.795 37.3303 129.381 37.6782 129.34 38.136C129.299 38.5937 129.645 39.0094 130.127 39.0523Z" fill="#40494C"/>
<path d="M135.622 67.7704L127.634 67.0594C127.153 67.0165 126.74 67.3388 126.697 67.822C126.657 68.2798 127.003 68.6954 127.485 68.7383L135.473 69.4493C135.929 69.4899 136.343 69.1422 136.384 68.6842C136.427 68.201 136.078 67.811 135.622 67.7704Z" fill="#40494C"/>
<path d="M137.737 44.0114L129.749 43.3004C129.268 43.2575 128.853 43.6052 128.812 44.0632C128.772 44.5212 129.118 44.9366 129.6 44.9795L137.588 45.6905C138.044 45.7311 138.458 45.3834 138.499 44.9254C138.54 44.4674 138.193 44.052 137.737 44.0114Z" fill="#40494C"/>
<path d="M137.21 49.9384L129.222 49.2274C128.74 49.1845 128.326 49.5322 128.283 50.0156C128.242 50.4734 128.588 50.889 129.07 50.9319L137.058 51.6429C137.514 51.6835 137.928 51.3359 137.969 50.8778C138.012 50.3946 137.666 49.979 137.21 49.9384Z" fill="#40494C"/>
<path d="M136.68 55.8909L128.692 55.1799C128.21 55.137 127.796 55.4847 127.755 55.9425C127.714 56.4003 128.061 56.8159 128.542 56.8588L136.53 57.5698C136.986 57.6104 137.401 57.2627 137.442 56.8047C137.482 56.3467 137.136 55.9315 136.68 55.8909Z" fill="#40494C"/>
<path d="M136.152 61.8183L128.164 61.1073C127.683 61.0644 127.268 61.4121 127.227 61.8699C127.184 62.3531 127.533 62.7433 128.015 62.7862L136.003 63.4972C136.459 63.5378 136.871 63.2155 136.914 62.7321C136.955 62.2743 136.608 61.8589 136.152 61.8183Z" fill="#40494C"/>
<path d="M179.174 43.3666L144.865 40.3127L144.785 41.2029L179.094 44.2568L179.174 43.3666Z" fill="black" fill-opacity="0.18"/>
<path d="M177.134 47.7249L144.464 44.8169L144.384 45.7071L177.055 48.6151L177.134 47.7249Z" fill="black" fill-opacity="0.18"/>
<path d="M173.592 51.9496L144.063 49.3212L143.984 50.2113L173.513 52.8397L173.592 51.9496Z" fill="black" fill-opacity="0.18"/>
<path d="M177.971 56.8789L143.662 53.8251L143.583 54.7152L177.892 57.7691L177.971 56.8789Z" fill="black" fill-opacity="0.18"/>
<path d="M167.317 60.4703L143.261 58.329L143.182 59.2192L167.238 61.3605L167.317 60.4703Z" fill="black" fill-opacity="0.18"/>
<path d="M175.53 65.7413L142.86 62.8333L142.781 63.7234L175.451 66.6314L175.53 65.7413Z" fill="black" fill-opacity="0.18"/>
<path d="M170.975 69.8757L142.459 67.3375L142.38 68.2277L170.895 70.7659L170.975 69.8757Z" fill="black" fill-opacity="0.18"/>
<path d="M176.367 74.8953L142.058 71.8414L141.979 72.7316L176.288 75.7855L176.367 74.8953Z" fill="black" fill-opacity="0.18"/>
<path d="M156.391 77.6571L141.657 76.3456L141.578 77.2358L156.312 78.5472L156.391 77.6571Z" fill="black" fill-opacity="0.18"/>
<g clip-path="url(#clip1_206_2304)">
<path fill-rule="evenodd" clip-rule="evenodd" d="M198.67 89.5225L196.11 88.3546L208.548 58.802L211.094 59.9512L198.67 89.5225Z" fill="#F1D8A3"/>
<path fill-rule="evenodd" clip-rule="evenodd" d="M198.67 89.5225L199.836 90.0464L212.274 60.4938L211.094 59.9512L198.67 89.5225Z" fill="#FEEBC3"/>
<path fill-rule="evenodd" clip-rule="evenodd" d="M194.944 87.8306L196.11 88.3546L208.548 58.802L207.368 58.2594L194.944 87.8306Z" fill="#FEEBC3"/>
<path fill-rule="evenodd" clip-rule="evenodd" d="M209.837 59.3792L212.274 60.4938L211.874 54.5377L207.368 58.2594L209.837 59.3792Z" fill="#FBE8C2"/>
<path fill-rule="evenodd" clip-rule="evenodd" d="M212.059 57.513L211.874 54.5377L209.621 56.3985L212.059 57.513Z" fill="#40494C"/>
</g>
<defs>
<linearGradient id="paint0_linear_206_2304" x1="210.171" y1="20.1105" x2="201.153" y2="35.7303" gradientUnits="userSpaceOnUse">
<stop offset="0.179444" stop-color="#FC574E"/>
<stop offset="0.179544" stop-color="#FFCFC7"/>
</linearGradient>
<clipPath id="clip0_206_2304">
<rect y="0.537842" width="232" height="106.333" rx="12" fill="white"/>
</clipPath>
<clipPath id="clip1_206_2304">
<rect width="21.455" height="33.3744" fill="white" transform="translate(197.722 91.6035) rotate(-126.367)"/>
</clipPath>
</defs>
</svg>
