<svg width="232" height="108" viewBox="0 0 232 108" fill="none" xmlns="http://www.w3.org/2000/svg">
<g clip-path="url(#clip0_206_2102)">
<path d="M3.37118 61.8117C5.6864 78.1009 6.84401 86.2455 11.2888 92.0951C13.5166 95.0269 16.2958 97.4951 19.4701 99.3611C25.8036 103.084 34.0279 103.272 50.4766 103.647L174.742 106.485C194.456 106.935 204.313 107.16 211.645 102.378C213.7 101.038 215.571 99.4365 217.212 97.6139C223.069 91.1077 224.369 81.3344 226.969 61.7877C230.275 36.9397 231.928 24.5158 226.219 15.7448C224.639 13.3168 222.695 11.1462 220.455 9.30895C212.364 2.6721 199.834 2.95054 174.773 3.50745L50.5062 6.26895C29.2196 6.74199 18.5763 6.9785 11.3913 12.2516C7.8206 14.8722 4.91576 18.2952 2.911 22.2446C-1.12304 30.1917 0.375036 40.7317 3.37118 61.8117Z" fill="#FFF4DE"/>
<g clip-path="url(#clip1_206_2102)">
<path fill-rule="evenodd" clip-rule="evenodd" d="M169.815 81.4231L167.34 80.2941L179.363 51.7266L181.825 52.8375L169.815 81.4231Z" fill="#FFB38F"/>
<path fill-rule="evenodd" clip-rule="evenodd" d="M169.815 81.4231L170.942 81.9296L182.965 53.3621L181.825 52.8376L169.815 81.4231Z" fill="#FFD9C7"/>
<path fill-rule="evenodd" clip-rule="evenodd" d="M166.212 79.7876L167.34 80.2941L179.363 51.7266L178.222 51.2021L166.212 79.7876Z" fill="#FFD9C7"/>
<path fill-rule="evenodd" clip-rule="evenodd" d="M180.609 52.2846L182.965 53.362L182.579 47.6044L178.222 51.2021L180.609 52.2846Z" fill="#FFECE3"/>
<path fill-rule="evenodd" clip-rule="evenodd" d="M182.757 50.4806L182.579 47.6045L180.401 49.4033L182.757 50.4806Z" fill="#40494C"/>
</g>
<g clip-path="url(#clip2_206_2102)">
<path d="M195.119 71.2403C195.119 71.2403 185.046 80.4135 182.761 82.666C176.596 88.7419 172.032 94.2856 171.844 95.8352L172.288 96.254C173.89 96.0397 179.538 91.519 185.703 85.4432C187.988 83.1906 197.28 73.28 197.28 73.28C197.466 73.096 197.134 72.4905 196.537 71.9268C195.941 71.3637 195.305 71.0558 195.119 71.2398L195.119 71.2403Z" fill="#A8BFBA"/>
<path d="M172.275 96.2427L171.855 95.8463L171.716 96.048L171.716 96.0485C171.577 96.2056 171.435 96.6667 171.435 96.6667C171.435 96.6667 171.91 96.5198 172.069 96.3811L172.069 96.3816L172.275 96.2427Z" fill="#A8BFBA"/>
<path d="M195.093 71.2298C194.807 71.1159 193.706 71.0577 193.469 71.2055C193.232 71.3538 191.013 72.6418 189.423 74.252C187.832 75.8622 185.337 78.7492 185.312 79.0302C185.287 79.3113 185.685 79.5179 185.8 79.4907C185.914 79.4635 186.689 79.3836 186.785 79.2036C186.881 79.0236 187.044 78.3487 187.608 77.4943C188.171 76.6396 189.118 75.5931 189.828 74.8523C190.721 73.9211 193.091 72.0552 193.328 71.9864C193.574 71.9148 193.821 71.8426 194.019 71.8609C194.217 71.8793 194.505 72.151 194.505 72.151L195.28 71.3874C195.28 71.3874 195.148 71.2516 195.093 71.2299L195.093 71.2298Z" fill="#BECCBD"/>
<path d="M187.534 83.606L184.626 80.86C184.688 80.8 184.751 80.7406 184.813 80.6817L187.715 83.4211C187.655 83.4827 187.595 83.5438 187.534 83.6055L187.534 83.606Z" fill="#BECCBD"/>
<path d="M172.288 96.255C172.941 96.1677 174.265 95.3657 176.021 94.0354C176.223 93.8828 176.43 93.723 176.642 93.5568C176.432 93.2663 176.133 92.9288 175.775 92.5918C175.316 92.1585 174.858 91.8163 174.507 91.6288C174.367 91.803 174.232 91.9742 174.101 92.1411C172.738 93.8873 171.922 95.1992 171.845 95.8362L172.288 96.255Z" fill="#BECCBD"/>
<path d="M196.423 74.1811C196.218 73.8542 195.864 73.4335 195.427 73.0214C194.991 72.6092 194.547 72.2762 194.202 72.0881L194.255 72.0373L195.119 71.2403C195.294 71.0681 195.864 71.3276 196.426 71.8239C196.464 71.857 196.5 71.8912 196.538 71.9268C196.576 71.9623 196.612 71.9966 196.647 72.0324C197.174 72.5641 197.455 73.1083 197.28 73.2805L196.424 74.181L196.423 74.1811Z" fill="#BECCBD"/>
</g>
<g clip-path="url(#clip3_206_2102)">
<path d="M78.192 6.46731L76.055 6.9249L75.3887 3.85662C75.0691 2.38357 73.6227 1.44581 72.1583 1.76123L20.0123 12.9992C18.5478 13.3146 17.6205 14.7646 17.9402 16.2376L33.7785 89.1882C34.0981 90.6612 35.5445 91.599 37.0084 91.2838L89.1545 80.0458C90.6189 79.7304 91.5462 78.2804 91.2266 76.8074L82.1246 34.886L84.2282 34.4354C85.7392 34.1118 86.6977 32.6173 86.3698 31.0974L81.5208 8.63329C81.1928 7.11335 79.702 6.14409 78.1909 6.46767L78.192 6.46731Z" fill="#FFD9C7"/>
<path d="M25.9047 18.0785L35.3575 84.3854C35.4328 84.9139 35.9224 85.2815 36.4509 85.2063L82.995 78.5861C83.5235 78.5109 83.8909 78.0215 83.8156 77.493L74.3628 11.186C74.2874 10.6575 73.7979 10.29 73.2693 10.3651L26.7253 16.9853C26.1967 17.0605 25.8293 17.5499 25.9047 18.0785Z" fill="#FFF9ED"/>
<path d="M68.4134 11.3881L26.7337 16.9918C26.2018 17.0633 25.8301 17.5545 25.9058 18.0859L30.6312 51.2321L39.9282 84.853L43.2833 84.2016L82.5346 73.1016C83.0008 72.9698 83.2972 72.5132 83.2281 72.0338L77.533 32.5464C77.5223 32.472 77.5029 32.3991 77.4753 32.3292L69.4416 11.9913C69.2783 11.5778 68.854 11.3289 68.4134 11.3881Z" fill="#F0E6D1"/>
<path d="M20.6603 20.0854L41.0204 83.8932C41.1826 84.4018 41.7266 84.6827 42.2352 84.5205L87.0275 70.2437C87.5362 70.0816 87.817 69.5379 87.6547 69.0293L67.2946 5.22149C67.1323 4.71288 66.5884 4.432 66.0797 4.59412L21.2874 18.8709C20.7788 19.033 20.498 19.5768 20.6603 20.0854Z" fill="#FFF9ED"/>
<path d="M39.6953 27.1975C39.8576 27.1458 40.0205 27.0945 40.1828 27.0428C40.6247 26.9028 41.067 26.7621 41.5089 26.622C42.1629 26.4148 42.8171 26.2069 43.4711 25.9996C44.2693 25.7464 45.0671 25.4933 45.8654 25.2401C46.744 24.9612 47.6226 24.6824 48.5012 24.4036C49.3839 24.1234 50.2668 23.8437 51.1495 23.5634C51.9723 23.3022 52.7956 23.0409 53.6185 22.7802C54.3144 22.5596 55.0097 22.3386 55.7056 22.118C56.2059 21.9594 56.706 21.8004 57.2068 21.6416C57.4439 21.5663 57.6825 21.4939 57.9186 21.4161C57.9288 21.4126 57.9391 21.4095 57.9494 21.4065C58.4333 21.2531 58.7743 20.7202 58.6079 20.2745C58.441 19.8273 57.9352 19.5651 57.4164 19.7295C57.2542 19.7811 57.0912 19.8325 56.929 19.8841C56.487 20.0242 56.0448 20.1649 55.6028 20.3049C54.9489 20.5122 54.2946 20.7201 53.6407 20.9273C52.8424 21.1806 52.0446 21.4336 51.2464 21.6869C50.3678 21.9657 49.4891 22.2445 48.6105 22.5233C47.7278 22.8036 46.8449 23.0833 45.9623 23.3635C45.1395 23.6247 44.3162 23.8861 43.4932 24.1467C42.7973 24.3674 42.1021 24.5883 41.4062 24.809C40.9059 24.9675 40.4057 25.1266 39.9049 25.2853C39.6679 25.3606 39.4293 25.433 39.1931 25.5109C39.183 25.5144 39.1726 25.5174 39.1623 25.5204C38.6784 25.6738 38.3374 26.2067 38.5038 26.6524C38.6708 27.0996 39.1766 27.3618 39.6953 27.1975Z" fill="black" fill-opacity="0.18"/>
<path d="M40.621 30.1107C40.8596 30.0348 41.0977 29.9592 41.3364 29.8839C41.9795 29.6798 42.6221 29.4759 43.2652 29.2719C44.2186 28.9694 45.1715 28.6672 46.125 28.3647C47.2878 27.9959 48.451 27.6265 49.6139 27.2577C50.8832 26.8549 52.1525 26.4521 53.4218 26.0493C54.7116 25.64 56.0019 25.2305 57.2918 24.8217C58.4863 24.4425 59.681 24.0638 60.8755 23.6847C61.8888 23.3632 62.9016 23.0418 63.9149 22.7203C64.6435 22.489 65.3717 22.2583 66.1003 22.0269C66.4444 21.9179 66.7903 21.8123 67.133 21.6992C67.1477 21.6941 67.1633 21.6899 67.178 21.6848C67.5007 21.5827 67.7281 21.227 67.6173 20.9302C67.5059 20.6319 67.1685 20.4571 66.8229 20.5667C66.5843 20.6425 66.3462 20.7181 66.1075 20.7935C65.4644 20.9975 64.8218 21.2014 64.1787 21.4054C63.2253 21.7079 62.2724 22.0102 61.3189 22.3126C60.1561 22.6814 58.9929 23.0509 57.83 23.4196C56.5607 23.8224 55.2914 24.2252 54.0221 24.628C52.7323 25.0374 51.442 25.4469 50.1521 25.8557C48.9576 26.2348 47.7629 26.6135 46.5684 26.9927C45.5551 27.3142 44.5423 27.6355 43.529 27.957C42.8004 28.1884 42.0722 28.4191 41.3436 28.6504C40.9995 28.7594 40.6536 28.865 40.3109 28.9781C40.2962 28.9832 40.2806 28.9875 40.2659 28.9926C39.9432 29.0947 39.7158 29.4503 39.8267 29.7471C39.938 30.0454 40.2754 30.2202 40.621 30.1107Z" fill="black" fill-opacity="0.18"/>
<path d="M41.6349 33.3027C41.8735 33.2268 42.1115 33.1512 42.3503 33.0759C42.9934 32.8718 43.636 32.668 44.2791 32.4639C45.2325 32.1615 46.1854 31.8592 47.1388 31.5567C48.3017 31.1879 49.4649 30.8185 50.6278 30.4497C51.8971 30.0469 53.1664 29.6441 54.4357 29.2413C55.7254 28.832 57.0157 28.4225 58.3057 28.0137C59.5002 27.6345 60.6949 27.2559 61.8894 26.8767C62.9027 26.5552 63.9155 26.2339 64.9288 25.9124C65.6574 25.681 66.3856 25.4503 67.1141 25.2189C67.4583 25.1099 67.8042 25.0043 68.1469 24.8912C68.1616 24.8861 68.1772 24.8819 68.1919 24.8768C68.5145 24.7747 68.7419 24.419 68.6311 24.1222C68.5197 23.8239 68.1824 23.6492 67.8367 23.7587C67.5982 23.8345 67.3601 23.9102 67.1214 23.9855C66.4782 24.1895 65.8356 24.3934 65.1925 24.5974C64.2391 24.8999 63.2862 25.2022 62.3328 25.5046C61.1699 25.8734 60.0067 26.2429 58.8438 26.6116C57.5745 27.0144 56.3052 27.4172 55.0359 27.82C53.7462 28.2294 52.4559 28.6389 51.1659 29.0477C49.9714 29.4269 48.7767 29.8055 47.5822 30.1847C46.5689 30.5062 45.5561 30.8275 44.5428 31.149C43.8143 31.3804 43.086 31.6111 42.3575 31.8424C42.0133 31.9514 41.6675 32.057 41.3247 32.1701C41.31 32.1752 41.2944 32.1795 41.2797 32.1846C40.9571 32.2867 40.7297 32.6424 40.8405 32.9391C40.9519 33.2374 41.2892 33.4122 41.6349 33.3027Z" fill="black" fill-opacity="0.18"/>
<path d="M34.9862 27.7276C34.8835 27.4086 34.6448 27.1298 34.3303 27.0077C34.0649 26.9047 33.7936 26.8958 33.5222 26.9818C33.2667 27.063 33.0112 27.1441 32.7557 27.2252C32.3062 27.3679 31.8561 27.5107 31.4066 27.6534C30.9555 27.7966 30.5044 27.9398 30.0529 28.0832C29.7928 28.1659 29.5331 28.2479 29.273 28.3306C29.0456 28.4026 28.8316 28.5311 28.6881 28.7255C28.462 29.0322 28.3869 29.414 28.5026 29.7823C28.5712 30.0016 28.6419 30.2202 28.7115 30.4391C28.8512 30.8781 28.9903 31.3172 29.1298 31.7556C29.2776 32.2214 29.4256 32.6878 29.574 33.1534C29.6676 33.4482 29.761 33.7424 29.8547 34.0371C29.9005 34.1808 29.954 34.3236 30.0461 34.4449C30.3362 34.826 30.8081 34.997 31.2708 34.8761C31.4632 34.826 31.6527 34.7563 31.842 34.6958C32.2635 34.5623 32.6848 34.4283 33.1063 34.2948C33.5748 34.1461 34.0438 33.9973 34.5123 33.8486C34.8365 33.7459 35.1599 33.643 35.4841 33.5403C35.5317 33.525 35.5789 33.5103 35.6264 33.495C35.8342 33.427 36.0331 33.2991 36.1666 33.1236C36.3177 32.9248 36.3987 32.7045 36.415 32.4546C36.4253 32.2943 36.3877 32.1381 36.3397 31.9865C36.2475 31.6959 36.1554 31.4058 36.0627 31.1153C35.9157 30.652 35.7685 30.1894 35.6215 29.7261C35.4811 29.2835 35.3403 28.8409 35.1999 28.3983C35.1286 28.1747 35.0582 27.9503 34.9865 27.7269L34.9862 27.7276ZM34.1402 27.6988C34.1299 27.6921 34.1209 27.686 34.1215 27.6859C34.1235 27.6852 34.1322 27.6924 34.1402 27.6988ZM29.2217 29.1892C29.2151 29.1995 29.2091 29.2085 29.2089 29.208C29.2082 29.2059 29.2154 29.1971 29.2217 29.1892ZM30.7241 34.1384C30.7344 34.1451 30.7433 34.1512 30.7428 34.1514C30.7408 34.1521 30.732 34.1448 30.7241 34.1384ZM35.6426 32.648C35.6492 32.6377 35.6552 32.6287 35.6554 32.6293C35.6561 32.6313 35.6489 32.6401 35.6426 32.648ZM34.4399 28.3357C34.5508 28.685 34.6618 29.0349 34.7732 29.3841C34.9088 29.8113 35.0444 30.2385 35.1804 30.6655C35.2972 31.0334 35.4141 31.4019 35.5313 31.7697C35.5843 31.9372 35.6388 32.1042 35.6907 32.2721C35.6968 32.2912 35.7018 32.3106 35.7068 32.33C35.7111 32.3686 35.7125 32.407 35.7117 32.4456C35.7068 32.4776 35.7001 32.5091 35.6917 32.5406C35.6906 32.5456 35.6888 32.5502 35.6872 32.5553C35.6799 32.5721 35.6727 32.5889 35.6641 32.6051C35.6548 32.6226 35.6452 32.6391 35.6352 32.6563C35.634 32.6578 35.6332 32.6587 35.6327 32.6589C35.611 32.6864 35.5874 32.7118 35.5627 32.7357C35.5321 32.7589 35.4996 32.7799 35.4657 32.7985C35.4478 32.8059 35.43 32.812 35.4118 32.8184C35.2652 32.8646 35.1189 32.9113 34.9719 32.9577L33.9201 33.2914C33.5007 33.4242 33.0814 33.5575 32.662 33.6903C32.3032 33.8044 31.9446 33.9178 31.5858 34.0319C31.423 34.0838 31.2606 34.1366 31.0973 34.1869C31.0783 34.1929 31.059 34.1979 31.0397 34.2029C31.0014 34.207 30.9632 34.2083 30.9248 34.2073C30.8929 34.2023 30.8615 34.1954 30.8302 34.1869C30.8252 34.1857 30.8206 34.1839 30.8155 34.1822C30.7987 34.1749 30.782 34.1675 30.7659 34.1588C30.7484 34.1494 30.732 34.1397 30.7148 34.1296C30.7133 34.1284 30.7124 34.1276 30.7122 34.1271C30.6847 34.1051 30.6594 34.0813 30.6355 34.0564C30.6114 34.0247 30.59 33.991 30.571 33.9558C30.5102 33.8099 30.4723 33.6497 30.4247 33.5009C30.3138 33.1515 30.2028 32.8016 30.0914 32.4524C29.9558 32.0252 29.8203 31.598 29.6842 31.171L29.3333 30.0669C29.2803 29.8993 29.2258 29.7323 29.1739 29.5644C29.1678 29.5454 29.1628 29.526 29.1578 29.5065C29.1535 29.468 29.1521 29.4296 29.153 29.3909C29.1578 29.359 29.1645 29.3275 29.1729 29.296C29.174 29.291 29.1758 29.2864 29.1774 29.2812C29.1847 29.2644 29.1921 29.2481 29.2005 29.2315C29.2098 29.2139 29.2194 29.1974 29.2294 29.1803C29.2306 29.1787 29.2314 29.1779 29.2319 29.1777C29.2536 29.1501 29.2772 29.1248 29.3019 29.1008C29.3333 29.0767 29.3669 29.0554 29.4018 29.0364C29.5467 28.9759 29.706 28.9384 29.8538 28.8912C30.201 28.7811 30.5487 28.6709 30.8957 28.5603C31.3202 28.4258 31.7448 28.2912 32.1691 28.1561C32.5347 28.0403 32.9009 27.9242 33.2663 27.8078C33.4328 27.7553 33.5988 27.7012 33.7656 27.6496C33.7846 27.6436 33.8039 27.6387 33.8232 27.6337C33.8615 27.6295 33.8997 27.6283 33.9382 27.6293C33.97 27.6343 34.0014 27.6411 34.0328 27.6497C34.0377 27.6508 34.0423 27.6527 34.0474 27.6543C34.0642 27.6617 34.0809 27.669 34.097 27.6777C34.1145 27.6871 34.1309 27.6969 34.1481 27.707C34.1496 27.7081 34.1505 27.709 34.1507 27.7095C34.1782 27.7314 34.2035 27.7552 34.2274 27.7801C34.2515 27.8118 34.2729 27.8456 34.2919 27.8808C34.3527 28.0267 34.3906 28.1869 34.4382 28.3357L34.4399 28.3357Z" fill="black" fill-opacity="0.18"/>
<path d="M33.9689 29.202C34.1046 29.2539 34.1668 29.412 34.1023 29.5424L32.9478 31.8914L32.5334 32.734L31.6756 32.4319L30.7304 32.0989C30.5938 32.0507 30.5276 31.8958 30.5869 31.7636L30.8395 31.2002C30.8954 31.0762 31.0406 31.0212 31.1642 31.0779L32.078 31.6398L32.8535 29.0452C32.8991 28.9144 33.043 28.8474 33.1721 28.897L33.9691 29.2025L33.9689 29.202Z" fill="#BECCBD"/>
<path d="M44.059 40.9349C44.2213 40.8832 44.3842 40.8319 44.5465 40.7802C44.9884 40.6402 45.4307 40.4995 45.8726 40.3594C46.5266 40.1522 47.1808 39.9443 47.8348 39.7371C48.6331 39.4838 49.4308 39.2307 50.2291 38.9775C51.1077 38.6987 51.9863 38.4198 52.865 38.141C53.7476 37.8608 54.6305 37.5811 55.5132 37.3009C56.336 37.0397 57.1593 36.7783 57.9823 36.5176C58.6782 36.297 59.3734 36.076 60.0693 35.8554C60.5696 35.6969 61.0697 35.5378 61.5705 35.3791C61.8076 35.3038 62.0462 35.2314 62.2823 35.1535C62.2925 35.15 62.3028 35.147 62.3131 35.144C62.797 34.9905 63.138 34.4576 62.9716 34.012C62.8047 33.5648 62.2989 33.3025 61.7801 33.4669C61.6179 33.5186 61.4549 33.5699 61.2927 33.6216C60.8507 33.7616 60.4085 33.9023 59.9665 34.0424C59.3126 34.2496 58.6583 34.4575 58.0044 34.6647C57.2061 34.918 56.4084 35.1711 55.6101 35.4243C54.7315 35.7031 53.8528 35.9819 52.9742 36.2608C52.0915 36.541 51.2087 36.8207 50.326 37.1009C49.5032 37.3621 48.6799 37.6235 47.8569 37.8842C47.161 38.1048 46.4658 38.3258 45.7699 38.5464C45.2696 38.7049 44.7694 38.864 44.2686 39.0227C44.0316 39.098 43.793 39.1704 43.5568 39.2483C43.5467 39.2518 43.5363 39.2548 43.526 39.2578C43.0421 39.4113 42.7011 39.9442 42.8675 40.3898C43.0345 40.837 43.5403 41.0993 44.059 40.9349Z" fill="black" fill-opacity="0.18"/>
<path d="M47.0124 50.2321C47.1936 50.1745 47.375 50.1173 47.5567 50.0595C48.0502 49.9027 48.544 49.7464 49.0375 49.5896C49.7676 49.3577 50.4973 49.1265 51.2274 48.8946C52.1179 48.6123 53.0087 48.3292 53.8991 48.0469C54.8745 47.7374 55.85 47.4279 56.8259 47.1182C57.8106 46.806 58.7951 46.4933 59.7798 46.1812C60.6979 45.8898 61.6159 45.5985 62.534 45.3071C63.3098 45.0611 64.0855 44.8151 64.8611 44.5686C65.4188 44.3918 65.9763 44.2146 66.5339 44.0379C66.7972 43.9546 67.0617 43.875 67.3236 43.7876C67.3352 43.7836 67.3466 43.7802 67.3584 43.7767C67.6811 43.6746 67.9085 43.3189 67.7976 43.0221C67.6863 42.7238 67.3489 42.5491 67.0032 42.6586C66.822 42.7162 66.6407 42.7734 66.4589 42.8312C65.9654 42.988 65.4717 43.1443 64.9781 43.3011C64.2481 43.533 63.5183 43.7642 62.7883 43.9961C61.8978 44.2784 61.007 44.5615 60.1165 44.8438C59.1411 45.1533 58.1657 45.4629 57.1898 45.7725C56.2051 46.0847 55.2205 46.3974 54.2358 46.7095C53.3178 47.0009 52.3997 47.2922 51.4817 47.5836C50.7059 47.8296 49.9301 48.0756 49.1546 48.3222C48.5969 48.4989 48.0394 48.6761 47.4817 48.8528C47.2185 48.9361 46.9539 49.0157 46.6921 49.1031C46.6804 49.1071 46.6691 49.1105 46.6572 49.114C46.3346 49.2161 46.1072 49.5718 46.218 49.8686C46.3294 50.1669 46.6667 50.3416 47.0124 50.2321Z" fill="black" fill-opacity="0.18"/>
<path d="M45.9983 47.0396C46.2242 46.9682 46.4499 46.8962 46.6758 46.8248C47.2845 46.6315 47.8933 46.4382 48.5022 46.2455C49.4086 45.9582 50.3148 45.6704 51.2212 45.3831C52.3189 45.0346 53.4173 44.6864 54.5151 44.338C55.7219 43.9551 56.9283 43.5724 58.1352 43.1895C59.3532 42.8028 60.5714 42.4165 61.7896 42.0303L65.1972 40.9492C66.1572 40.6445 67.1174 40.3402 68.0769 40.0357C68.767 39.8165 69.4579 39.5976 70.148 39.3784C70.4752 39.2747 70.8037 39.1746 71.129 39.0669C71.1427 39.0622 71.1571 39.0578 71.171 39.0535C71.4936 38.9514 71.721 38.5958 71.6102 38.299C71.4988 38.0007 71.1614 37.8259 70.8158 37.9354C70.5899 38.0069 70.3642 38.0788 70.1383 38.1502C69.5296 38.3435 68.9208 38.5368 68.3119 38.7296C67.4055 39.0169 66.4993 39.3047 65.5929 39.592C64.4952 39.9405 63.3967 40.2886 62.299 40.6371C61.0921 41.02 59.8858 41.4027 58.6789 41.7855C57.4609 42.1723 56.2427 42.5585 55.0245 42.9448C53.8888 43.3052 52.7525 43.6654 51.6169 44.0258C50.6569 44.3306 49.6967 44.6348 48.7372 44.9394C48.047 45.1586 47.3562 45.3775 46.6661 45.5967C46.3389 45.7004 46.0104 45.8005 45.6851 45.9081C45.6714 45.9129 45.657 45.9173 45.6431 45.9215C45.3205 46.0236 45.0931 46.3793 45.2039 46.6761C45.3153 46.9744 45.6526 47.1491 45.9983 47.0396Z" fill="black" fill-opacity="0.18"/>
<path d="M44.9846 43.8476C45.2105 43.7762 45.4362 43.7042 45.662 43.6328C46.2708 43.4395 46.8796 43.2462 47.4885 43.0534C48.3949 42.7662 49.3011 42.4783 50.2075 42.191C51.3052 41.8426 52.4036 41.4944 53.5013 41.1459C54.7082 40.7631 55.9146 40.3804 57.1214 39.9975C58.3395 39.6107 59.5577 39.2245 60.7759 38.8383C61.9115 38.4778 63.0478 38.1177 64.1835 37.7572C65.1435 37.4525 66.1037 37.1482 67.0632 36.8437C67.7533 36.6244 68.4441 36.4056 69.1343 36.1864C69.4615 36.0827 69.79 35.9825 70.1153 35.8749C70.129 35.8702 70.1433 35.8658 70.1572 35.8615C70.4799 35.7594 70.7073 35.4037 70.5964 35.107C70.4851 34.8087 70.1477 34.6339 69.802 34.7434C69.5762 34.8149 69.3505 34.8868 69.1246 34.9582C68.5158 35.1515 67.9071 35.3448 67.2981 35.5376C66.3917 35.8249 65.4855 36.1127 64.5792 36.4C63.4809 36.7486 62.383 37.0966 61.2853 37.4451C60.0784 37.828 58.872 38.2107 57.6652 38.5935C56.4472 38.9803 55.2289 39.3665 54.0107 39.7527C52.8751 40.1132 51.7388 40.4734 50.6032 40.8338C49.6431 41.1386 48.683 41.4428 47.7235 41.7474C47.0333 41.9666 46.3425 42.1854 45.6523 42.4047C45.3251 42.5084 44.9967 42.6085 44.6714 42.7161C44.6577 42.7208 44.6433 42.7253 44.6294 42.7295C44.3067 42.8316 44.0794 43.1873 44.1902 43.484C44.3015 43.7824 44.6389 43.9571 44.9846 43.8476Z" fill="black" fill-opacity="0.18"/>
<path d="M39.3498 41.4644C39.2472 41.1454 39.0085 40.8666 38.6939 40.7446C38.4286 40.6415 38.1572 40.6326 37.8858 40.7186C37.6304 40.7998 37.3749 40.8809 37.1194 40.962C36.6698 41.1047 36.2198 41.2475 35.7702 41.3902C35.3192 41.5334 34.8681 41.6766 34.4165 41.82C34.1565 41.9027 33.8967 41.9847 33.6367 42.0674C33.4093 42.1394 33.1952 42.2679 33.0518 42.4624C32.8256 42.769 32.7505 43.1508 32.8662 43.5191C32.9349 43.7384 33.0055 43.957 33.0752 44.176C33.2148 44.6149 33.3539 45.054 33.4934 45.4924C33.6412 45.9582 33.7893 46.4246 33.9376 46.8903C34.0312 47.185 34.1247 47.4792 34.2183 47.7739C34.2642 47.9176 34.3176 48.0604 34.4097 48.1818C34.6998 48.5628 35.1717 48.7339 35.6345 48.6129C35.8268 48.5628 36.0164 48.4931 36.2057 48.4326C36.6272 48.2991 37.0484 48.1651 37.4699 48.0316C37.9384 47.8829 38.4074 47.7341 38.8759 47.5854C39.2001 47.4828 39.5236 47.3798 39.8478 47.2771C39.8953 47.2618 39.9425 47.2472 39.9901 47.2318C40.1978 47.1638 40.3967 47.0359 40.5303 46.8604C40.6813 46.6616 40.7624 46.4413 40.7786 46.1914C40.789 46.0311 40.7513 45.8749 40.7033 45.7233C40.6111 45.4327 40.5191 45.1426 40.4263 44.8521C40.2794 44.3888 40.1321 43.9262 39.9852 43.4629L39.5635 42.1351C39.4923 41.9115 39.4219 41.6871 39.3501 41.4637L39.3498 41.4644ZM38.5038 41.4356C38.4935 41.4289 38.4846 41.4229 38.4851 41.4227C38.4871 41.422 38.4959 41.4292 38.5038 41.4356ZM33.5854 42.926C33.5787 42.9364 33.5727 42.9453 33.5725 42.9448C33.5718 42.9427 33.579 42.934 33.5854 42.926ZM35.0878 47.8752C35.0981 47.8819 35.107 47.888 35.1065 47.8882C35.1044 47.8889 35.0957 47.8816 35.0878 47.8752ZM40.0062 46.3848C40.0129 46.3745 40.0189 46.3656 40.019 46.3661C40.0198 46.3681 40.0126 46.3769 40.0062 46.3848ZM38.8035 42.0725C38.9144 42.4219 39.0255 42.7717 39.1369 43.1209C39.2724 43.5481 39.408 43.9753 39.5441 44.4023C39.6608 44.7703 39.7777 45.1387 39.895 45.5065C39.9479 45.674 40.0024 45.841 40.0544 46.0089C40.0604 46.028 40.0654 46.0474 40.0705 46.0668C40.0747 46.1054 40.0761 46.1438 40.0753 46.1824C40.0705 46.2144 40.0638 46.2459 40.0554 46.2774C40.0542 46.2824 40.0524 46.287 40.0508 46.2921C40.0436 46.309 40.0363 46.3258 40.0277 46.3419C40.0184 46.3594 40.0088 46.3759 39.9989 46.3931C39.9977 46.3946 39.9968 46.3955 39.9963 46.3957C39.9746 46.4232 39.951 46.4486 39.9264 46.4726C39.8958 46.4957 39.8633 46.5167 39.8294 46.5354C39.8114 46.5427 39.7937 46.5489 39.7754 46.5552C39.6289 46.6014 39.4825 46.6481 39.3355 46.6945C38.9848 46.8058 38.6345 46.9169 38.2838 47.0282C37.8644 47.161 37.4451 47.2943 37.0257 47.4271C36.6668 47.5412 36.3083 47.6546 35.9494 47.7687C35.7866 47.8206 35.6242 47.8734 35.4609 47.9238C35.442 47.9297 35.4227 47.9347 35.4034 47.9397C35.365 47.9438 35.3268 47.9451 35.2884 47.9441C35.2566 47.9391 35.2252 47.9323 35.1938 47.9237C35.1889 47.9225 35.1842 47.9207 35.1791 47.9191C35.1624 47.9117 35.1456 47.9044 35.1295 47.8956C35.1121 47.8862 35.0954 47.876 35.0785 47.8664C35.0769 47.8652 35.0761 47.8644 35.0759 47.8639C35.0484 47.842 35.0231 47.8181 34.9991 47.7933C34.9751 47.7616 34.9537 47.7278 34.9347 47.6926C34.8739 47.5467 34.836 47.3865 34.7884 47.2377C34.6775 46.8883 34.5664 46.5384 34.455 46.1892C34.3195 45.762 34.1839 45.3349 34.0478 44.9078L33.6967 43.8032C33.6438 43.6357 33.5893 43.4686 33.5374 43.3008C33.5313 43.2817 33.5263 43.2623 33.5213 43.2428C33.517 43.2043 33.5156 43.1659 33.5164 43.1273C33.5213 43.0953 33.528 43.0638 33.5364 43.0323C33.5375 43.0273 33.5393 43.0227 33.5409 43.0175C33.5482 43.0007 33.5554 42.9839 33.564 42.9678C33.5733 42.9502 33.5829 42.9338 33.5929 42.9166C33.594 42.915 33.5949 42.9142 33.5954 42.914C33.6171 42.8864 33.6407 42.8611 33.6654 42.8371C33.6968 42.8131 33.7303 42.7917 33.7652 42.7727C33.9102 42.7122 34.0694 42.6747 34.2173 42.6275C34.5645 42.5174 34.9122 42.4072 35.2592 42.2966C35.6837 42.1621 36.1082 42.0275 36.5326 41.8924L37.6298 41.5441C37.7963 41.4916 37.9622 41.4375 38.1291 41.3859C38.148 41.3799 38.1673 41.375 38.1866 41.37C38.225 41.3658 38.2632 41.3646 38.3016 41.3656C38.3335 41.3706 38.3648 41.3774 38.3962 41.386C38.4012 41.3871 38.4058 41.389 38.4109 41.3906C38.4277 41.398 38.4444 41.4053 38.4605 41.414C38.478 41.4234 38.4946 41.4337 38.5116 41.4433C38.5131 41.4444 38.514 41.4453 38.5141 41.4458C38.5416 41.4677 38.5669 41.4916 38.5909 41.5164C38.615 41.5481 38.6363 41.5819 38.6553 41.6171C38.7162 41.763 38.7541 41.9232 38.8017 42.072L38.8035 42.0725Z" fill="black" fill-opacity="0.18"/>
<path d="M38.3318 42.9367C38.4675 42.9886 38.5296 43.1466 38.4652 43.2771L37.3106 45.6261L36.8963 46.4687L36.038 46.1667L35.0928 45.8337C34.9562 45.7856 34.8899 45.6306 34.9493 45.4985L35.2018 44.9351C35.2577 44.811 35.403 44.7561 35.5266 44.8128L36.4403 45.3746L37.2159 42.7801C37.2615 42.6493 37.4053 42.5823 37.5345 42.6319L38.3315 42.9373L38.3318 42.9367Z" fill="#BECCBD"/>
<path d="M49.4368 57.864C49.599 57.8123 49.762 57.761 49.9242 57.7093C50.3662 57.5693 50.8084 57.4286 51.2504 57.2885C51.9043 57.0813 52.5586 56.8734 53.2125 56.6661C54.0108 56.4129 54.8086 56.1598 55.6068 55.9066C56.4854 55.6277 57.3641 55.3489 58.2427 55.0701C59.1254 54.7899 60.0082 54.5102 60.8909 54.2299C61.7137 53.9687 62.537 53.7074 63.36 53.4467C64.0559 53.2261 64.7511 53.0051 65.447 52.7845C65.9473 52.6259 66.4475 52.4669 66.9483 52.3081C67.1853 52.2328 67.4239 52.1604 67.6601 52.0826C67.6702 52.0791 67.6806 52.076 67.6909 52.073C68.1748 51.9196 68.5158 51.3867 68.3494 50.941C68.1824 50.4938 67.6766 50.2316 67.1579 50.396C66.9956 50.4476 66.8327 50.499 66.6704 50.5506C66.2285 50.6907 65.7862 50.8314 65.3443 50.9714C64.6903 51.1787 64.0361 51.3866 63.3821 51.5938C62.5839 51.8471 61.7861 52.1001 60.9878 52.3534C60.1092 52.6322 59.2306 52.911 58.352 53.1898C57.4693 53.4701 56.5864 53.7498 55.7037 54.03C54.8809 54.2912 54.0576 54.5526 53.2346 54.8132C52.5387 55.0339 51.8435 55.2548 51.1476 55.4755C50.6473 55.634 50.1472 55.7931 49.6464 55.9518C49.4093 56.0271 49.1707 56.0995 48.9346 56.1774C48.9244 56.1809 48.9141 56.1839 48.9038 56.1869C48.4199 56.3403 48.0789 56.8732 48.2453 57.3189C48.4122 57.7661 48.918 58.0284 49.4368 57.864Z" fill="black" fill-opacity="0.18"/>
<path d="M50.3617 60.7768C50.6003 60.701 50.8383 60.6253 51.0771 60.55C51.7202 60.346 52.3628 60.1421 53.0059 59.938C53.9593 59.6356 54.9122 59.3333 55.8656 59.0308C57.0285 58.6621 58.1917 58.2926 59.3546 57.9238C60.6239 57.521 61.8932 57.1182 63.1625 56.7154C64.4523 56.3061 65.7425 55.8966 67.0325 55.4878C68.227 55.1086 69.4217 54.73 70.6162 54.3508C71.6295 54.0293 72.6423 53.708 73.6556 53.3865C74.3842 53.1551 75.1124 52.9244 75.8409 52.693C76.1851 52.584 76.531 52.4784 76.8737 52.3654C76.8884 52.3603 76.904 52.356 76.9187 52.3509C77.2414 52.2488 77.4687 51.8931 77.3579 51.5964C77.2466 51.2981 76.9092 51.1233 76.5635 51.2328C76.325 51.3086 76.0869 51.3843 75.8482 51.4596C75.2051 51.6637 74.5625 51.8675 73.9193 52.0716C72.9659 52.374 72.013 52.6763 71.0596 52.9788C69.8967 53.3475 68.7335 53.717 67.5706 54.0858C66.3013 54.4886 65.032 54.8914 63.7627 55.2942C62.473 55.7035 61.1827 56.113 59.8928 56.5218C58.6982 56.901 57.5035 57.2796 56.309 57.6588C55.2957 57.9803 54.2829 58.3016 53.2696 58.6231C52.5411 58.8545 51.8128 59.0852 51.0843 59.3166C50.7402 59.4256 50.3943 59.5312 50.0515 59.6442C50.0368 59.6493 50.0212 59.6536 50.0065 59.6587C49.6839 59.7608 49.4565 60.1165 49.5673 60.4132C49.6787 60.7116 50.016 60.8863 50.3617 60.7768Z" fill="black" fill-opacity="0.18"/>
<path d="M51.3762 63.9692C51.6148 63.8934 51.8529 63.8177 52.0916 63.7424C52.7347 63.5383 53.3773 63.3345 54.0204 63.1304C54.9738 62.828 55.9267 62.5257 56.8801 62.2232C58.043 61.8545 59.2062 61.485 60.3691 61.1162C61.6384 60.7134 62.9077 60.3106 64.177 59.9078C65.4668 59.4985 66.7571 59.089 68.047 58.6802C69.2415 58.301 70.4362 57.9224 71.6307 57.5432C72.644 57.2217 73.6568 56.9004 74.6701 56.5789C75.3987 56.3475 76.1269 56.1168 76.8555 55.8854C77.1996 55.7764 77.5455 55.6708 77.8882 55.5577C77.9029 55.5526 77.9185 55.5484 77.9332 55.5433C78.2559 55.4412 78.4833 55.0855 78.3724 54.7887C78.2611 54.4904 77.9237 54.3157 77.578 54.4252C77.3395 54.501 77.1014 54.5767 76.8627 54.652C76.2196 54.856 75.577 55.0599 74.9339 55.264C73.9805 55.5664 73.0276 55.8687 72.0741 56.1711C70.9113 56.5399 69.748 56.9094 68.5852 57.2781C67.3159 57.681 66.0466 58.0838 64.7773 58.4866C63.4875 58.8959 62.1972 59.3054 60.9073 59.7142C59.7128 60.0934 58.5181 60.472 57.3236 60.8512C56.3103 61.1727 55.2975 61.494 54.2841 61.8155C53.5556 62.0469 52.8274 62.2776 52.0988 62.5089C51.7547 62.6179 51.4088 62.7235 51.0661 62.8366C51.0513 62.8417 51.0358 62.846 51.0211 62.8511C50.6984 62.9532 50.471 63.3089 50.5818 63.6056C50.6932 63.9039 51.0306 64.0787 51.3762 63.9692Z" fill="black" fill-opacity="0.18"/>
<path d="M44.7276 58.3936C44.625 58.0746 44.3863 57.7958 44.0717 57.6738C43.8064 57.5707 43.535 57.5618 43.2637 57.6478C43.0082 57.729 42.7527 57.8101 42.4972 57.8912C42.0477 58.0339 41.5976 58.1767 41.148 58.3194C40.697 58.4626 40.2459 58.6058 39.7943 58.7492C39.5343 58.8319 39.2746 58.9139 39.0145 58.9966C38.7871 59.0686 38.5731 59.1971 38.4296 59.3916C38.2034 59.6982 38.1283 60.08 38.244 60.4483C38.3127 60.6676 38.3833 60.8862 38.453 61.1051C38.5926 61.5441 38.7318 61.9832 38.8712 62.4216C39.0191 62.8874 39.1671 63.3538 39.3154 63.8195C39.409 64.1142 39.5025 64.4084 39.5961 64.7031C39.642 64.8468 39.6954 64.9896 39.7875 65.111C40.0776 65.492 40.5495 65.6631 41.0123 65.5421C41.2046 65.492 41.3942 65.4223 41.5835 65.3618C42.005 65.2283 42.4263 65.0943 42.8477 64.9608C43.3162 64.8121 43.7852 64.6633 44.2537 64.5146C44.5779 64.412 44.9014 64.309 45.2256 64.2063L45.3679 64.161C45.5756 64.093 45.7745 63.9651 45.9081 63.7896C46.0591 63.5908 46.1402 63.3705 46.1564 63.1206C46.1668 62.9603 46.1291 62.8041 46.0811 62.6525C45.9889 62.3619 45.8969 62.0718 45.8041 61.7813C45.6572 61.318 45.5099 60.8554 45.363 60.3921C45.2226 59.9495 45.0817 59.507 44.9413 59.0643C44.8701 58.8407 44.7997 58.6163 44.7279 58.3929L44.7276 58.3936ZM43.8816 58.3648C43.8713 58.3581 43.8624 58.3521 43.8629 58.3519C43.8649 58.3512 43.8737 58.3584 43.8816 58.3648ZM38.9632 59.8552C38.9565 59.8656 38.9505 59.8745 38.9503 59.874C38.9496 59.8719 38.9568 59.8632 38.9632 59.8552ZM40.4656 64.8044C40.4759 64.8111 40.4848 64.8172 40.4843 64.8174C40.4823 64.8181 40.4735 64.8108 40.4656 64.8044ZM45.384 63.314C45.3907 63.3037 45.3967 63.2948 45.3968 63.2953C45.3976 63.2973 45.3904 63.3061 45.384 63.314ZM44.1814 59.0017C44.2922 59.3511 44.4033 59.7009 44.5147 60.0501C44.6502 60.4773 44.7858 60.9045 44.9219 61.3315C45.0388 61.7 45.1555 62.0679 45.2728 62.4357C45.3258 62.6032 45.3802 62.7702 45.4322 62.9381C45.4382 62.9572 45.4433 62.9766 45.4483 62.996C45.4526 63.0346 45.4539 63.073 45.4531 63.1116C45.4483 63.1436 45.4416 63.1751 45.4332 63.2066C45.4321 63.2116 45.4303 63.2162 45.4286 63.2213C45.4214 63.2382 45.4141 63.255 45.4055 63.2711C45.3962 63.2886 45.3866 63.3051 45.3767 63.3223C45.3755 63.3238 45.3747 63.3247 45.3741 63.3249C45.3524 63.3524 45.3288 63.3778 45.3042 63.4018C45.2736 63.425 45.2411 63.4459 45.2072 63.4646C45.1892 63.4719 45.1715 63.4781 45.1532 63.4844C45.0067 63.5306 44.8604 63.5773 44.7133 63.6237C44.3626 63.735 44.0123 63.8461 43.6616 63.9574C43.2422 64.0902 42.8229 64.2235 42.4035 64.3563C42.0446 64.4704 41.6861 64.5838 41.3272 64.6979C41.1645 64.7498 41.002 64.8026 40.8388 64.8529C40.8198 64.8589 40.8005 64.8639 40.7812 64.8689C40.7428 64.873 40.7046 64.8743 40.6662 64.8733C40.6344 64.8683 40.603 64.8615 40.5716 64.8529C40.5667 64.8517 40.5621 64.8499 40.5569 64.8482C40.5402 64.8409 40.5234 64.8336 40.5073 64.8248C40.4899 64.8154 40.4732 64.8052 40.4563 64.7956C40.4547 64.7944 40.4539 64.7936 40.4537 64.7931C40.4262 64.7712 40.4009 64.7473 40.3769 64.7225C40.3529 64.6908 40.3315 64.657 40.3125 64.6218C40.2517 64.4759 40.2138 64.3157 40.1662 64.1669C40.0553 63.8175 39.9442 63.4676 39.8329 63.1184C39.6973 62.6912 39.5617 62.2641 39.4256 61.837C39.3087 61.4686 39.192 61.1007 39.0745 60.7324C39.0216 60.5649 38.9671 60.3978 38.9152 60.23C38.9091 60.2109 38.9041 60.1915 38.8991 60.172C38.8948 60.1335 38.8934 60.0951 38.8942 60.0565C38.8991 60.0245 38.9058 59.993 38.9142 59.9615C38.9153 59.9565 38.9171 59.9519 38.9187 59.9467C38.926 59.9299 38.9332 59.9131 38.9418 59.897C38.9511 59.8794 38.9607 59.863 38.9707 59.8458C38.9718 59.8442 38.9727 59.8434 38.9732 59.8432C38.9949 59.8156 39.0185 59.7903 39.0432 59.7663C39.0746 59.7423 39.1081 59.7209 39.143 59.7019C39.288 59.6414 39.4472 59.6039 39.5951 59.5567C39.9423 59.4466 40.29 59.3364 40.637 59.2258C41.0615 59.0913 41.486 58.9567 41.9104 58.8216C42.276 58.7058 42.6421 58.5897 43.0076 58.4733C43.1741 58.4208 43.34 58.3667 43.5069 58.3151C43.5258 58.3091 43.5451 58.3042 43.5644 58.2992C43.6028 58.295 43.641 58.2938 43.6794 58.2948C43.7113 58.2998 43.7426 58.3066 43.774 58.3152C43.779 58.3163 43.7836 58.3182 43.7887 58.3198C43.8055 58.3272 43.8222 58.3345 43.8383 58.3432C43.8558 58.3526 43.8724 58.3629 43.8894 58.3725C43.8909 58.3736 43.8918 58.3745 43.8919 58.375C43.9194 58.3969 43.9447 58.4208 43.9687 58.4456C43.9928 58.4773 44.0141 58.5111 44.0332 58.5463C44.094 58.6922 44.1319 58.8524 44.1795 59.0012L44.1814 59.0017Z" fill="black" fill-opacity="0.18"/>
<path d="M43.7098 59.8681C43.8454 59.92 43.9076 60.0781 43.8431 60.2085L42.6886 62.5575L42.2742 63.4001L41.4165 63.098L40.4713 62.765C40.3346 62.7168 40.2684 62.5619 40.3278 62.4298L40.5803 61.8663C40.6362 61.7423 40.7814 61.6874 40.9051 61.744L41.8188 62.3059L42.5943 59.7114C42.64 59.5806 42.7838 59.5136 42.913 59.5632L43.71 59.8686L43.7098 59.8681Z" fill="#BECCBD"/>
</g>
<path d="M116.416 21.9408L104.692 87.884C104.598 88.4096 104.948 88.9116 105.474 89.0052L151.758 97.2498C152.284 97.3434 152.785 96.9932 152.879 96.4676L164.604 30.5245C164.697 29.9989 164.347 29.4968 163.821 29.4032L117.537 21.1586C117.012 21.065 116.51 21.4152 116.416 21.9408Z" fill="#FFF9ED"/>
<path d="M129.943 37.1048C130.111 37.1347 130.279 37.1652 130.446 37.1951C130.903 37.2772 131.359 37.3588 131.816 37.4409C132.491 37.5623 133.167 37.6833 133.842 37.8047C134.666 37.9527 135.49 38.1006 136.314 38.2486C137.221 38.4114 138.129 38.5742 139.036 38.737C139.948 38.9004 140.859 39.0644 141.771 39.2279C142.62 39.3803 143.471 39.5327 144.32 39.6857C145.039 39.8148 145.757 39.9433 146.475 40.0724C146.992 40.1653 147.509 40.2577 148.026 40.3507C148.27 40.3945 148.515 40.4417 148.761 40.4828C148.771 40.4845 148.782 40.4866 148.792 40.4888C149.292 40.5785 149.842 40.266 149.902 39.7941C149.963 39.3207 149.638 38.8529 149.102 38.7566C148.935 38.7266 148.767 38.6961 148.599 38.6662C148.143 38.5841 147.686 38.5025 147.229 38.4204C146.554 38.299 145.879 38.178 145.203 38.0566C144.379 37.9086 143.555 37.7607 142.731 37.6128C141.824 37.4499 140.916 37.2871 140.009 37.1243C139.098 36.9609 138.186 36.7969 137.274 36.6334C136.425 36.481 135.575 36.3286 134.725 36.1756C134.006 36.0465 133.288 35.918 132.57 35.7889C132.053 35.696 131.537 35.6036 131.02 35.5106C130.775 35.4668 130.53 35.4196 130.285 35.3785C130.274 35.3768 130.263 35.3747 130.253 35.3725C129.753 35.2828 129.203 35.5953 129.143 36.0672C129.082 36.5407 129.407 37.0084 129.943 37.1048Z" fill="black" fill-opacity="0.18"/>
<path d="M129.404 40.1136C129.651 40.1577 129.897 40.2017 130.143 40.2464C130.807 40.3656 131.47 40.4847 132.135 40.6039C133.119 40.7806 134.103 40.9573 135.088 41.1341C136.288 41.3498 137.49 41.565 138.69 41.7807C140.001 42.0159 141.312 42.2511 142.623 42.4863C143.954 42.7253 145.287 42.9643 146.619 43.2038C147.852 43.425 149.086 43.6468 150.319 43.8681C151.366 44.0559 152.412 44.2436 153.458 44.4314C154.21 44.5663 154.962 44.7016 155.715 44.8364C156.07 44.9004 156.425 44.9682 156.781 45.0278C156.796 45.0302 156.812 45.0337 156.828 45.036C157.161 45.0961 157.528 44.8874 157.568 44.5731C157.608 44.2573 157.391 43.9454 157.034 43.8812C156.788 43.8372 156.542 43.7931 156.296 43.7485C155.632 43.6293 154.968 43.5102 154.304 43.391C153.32 43.2142 152.336 43.0376 151.351 42.8608C150.15 42.6451 148.949 42.4299 147.748 42.2142C146.438 41.979 145.127 41.7438 143.816 41.5086C142.484 41.2696 141.152 41.0306 139.82 40.7911C138.586 40.5698 137.353 40.348 136.119 40.1268C135.073 39.939 134.027 39.7512 132.981 39.5634C132.228 39.4286 131.477 39.2933 130.724 39.1585C130.369 39.0945 130.014 39.0267 129.658 38.967C129.642 38.9647 129.626 38.9612 129.611 38.9588C129.278 38.8988 128.911 39.1075 128.871 39.4217C128.83 39.7376 129.047 40.0494 129.404 40.1136Z" fill="black" fill-opacity="0.18"/>
<path d="M128.814 43.4104C129.06 43.4545 129.306 43.4985 129.552 43.5431C130.216 43.6623 130.88 43.7814 131.544 43.9006C132.528 44.0774 133.512 44.2541 134.497 44.4308C135.698 44.6465 136.899 44.8618 138.1 45.0775C139.41 45.3127 140.721 45.5478 142.032 45.783C143.364 46.022 144.696 46.261 146.028 46.5005C147.262 46.7218 148.495 46.9436 149.729 47.1648C150.775 47.3526 151.821 47.5404 152.867 47.7282C153.62 47.863 154.371 47.9983 155.124 48.1332C155.479 48.1971 155.834 48.2649 156.19 48.3246C156.206 48.3269 156.221 48.3304 156.237 48.3328C156.57 48.3928 156.937 48.1841 156.977 47.8699C157.018 47.5541 156.801 47.2422 156.444 47.178C156.197 47.1339 155.951 47.0899 155.705 47.0453C155.041 46.9261 154.377 46.8069 153.713 46.6877C152.729 46.511 151.745 46.3343 150.76 46.1576C149.56 45.9419 148.358 45.7266 147.158 45.5109C145.847 45.2757 144.536 45.0405 143.225 44.8053C141.893 44.5664 140.561 44.3273 139.229 44.0878C137.996 43.8666 136.762 43.6448 135.529 43.4235C134.482 43.2357 133.436 43.048 132.39 42.8602C131.638 42.7253 130.886 42.59 130.133 42.4552C129.778 42.3912 129.423 42.3235 129.067 42.2638C129.052 42.2614 129.036 42.2579 129.02 42.2556C128.687 42.1956 128.32 42.4043 128.28 42.7185C128.24 43.0343 128.457 43.3462 128.814 43.4104Z" fill="black" fill-opacity="0.18"/>
<path d="M125.53 35.3791C125.587 35.049 125.506 34.6911 125.285 34.4365C125.098 34.2216 124.862 34.0873 124.582 34.037C124.318 33.9897 124.054 33.9424 123.79 33.8951C123.326 33.8118 122.861 33.7284 122.397 33.6451C121.931 33.5616 121.465 33.4781 120.999 33.3945C120.73 33.3464 120.462 33.2979 120.194 33.2499C119.959 33.2076 119.71 33.2216 119.492 33.3267C119.149 33.4926 118.905 33.7954 118.836 34.1752C118.794 34.4012 118.755 34.6276 118.714 34.8537C118.633 35.3072 118.552 35.7605 118.471 36.2134C118.384 36.6945 118.298 37.176 118.212 37.6572C118.158 37.9616 118.103 38.2654 118.049 38.5698C118.022 38.7183 118.003 38.8696 118.028 39.0199C118.107 39.4922 118.445 39.8635 118.911 39.9721C119.104 40.0175 119.304 40.0441 119.5 40.0789C119.935 40.1572 120.37 40.235 120.806 40.3133C121.289 40.4001 121.774 40.487 122.257 40.5738C122.592 40.6341 122.926 40.6937 123.261 40.754C123.31 40.7626 123.359 40.7716 123.408 40.7802C123.623 40.8169 123.859 40.7964 124.059 40.7033C124.285 40.5979 124.46 40.4407 124.591 40.2272C124.674 40.0902 124.714 39.9344 124.742 39.778C124.796 39.4779 124.85 39.1783 124.903 38.8781C124.989 38.3997 125.074 37.9218 125.16 37.4434C125.242 36.9863 125.324 36.5291 125.406 36.0721C125.447 35.8411 125.489 35.6097 125.53 35.3786L125.53 35.3791ZM124.794 34.9593C124.788 34.9486 124.783 34.9391 124.784 34.9392C124.786 34.9395 124.79 34.95 124.794 34.9593ZM119.748 33.9857C119.737 33.9917 119.728 33.9968 119.728 33.9963C119.728 33.9941 119.739 33.9897 119.748 33.9857ZM118.771 39.0647C118.777 39.0754 118.782 39.0849 118.781 39.0849C118.779 39.0845 118.775 39.074 118.771 39.0647ZM123.817 40.0383C123.828 40.0323 123.837 40.0272 123.837 40.0277C123.837 40.0299 123.826 40.0343 123.817 40.0383ZM124.763 35.6625C124.698 36.0233 124.633 36.3846 124.569 36.7454C124.49 37.1866 124.411 37.6277 124.332 38.069C124.264 38.4489 124.196 38.8294 124.128 39.2094C124.097 39.3823 124.067 39.5555 124.035 39.7282C124.031 39.7479 124.027 39.7674 124.022 39.7869C124.008 39.8231 123.991 39.8577 123.973 39.8915C123.953 39.9175 123.933 39.9423 123.911 39.9662C123.907 39.9701 123.904 39.9733 123.9 39.9771C123.885 39.9886 123.871 40.0001 123.856 40.0104C123.84 40.0216 123.823 40.0317 123.807 40.0422C123.805 40.0431 123.804 40.0434 123.803 40.0434C123.771 40.0576 123.738 40.069 123.706 40.0788C123.668 40.085 123.629 40.0884 123.59 40.0891C123.571 40.0873 123.553 40.0844 123.533 40.0815C123.382 40.0541 123.231 40.0273 123.079 39.9998L121.993 39.8048C121.56 39.7268 121.127 39.6494 120.694 39.5714C120.324 39.5051 119.953 39.4383 119.583 39.372C119.415 39.342 119.246 39.3131 119.078 39.2815C119.059 39.278 119.039 39.2734 119.02 39.2688C118.984 39.2546 118.95 39.2379 118.916 39.2191C118.89 39.1999 118.866 39.1792 118.842 39.157C118.838 39.1537 118.835 39.1499 118.831 39.146C118.82 39.1317 118.808 39.1174 118.798 39.1022C118.787 39.0857 118.777 39.0695 118.767 39.0526C118.766 39.0508 118.766 39.0496 118.766 39.0491C118.751 39.0169 118.74 38.984 118.731 38.9508C118.724 38.9116 118.721 38.8717 118.72 38.8318C118.735 38.6743 118.776 38.5149 118.803 38.3611C118.868 38.0003 118.933 37.639 118.997 37.2781C119.076 36.837 119.155 36.3958 119.234 35.9546L119.438 34.8142C119.469 34.6413 119.499 34.4681 119.531 34.2953C119.535 34.2757 119.539 34.2561 119.544 34.2366C119.558 34.2005 119.575 34.1659 119.593 34.1321C119.613 34.106 119.633 34.0813 119.655 34.0573C119.659 34.0535 119.662 34.0502 119.666 34.0464C119.68 34.0349 119.695 34.024 119.71 34.0132C119.726 34.002 119.742 33.9919 119.759 33.9813C119.761 33.9805 119.762 33.9801 119.763 33.9802C119.795 33.966 119.827 33.9545 119.86 33.9448C119.899 33.9382 119.939 33.9349 119.979 33.9344C120.135 33.9484 120.294 33.9895 120.446 34.0166C120.805 34.081 121.164 34.1455 121.522 34.2095C121.961 34.2882 122.399 34.367 122.837 34.4453C123.215 34.5132 123.593 34.5812 123.97 34.6485C124.142 34.6796 124.314 34.7091 124.486 34.7412C124.506 34.7448 124.525 34.7494 124.544 34.754C124.58 34.7682 124.615 34.7849 124.648 34.8037C124.674 34.8229 124.699 34.8436 124.722 34.8658C124.726 34.8691 124.729 34.8729 124.733 34.8767C124.745 34.8911 124.756 34.9054 124.766 34.9206C124.777 34.937 124.787 34.9533 124.798 34.9702C124.798 34.972 124.799 34.9731 124.799 34.9737C124.813 35.0059 124.824 35.0388 124.834 35.0719C124.84 35.1112 124.843 35.151 124.844 35.191C124.83 35.3485 124.789 35.5079 124.761 35.6617L124.763 35.6625Z" fill="black" fill-opacity="0.18"/>
<path d="M123.942 36.2094C124.038 36.3186 124.02 36.4874 123.902 36.5728L121.786 38.113L121.026 38.6653L120.408 37.9983L119.727 37.2631C119.629 37.1568 119.642 36.9889 119.756 36.8997L120.242 36.5189C120.35 36.4352 120.504 36.4543 120.587 36.562L121.133 37.485L123.029 35.5509C123.13 35.4564 123.288 35.4642 123.38 35.5683L123.942 36.21L123.942 36.2094Z" fill="#BECCBD"/>
<path d="M127.402 51.2927C127.569 51.3226 127.737 51.3532 127.905 51.3831C128.361 51.4652 128.818 51.5468 129.274 51.6289C129.949 51.7503 130.625 51.8713 131.3 51.9927C132.125 52.1407 132.948 52.2886 133.773 52.4365C134.68 52.5993 135.587 52.7622 136.495 52.925C137.406 53.0884 138.318 53.2524 139.229 53.4159C140.079 53.5683 140.929 53.7207 141.779 53.8736C142.497 54.0028 143.215 54.1313 143.934 54.2604C144.451 54.3533 144.967 54.4457 145.484 54.5387C145.729 54.5825 145.974 54.6297 146.219 54.6708C146.23 54.6725 146.24 54.6746 146.251 54.6768C146.75 54.7665 147.301 54.454 147.361 53.9821C147.422 53.5086 147.096 53.0409 146.561 52.9445C146.393 52.9146 146.225 52.8841 146.058 52.8542C145.601 52.7721 145.144 52.6905 144.688 52.6084C144.013 52.487 143.337 52.366 142.662 52.2446C141.838 52.0966 141.014 51.9487 140.19 51.8007C139.282 51.6379 138.375 51.4751 137.468 51.3123C136.556 51.1489 135.645 50.9849 134.733 50.8214C133.883 50.669 133.033 50.5166 132.184 50.3636C131.465 50.2345 130.747 50.106 130.028 49.9769C129.512 49.884 128.995 49.7916 128.478 49.6986C128.233 49.6548 127.988 49.6076 127.743 49.5665C127.733 49.5648 127.722 49.5627 127.712 49.5605C127.212 49.4708 126.662 49.7833 126.601 50.2552C126.541 50.7286 126.866 51.1964 127.402 51.2927Z" fill="black" fill-opacity="0.18"/>
<path d="M125.681 60.895C125.869 60.9284 126.056 60.9624 126.243 60.9959C126.753 61.0872 127.263 61.1791 127.773 61.2704C128.527 61.4055 129.28 61.541 130.034 61.6761C130.953 61.8413 131.873 62.006 132.793 62.1712C133.8 62.352 134.807 62.5328 135.815 62.7136C136.832 62.8964 137.849 63.0786 138.865 63.2613C139.813 63.4314 140.761 63.6015 141.709 63.7716C142.51 63.9155 143.312 64.0594 144.113 64.2028C144.688 64.3063 145.264 64.4093 145.84 64.5129C146.112 64.5619 146.383 64.6147 146.655 64.6595C146.667 64.6614 146.679 64.6637 146.691 64.6661C147.024 64.7261 147.391 64.5174 147.431 64.2032C147.472 63.8874 147.255 63.5755 146.898 63.5113C146.711 63.4778 146.524 63.4439 146.336 63.4104C145.826 63.3191 145.317 63.2272 144.807 63.1359C144.053 63.0008 143.299 62.8653 142.545 62.7302C141.626 62.565 140.706 62.4002 139.787 62.235C138.779 62.0543 137.772 61.8735 136.764 61.6927C135.748 61.5099 134.731 61.3277 133.714 61.1449C132.766 60.9748 131.818 60.8047 130.87 60.6346C130.069 60.4908 129.268 60.3469 128.467 60.2035C127.891 60.1 127.315 59.9969 126.739 59.8934C126.468 59.8443 126.197 59.7916 125.924 59.7468C125.912 59.7449 125.9 59.7426 125.888 59.7402C125.555 59.6802 125.188 59.8889 125.148 60.2031C125.107 60.5189 125.324 60.8308 125.681 60.895Z" fill="black" fill-opacity="0.18"/>
<path d="M126.272 57.5976C126.505 57.6397 126.739 57.6812 126.972 57.7233C127.6 57.836 128.229 57.9487 128.858 58.062C129.793 58.2302 130.729 58.3979 131.665 58.5662C132.799 58.7695 133.933 58.9734 135.067 59.1767C136.313 59.4004 137.558 59.6241 138.805 59.8478C140.063 60.0733 141.32 60.2993 142.578 60.5254L146.097 61.157C147.088 61.3348 148.08 61.5132 149.071 61.6909C149.783 61.8186 150.497 61.9469 151.209 62.0746C151.547 62.1354 151.884 62.1999 152.222 62.2563C152.237 62.2585 152.251 62.2613 152.266 62.264C152.599 62.324 152.966 62.1153 153.006 61.8011C153.047 61.4853 152.829 61.1734 152.473 61.1092C152.239 61.0671 152.006 61.0256 151.773 60.9835C151.144 60.8708 150.516 60.7581 149.887 60.6448C148.951 60.4766 148.015 60.3089 147.08 60.1406C145.946 59.9373 144.812 59.7334 143.678 59.5301C142.432 59.3064 141.186 59.0828 139.94 58.859C138.682 58.6335 137.424 58.4075 136.167 58.1815C134.994 57.9711 133.821 57.7602 132.648 57.5498C131.656 57.372 130.665 57.1937 129.674 57.0159C128.961 56.8882 128.248 56.7599 127.536 56.6322C127.198 56.5715 126.86 56.507 126.522 56.4506C126.508 56.4484 126.493 56.4456 126.479 56.4429C126.146 56.3828 125.779 56.5915 125.739 56.9057C125.698 57.2216 125.915 57.5334 126.272 57.5976Z" fill="black" fill-opacity="0.18"/>
<path d="M126.863 54.3011C127.096 54.3432 127.329 54.3847 127.562 54.4268C128.191 54.5395 128.82 54.6522 129.448 54.7655C130.384 54.9337 131.32 55.1014 132.256 55.2697C133.39 55.473 134.524 55.6769 135.657 55.8802C136.904 56.1039 138.149 56.3275 139.395 56.5513C140.653 56.7768 141.911 57.0028 143.169 57.2289C144.342 57.4392 145.515 57.6502 146.688 57.8605C147.679 58.0383 148.67 58.2167 149.661 58.3944C150.374 58.5221 151.087 58.6504 151.8 58.7781C152.138 58.8389 152.475 58.9034 152.813 58.9598C152.827 58.9619 152.842 58.9647 152.857 58.9675C153.19 59.0275 153.557 58.8188 153.597 58.5046C153.637 58.1887 153.42 57.8769 153.063 57.8127C152.83 57.7706 152.597 57.7291 152.364 57.687C151.735 57.5743 151.107 57.4616 150.478 57.3483C149.542 57.1801 148.606 57.0124 147.67 56.8441C146.536 56.6408 145.403 56.4369 144.269 56.2336C143.023 56.0099 141.777 55.7863 140.531 55.5625C139.273 55.337 138.015 55.111 136.757 54.885C135.585 54.6746 134.411 54.4636 133.239 54.2533C132.247 54.0755 131.256 53.8972 130.265 53.7194C129.552 53.5917 128.839 53.4634 128.126 53.3357C127.788 53.2749 127.451 53.2104 127.113 53.154C127.099 53.1519 127.084 53.1491 127.07 53.1463C126.737 53.0863 126.37 53.295 126.33 53.6092C126.289 53.9251 126.506 54.2369 126.863 54.3011Z" fill="black" fill-opacity="0.18"/>
<path d="M122.988 49.5663C123.046 49.2362 122.965 48.8783 122.743 48.6238C122.557 48.4089 122.321 48.2746 122.04 48.2242C121.777 48.1769 121.513 48.1296 121.249 48.0823C120.785 47.999 120.32 47.9157 119.856 47.8324C119.39 47.7489 118.924 47.6653 118.458 47.5817C118.189 47.5337 117.921 47.4852 117.652 47.4372C117.418 47.3949 117.168 47.4088 116.951 47.514C116.608 47.6799 116.363 47.9827 116.294 48.3625C116.253 48.5885 116.213 48.8148 116.173 49.041C116.092 49.4944 116.01 49.9478 115.929 50.4007C115.843 50.8817 115.757 51.3633 115.671 51.8444C115.616 52.1488 115.562 52.4527 115.507 52.7571C115.481 52.9056 115.462 53.0568 115.487 53.2071C115.566 53.6795 115.904 54.0507 116.369 54.1594C116.563 54.2047 116.763 54.2314 116.959 54.2661C117.394 54.3444 117.829 54.4222 118.264 54.5005C118.748 54.5873 119.232 54.6742 119.716 54.761C120.051 54.8213 120.385 54.881 120.72 54.9412C120.769 54.9498 120.817 54.9589 120.867 54.9675C121.082 55.0041 121.318 54.9837 121.518 54.8906C121.744 54.7851 121.918 54.628 122.049 54.4145C122.133 54.2775 122.173 54.1217 122.201 53.9652C122.255 53.6651 122.308 53.3655 122.362 53.0653C122.448 52.587 122.533 52.109 122.619 51.6307L122.865 50.2593C122.906 50.0283 122.948 49.797 122.989 49.5659L122.988 49.5663ZM122.253 49.1466C122.247 49.1358 122.242 49.1263 122.243 49.1264C122.245 49.1267 122.249 49.1372 122.253 49.1466ZM117.207 48.1729C117.196 48.1789 117.187 48.1841 117.187 48.1835C117.187 48.1814 117.197 48.177 117.207 48.1729ZM116.229 53.2519C116.235 53.2627 116.24 53.2722 116.24 53.2721C116.238 53.2718 116.233 53.2613 116.229 53.2519ZM121.276 54.2256C121.286 54.2196 121.296 54.2145 121.296 54.215C121.295 54.2171 121.285 54.2216 121.276 54.2256ZM122.221 49.8497C122.157 50.2105 122.092 50.5718 122.028 50.9327C121.949 51.3738 121.869 51.815 121.791 52.2562C121.723 52.6361 121.654 53.0166 121.587 53.3966C121.555 53.5696 121.526 53.7427 121.493 53.9155C121.49 53.9352 121.485 53.9547 121.481 53.9742C121.467 54.0103 121.45 54.0449 121.431 54.0787C121.412 54.1048 121.391 54.1295 121.369 54.1535C121.366 54.1573 121.362 54.1606 121.358 54.1644C121.344 54.1759 121.33 54.1874 121.315 54.1977C121.298 54.2088 121.282 54.2189 121.265 54.2295C121.264 54.2303 121.262 54.2307 121.262 54.2306C121.23 54.2449 121.197 54.2563 121.164 54.266C121.126 54.2723 121.088 54.2757 121.049 54.2764C121.03 54.2745 121.011 54.2717 120.992 54.2688C120.841 54.2414 120.69 54.2145 120.538 54.187C120.176 54.122 119.814 54.0571 119.452 53.9921C119.019 53.9141 118.586 53.8366 118.153 53.7587C117.782 53.6924 117.412 53.6256 117.041 53.5593C116.873 53.5293 116.705 53.5004 116.537 53.4688C116.517 53.4653 116.498 53.4607 116.479 53.4561C116.443 53.4419 116.408 53.4251 116.375 53.4064C116.349 53.3871 116.324 53.3664 116.301 53.3442C116.297 53.3409 116.294 53.3371 116.29 53.3333C116.278 53.319 116.267 53.3047 116.257 53.2895C116.246 53.273 116.236 53.2562 116.225 53.2398C116.224 53.2381 116.224 53.2369 116.224 53.2364C116.21 53.2042 116.199 53.1713 116.189 53.1381C116.183 53.0988 116.18 53.059 116.179 53.019C116.193 52.8616 116.234 52.7022 116.262 52.5483C116.326 52.1876 116.391 51.8262 116.455 51.4654C116.535 51.0242 116.614 50.5831 116.692 50.1419L116.897 49.0009C116.928 48.828 116.957 48.6548 116.99 48.4821C116.993 48.4624 116.998 48.4429 117.002 48.4233C117.017 48.3872 117.033 48.3526 117.052 48.3188C117.071 48.2928 117.092 48.268 117.114 48.2441C117.117 48.2402 117.121 48.2369 117.125 48.2331C117.139 48.2216 117.153 48.2101 117.168 48.1999C117.185 48.1887 117.201 48.1786 117.218 48.168C117.22 48.1672 117.221 48.1668 117.221 48.1669C117.253 48.1527 117.286 48.1413 117.319 48.1315C117.358 48.1249 117.398 48.1216 117.437 48.1211C117.594 48.1351 117.752 48.1762 117.905 48.2033C118.264 48.2677 118.623 48.3323 118.981 48.3962C119.419 48.475 119.858 48.5538 120.296 48.632L121.429 48.8352C121.601 48.8663 121.773 48.8958 121.945 48.928C121.964 48.9315 121.984 48.9361 122.003 48.9407C122.039 48.9549 122.073 48.9716 122.107 48.9904C122.133 49.0096 122.157 49.0303 122.181 49.0525C122.185 49.0558 122.188 49.0596 122.192 49.0635C122.203 49.0778 122.215 49.0921 122.225 49.1073C122.236 49.1238 122.246 49.1406 122.256 49.1569C122.257 49.1587 122.258 49.1599 122.257 49.1604C122.272 49.1926 122.283 49.2255 122.292 49.2587C122.299 49.2979 122.302 49.3378 122.303 49.3777C122.288 49.5352 122.247 49.6946 122.22 49.8484L122.221 49.8497Z" fill="black" fill-opacity="0.18"/>
<path d="M124.269 68.7774C124.437 68.8073 124.605 68.8378 124.773 68.8677C125.229 68.9498 125.686 69.0314 126.142 69.1135C126.817 69.2349 127.493 69.3559 128.168 69.4773C128.993 69.6253 129.816 69.7732 130.641 69.9212C131.548 70.084 132.455 70.2468 133.363 70.4096C134.274 70.573 135.186 70.737 136.097 70.9005C136.947 71.0529 137.797 71.2053 138.647 71.3583C139.365 71.4874 140.083 71.6159 140.802 71.745C141.318 71.8379 141.835 71.9303 142.352 72.0233C142.597 72.0671 142.842 72.1143 143.087 72.1555C143.098 72.1571 143.108 72.1592 143.119 72.1614C143.618 72.2511 144.168 71.9386 144.229 71.4667C144.29 70.9933 143.964 70.5255 143.429 70.4292C143.261 70.3993 143.093 70.3687 142.925 70.3388C142.469 70.2567 142.012 70.1751 141.556 70.093C140.881 69.9716 140.205 69.8506 139.53 69.7292C138.705 69.5812 137.882 69.4333 137.057 69.2854C136.15 69.1226 135.243 68.9597 134.335 68.7969C133.424 68.6335 132.512 68.4695 131.601 68.306C130.751 68.1537 129.901 68.0012 129.051 67.8483C128.333 67.7191 127.615 67.5906 126.896 67.4615C126.38 67.3686 125.863 67.2762 125.346 67.1832C125.101 67.1394 124.856 67.0923 124.611 67.0511C124.6 67.0495 124.59 67.0473 124.579 67.0451C124.08 66.9554 123.53 67.2679 123.469 67.7398C123.408 68.2133 123.734 68.681 124.269 68.7774Z" fill="black" fill-opacity="0.18"/>
<path d="M123.73 71.7856C123.977 71.8297 124.222 71.8737 124.469 71.9184C125.133 72.0376 125.796 72.1567 126.46 72.2759C127.445 72.4526 128.429 72.6293 129.413 72.8061C130.614 73.0218 131.816 73.237 133.016 73.4527C134.327 73.6879 135.638 73.9231 136.948 74.1583C138.28 74.3972 139.613 74.6363 140.945 74.8758C142.178 75.097 143.412 75.3188 144.645 75.5401C145.692 75.7279 146.737 75.9156 147.784 76.1034C148.536 76.2383 149.288 76.3736 150.04 76.5084C150.396 76.5724 150.751 76.6402 151.107 76.6998C151.122 76.7022 151.138 76.7057 151.153 76.708C151.487 76.768 151.853 76.5594 151.894 76.2451C151.934 75.9293 151.717 75.6174 151.36 75.5532C151.114 75.5091 150.868 75.4651 150.622 75.4205C149.958 75.3013 149.294 75.1822 148.63 75.063C147.645 74.8862 146.662 74.7096 145.677 74.5328C144.476 74.3171 143.275 74.1019 142.074 73.8862C140.763 73.651 139.453 73.4158 138.142 73.1806C136.81 72.9416 135.478 72.7026 134.146 72.4631C132.912 72.2418 131.679 72.02 130.445 71.7988C129.399 71.611 128.353 71.4232 127.307 71.2354C126.554 71.1006 125.802 70.9653 125.05 70.8304C124.695 70.7665 124.339 70.6987 123.984 70.639C123.968 70.6367 123.952 70.6332 123.937 70.6308C123.604 70.5708 123.237 70.7795 123.197 71.0937C123.156 71.4096 123.373 71.7214 123.73 71.7856Z" fill="black" fill-opacity="0.18"/>
<path d="M123.14 75.0829C123.386 75.127 123.632 75.171 123.878 75.2156C124.543 75.3348 125.206 75.4539 125.87 75.5731C126.855 75.7499 127.839 75.9265 128.823 76.1033C130.024 76.319 131.225 76.5342 132.426 76.7499C133.737 76.9851 135.047 77.2203 136.358 77.4555C137.69 77.6945 139.023 77.9335 140.354 78.173C141.588 78.3943 142.821 78.6161 144.055 78.8373C145.101 79.0251 146.147 79.2129 147.194 79.4007C147.946 79.5355 148.698 79.6708 149.45 79.8057C149.805 79.8696 150.161 79.9374 150.517 79.9971C150.532 79.9994 150.548 80.0029 150.563 80.0053C150.896 80.0653 151.263 79.8566 151.303 79.5424C151.344 79.2266 151.127 78.9147 150.77 78.8505C150.524 78.8064 150.278 78.7624 150.031 78.7177C149.367 78.5985 148.704 78.4794 148.04 78.3602C147.055 78.1835 146.071 78.0068 145.087 77.8301C143.886 77.6144 142.685 77.3991 141.484 77.1834C140.173 76.9482 138.862 76.713 137.552 76.4778C136.22 76.2389 134.887 75.9998 133.556 75.7603C132.322 75.5391 131.089 75.3173 129.855 75.096C128.809 74.9082 127.763 74.7205 126.716 74.5327C125.964 74.3978 125.212 74.2625 124.46 74.1277C124.104 74.0637 123.749 73.996 123.393 73.9363C123.378 73.9339 123.362 73.9304 123.347 73.9281C123.014 73.8681 122.647 74.0768 122.606 74.391C122.566 74.7068 122.783 75.0187 123.14 75.0829Z" fill="black" fill-opacity="0.18"/>
<path d="M119.856 67.051C119.914 66.7208 119.833 66.363 119.611 66.1084C119.424 65.8935 119.189 65.7592 118.908 65.7088C118.644 65.6615 118.381 65.6142 118.117 65.5669C117.653 65.4837 117.188 65.4003 116.724 65.317C116.258 65.2335 115.792 65.1499 115.326 65.0663C115.057 65.0183 114.789 64.9698 114.52 64.9218C114.286 64.8795 114.036 64.8934 113.819 64.9986C113.476 65.1645 113.231 65.4673 113.162 65.8471C113.121 66.0731 113.081 66.2994 113.041 66.5256C112.96 66.979 112.878 67.4324 112.797 67.8853C112.711 68.3663 112.625 68.8479 112.539 69.329C112.484 69.6334 112.43 69.9373 112.375 70.2417C112.349 70.3902 112.33 70.5414 112.355 70.6917C112.434 71.1641 112.771 71.5353 113.237 71.644C113.431 71.6894 113.631 71.716 113.827 71.7508C114.262 71.8291 114.697 71.9068 115.132 71.9851C115.616 72.072 116.1 72.1588 116.584 72.2457C116.919 72.3059 117.253 72.3656 117.587 72.4259L117.734 72.4521C117.95 72.4887 118.186 72.4683 118.386 72.3752C118.612 72.2697 118.786 72.1126 118.917 71.8991C119.001 71.7621 119.04 71.6063 119.069 71.4499C119.122 71.1498 119.176 70.8502 119.23 70.55C119.315 70.0716 119.401 69.5937 119.487 69.1153C119.569 68.6582 119.65 68.201 119.732 67.7439C119.774 67.5129 119.816 67.2816 119.857 67.0505L119.856 67.051ZM119.121 66.6312C119.115 66.6205 119.11 66.6109 119.11 66.611C119.113 66.6113 119.117 66.6219 119.121 66.6312ZM114.075 65.6575C114.064 65.6636 114.054 65.6687 114.055 65.6681C114.055 65.666 114.065 65.6616 114.075 65.6575ZM113.097 70.7365C113.103 70.7473 113.108 70.7568 113.108 70.7567C113.106 70.7564 113.101 70.7459 113.097 70.7365ZM118.144 71.7102C118.154 71.7042 118.164 71.6991 118.164 71.6996C118.163 71.7018 118.153 71.7062 118.144 71.7102ZM119.089 67.3343C119.025 67.6951 118.96 68.0565 118.896 68.4173C118.816 68.8585 118.737 69.2996 118.659 69.7408C118.59 70.1213 118.522 70.5012 118.454 70.8813C118.423 71.0542 118.394 71.2273 118.361 71.4001C118.358 71.4198 118.353 71.4393 118.349 71.4588C118.334 71.4949 118.318 71.5296 118.299 71.5633C118.28 71.5894 118.259 71.6141 118.237 71.6381C118.234 71.642 118.23 71.6452 118.226 71.649C118.212 71.6605 118.198 71.672 118.183 71.6823C118.166 71.6934 118.15 71.7035 118.133 71.7141C118.131 71.7149 118.13 71.7153 118.13 71.7152C118.098 71.7295 118.065 71.7409 118.032 71.7506C117.994 71.7569 117.956 71.7603 117.917 71.761C117.898 71.7591 117.879 71.7563 117.86 71.7534C117.709 71.726 117.557 71.6991 117.406 71.6716C117.044 71.6066 116.682 71.5417 116.32 71.4767C115.887 71.3987 115.454 71.3213 115.021 71.2433C114.65 71.177 114.28 71.1102 113.909 71.0439C113.741 71.0139 113.573 70.985 113.405 70.9534C113.385 70.9499 113.366 70.9453 113.346 70.9407C113.311 70.9265 113.276 70.9098 113.243 70.891C113.217 70.8718 113.192 70.8511 113.169 70.8289C113.165 70.8255 113.161 70.8218 113.158 70.8179C113.146 70.8036 113.135 70.7893 113.125 70.7741C113.114 70.7576 113.104 70.7408 113.093 70.7244C113.092 70.7227 113.092 70.7215 113.092 70.721C113.078 70.6888 113.067 70.6559 113.057 70.6227C113.051 70.5835 113.047 70.5436 113.047 70.5036C113.061 70.3462 113.102 70.1868 113.13 70.033C113.194 69.6722 113.259 69.3109 113.323 68.95C113.402 68.5088 113.482 68.0677 113.56 67.6265C113.628 67.246 113.697 66.8661 113.764 66.4855C113.796 66.3126 113.825 66.1394 113.858 65.9667C113.861 65.947 113.866 65.9275 113.87 65.908C113.884 65.8718 113.901 65.8372 113.92 65.8034C113.939 65.7774 113.96 65.7526 113.982 65.7287C113.985 65.7248 113.989 65.7216 113.993 65.7178C114.007 65.7063 114.021 65.6948 114.036 65.6845C114.053 65.6733 114.069 65.6632 114.086 65.6527C114.087 65.6518 114.089 65.6515 114.089 65.6515C114.121 65.6373 114.154 65.6259 114.187 65.6161C114.226 65.6095 114.266 65.6063 114.305 65.6057C114.462 65.6197 114.62 65.6608 114.773 65.6879C115.131 65.7524 115.49 65.8169 115.849 65.8808C116.287 65.9596 116.726 66.0384 117.164 66.1166C117.541 66.1845 117.919 66.2525 118.297 66.3198C118.469 66.3509 118.641 66.3804 118.813 66.4126C118.832 66.4161 118.851 66.4207 118.871 66.4253C118.907 66.4395 118.941 66.4562 118.975 66.475C119.001 66.4942 119.025 66.5149 119.049 66.5371C119.053 66.5405 119.056 66.5442 119.06 66.5481C119.071 66.5624 119.082 66.5767 119.093 66.5919C119.104 66.6084 119.114 66.6252 119.124 66.6416C119.125 66.6433 119.125 66.6445 119.125 66.645C119.139 66.6772 119.151 66.7101 119.16 66.7433C119.167 66.7825 119.17 66.8224 119.17 66.8623C119.156 67.0198 119.115 67.1792 119.088 67.333L119.089 67.3343Z" fill="black" fill-opacity="0.18"/>
<path fill-rule="evenodd" clip-rule="evenodd" d="M117.933 67.0191C117.871 66.9259 117.743 66.9043 117.654 66.9721L116.261 68.0337L115.413 66.5452C115.358 66.448 115.232 66.418 115.138 66.4797L114.468 66.9235C114.375 66.9852 114.353 67.1129 114.421 67.2019L115.459 68.5646L113.938 69.4319C113.84 69.4873 113.81 69.6133 113.872 69.7066L114.316 70.3771C114.378 70.4704 114.505 70.492 114.594 70.4242L115.992 69.3592L116.881 70.9187C116.936 71.0159 117.062 71.0459 117.155 70.9842L117.826 70.5404C117.919 70.4787 117.941 70.351 117.873 70.262L116.785 68.8343L118.311 67.9643C118.408 67.9089 118.438 67.7829 118.377 67.6897L117.933 67.0191Z" fill="#F79F7C"/>
<path fill-rule="evenodd" clip-rule="evenodd" d="M120.999 49.4897C120.937 49.3965 120.809 49.3749 120.72 49.4426L119.327 50.5042L118.479 49.0158C118.424 48.9186 118.298 48.8886 118.204 48.9503L117.534 49.3941C117.44 49.4558 117.419 49.5835 117.487 49.6725L118.525 51.0351L117.003 51.9025C116.906 51.9579 116.876 52.0839 116.938 52.1772L117.382 52.8477C117.443 52.9409 117.571 52.9625 117.66 52.8947L119.058 51.8298L119.947 53.3893C120.002 53.4864 120.128 53.5165 120.221 53.4548L120.892 53.011C120.985 52.9493 121.007 52.8215 120.939 52.7326L119.851 51.3049L121.377 50.4349C121.474 50.3795 121.504 50.2535 121.442 50.1602L120.999 49.4897Z" fill="#F79F7C"/>
</g>
<g clip-path="url(#clip4_206_2102)">
<path d="M217.8 21.4945C220.837 29.3054 216.968 38.0998 209.157 41.1374C201.346 44.175 192.551 40.3054 189.514 32.4945C186.476 24.6837 190.346 15.8892 198.157 12.8517C205.968 9.81407 214.762 13.6836 217.8 21.4945Z" fill="#D9DDE5"/>
<path d="M193.005 24.4561L187.294 21.9434C186.511 21.5989 186.156 20.6848 186.5 19.9018L186.905 18.9821C187.25 18.1991 188.164 17.8436 188.947 18.1881L194.657 20.7009C195.44 21.0454 195.796 21.9595 195.451 22.7425L195.047 23.6622C194.702 24.4452 193.788 24.8007 193.005 24.4561Z" fill="#ECEFF7"/>
<path d="M213.954 22.99C216.166 28.677 213.348 35.0802 207.661 37.2918C201.974 39.5034 195.571 36.6861 193.359 30.999C191.148 25.312 193.965 18.9089 199.652 16.6973C205.339 14.4856 211.742 17.303 213.954 22.99Z" fill="#ECEFF7"/>
<path d="M211.482 23.8865C213.155 28.1897 211.024 33.0348 206.72 34.7083C202.417 36.3818 197.572 34.25 195.899 29.9468C194.225 25.6435 196.357 20.7984 200.66 19.1249C204.963 17.4514 209.808 19.5832 211.482 23.8865Z" fill="#D0976E"/>
</g>
<defs>
<clipPath id="clip0_206_2102">
<rect y="1.20459" width="232" height="106.333" rx="11.6" fill="white"/>
</clipPath>
<clipPath id="clip1_206_2102">
<rect width="20.7398" height="32.2619" fill="white" transform="translate(168.898 83.4347) rotate(-126.367)"/>
</clipPath>
<clipPath id="clip2_206_2102">
<rect width="23.2323" height="28.0723" fill="white" transform="translate(171.435 96.6667) rotate(-95.6027)"/>
</clipPath>
<clipPath id="clip3_206_2102">
<rect width="71.5333" height="86.0333" fill="white" transform="translate(8.70001 16.8994) rotate(-19.118)"/>
</clipPath>
<clipPath id="clip4_206_2102">
<rect width="40.6" height="40.6" fill="white" transform="matrix(0.915316 0.402737 0.402737 -0.915316 176.9 37.3998)"/>
</clipPath>
</defs>
</svg>
