<svg width="56" height="57" viewBox="0 0 56 57" fill="none" xmlns="http://www.w3.org/2000/svg">
<g clip-path="url(#clip0_2_576)">
<path d="M4.82757 24.6264C5.91135 18.0887 6.45325 14.8198 8.18166 12.3122C9.10872 10.9672 10.2698 9.79964 11.6095 8.86502C14.1073 7.12251 17.3731 6.56221 23.9045 5.44162L25.4225 5.18119C35.4266 3.46479 40.4287 2.60659 44.3016 4.41729C46.1772 5.29425 47.8287 6.58658 49.131 8.19638C51.8197 11.5202 52.1894 16.5819 52.9288 26.7053C53.7529 37.9897 54.165 43.6318 51.6488 47.4886C50.4352 49.3488 48.7858 50.8846 46.844 51.9627C42.8178 54.1979 37.2193 53.3852 26.0223 51.7597L24.4982 51.5385C15.3602 50.212 10.7913 49.5487 7.78539 46.9692C6.18773 45.5982 4.92899 43.876 4.10767 41.9376C2.5624 38.2904 3.31745 33.7357 4.82757 24.6264Z" fill="#EDF4F5"/>
<path d="M44.3319 13.1153C44.0242 8.26421 43.8704 5.83864 42.704 4.08568C41.9825 3.00149 41.0029 2.11368 39.8531 1.50214C37.9941 0.513364 35.5652 0.598323 30.7072 0.768242L12.3365 1.41081C8.58973 1.54186 6.71636 1.60739 5.22537 2.3287C3.79826 3.01912 2.61346 4.1252 1.82671 5.50156C1.00475 6.93951 0.810791 8.80397 0.422863 12.5329C-0.0393791 16.9762 -0.2705 19.1978 0.408379 20.9588C1.05685 22.641 2.26419 24.0488 3.8278 24.9462C5.46473 25.8856 7.69563 25.9959 12.1574 26.2165L30.517 27.1242C36.0315 27.3968 38.7887 27.5331 40.7895 26.3814C42.0226 25.6715 43.0398 24.6401 43.7324 23.3972C44.8561 21.3805 44.6814 18.6255 44.3319 13.1153Z" fill="#C6DFD9"/>
<path d="M20.6078 17.0454C20.6078 16.3768 20.7506 15.7571 21.0362 15.1864C21.3218 14.6157 21.6708 14.1265 22.0834 13.7188C22.4959 13.2949 22.9084 12.8954 23.3209 12.5203C23.7334 12.1289 24.0825 11.7131 24.3681 11.2729C24.6536 10.8163 24.7964 10.3434 24.7964 9.85419C24.7964 9.16932 24.5664 8.64751 24.1063 8.28876C23.6462 7.91371 23.0274 7.72619 22.25 7.72619C21.5043 7.72619 20.8617 7.92187 20.3222 8.31322C19.7828 8.70458 19.3941 9.259 19.1561 9.97649L16.8 8.60674C17.2442 7.44898 17.9582 6.56027 18.9419 5.94063C19.9415 5.30467 21.0679 4.98669 22.3213 4.98669C23.7334 4.98669 24.9551 5.40251 25.9864 6.23414C27.0177 7.06578 27.5333 8.21539 27.5333 9.68297C27.5333 10.3678 27.3905 11.012 27.1049 11.6153C26.8194 12.2023 26.4703 12.7078 26.0578 13.1318C25.6453 13.5558 25.2328 13.9716 24.8202 14.3792C24.4077 14.7706 24.0587 15.1946 23.7731 15.6512C23.4875 16.1077 23.3447 16.5725 23.3447 17.0454H20.6078ZM23.2495 22.1819C22.9005 22.5407 22.48 22.72 21.9882 22.72C21.4963 22.72 21.0759 22.5407 20.7268 22.1819C20.3778 21.8232 20.2032 21.391 20.2032 20.8855C20.2032 20.38 20.3698 19.9479 20.703 19.5892C21.0521 19.2304 21.4805 19.0511 21.9882 19.0511C22.48 19.0511 22.9005 19.2304 23.2495 19.5892C23.5986 19.9479 23.7731 20.38 23.7731 20.8855C23.7731 21.391 23.5986 21.8232 23.2495 22.1819Z" fill="white"/>
<path d="M44.8812 29.5932C42.1957 27.4206 41.6453 23.451 41.7672 21.3587L35.9744 24.7581C37.9013 29.0318 41.6479 30.5238 44.5753 30.857C45.2013 30.9282 45.3711 29.9895 44.8812 29.5932Z" fill="#C6DFD9"/>
<path d="M12.8089 44.1636C13.0419 47.8567 13.1584 49.7033 14.0903 51.0184C14.5523 51.6704 15.1468 52.2174 15.8348 52.6238C17.2227 53.4434 19.0726 53.4064 22.7723 53.3323L46.9885 52.8472C49.9332 52.7882 51.4055 52.7587 52.563 52.1711C53.4994 51.6958 54.2855 50.9699 54.8339 50.0742C55.5118 48.9672 55.6583 47.5019 55.9514 44.5713C56.2998 41.0881 56.474 39.3465 55.8871 37.9927C55.4138 36.9008 54.6092 35.9853 53.5871 35.3758C52.3198 34.62 50.5703 34.5692 47.0712 34.4677L22.8603 33.7648C18.681 33.6434 16.5913 33.5828 15.1103 34.5391C14.3792 35.0112 13.7665 35.6451 13.3196 36.3918C12.4141 37.9044 12.5457 39.9908 12.8089 44.1636Z" fill="#E1D4E8"/>
<path fill-rule="evenodd" clip-rule="evenodd" d="M29.6462 45.4509C29.2972 45.8097 28.8767 45.989 28.3849 45.989C27.8931 45.989 27.4726 45.8097 27.1236 45.4509C26.7745 45.0922 26.6 44.6601 26.6 44.1546C26.6 43.649 26.7666 43.2169 27.0998 42.8582C27.4488 42.4994 27.8772 42.3201 28.3849 42.3201C28.8767 42.3201 29.2972 42.4994 29.6462 42.8582C29.9953 43.2169 30.1698 43.649 30.1698 44.1546C30.1698 44.6601 29.9953 45.0922 29.6462 45.4509ZM35.7129 45.4509C35.3639 45.8097 34.9434 45.989 34.4516 45.989C33.9597 45.989 33.5393 45.8097 33.1902 45.4509C32.8412 45.0922 32.6667 44.6601 32.6667 44.1546C32.6667 43.6491 32.8333 43.2169 33.1664 42.8582C33.5155 42.4994 33.9439 42.3201 34.4516 42.3201C34.9434 42.3201 35.3639 42.4994 35.7129 42.8582C36.062 43.2169 36.2365 43.6491 36.2365 44.1546C36.2365 44.6601 36.062 45.0922 35.7129 45.4509ZM40.5183 45.989C41.0101 45.989 41.4305 45.8097 41.7796 45.4509C42.1287 45.0922 42.3032 44.6601 42.3032 44.1546C42.3032 43.6491 42.1287 43.2169 41.7796 42.8582C41.4305 42.4994 41.0101 42.3201 40.5183 42.3201C40.0105 42.3201 39.5822 42.4994 39.2331 42.8582C38.8999 43.2169 38.7333 43.6491 38.7333 44.1546C38.7333 44.6601 38.9079 45.0922 39.2569 45.4509C39.606 45.8097 40.0264 45.989 40.5183 45.989Z" fill="white"/>
<path d="M13.4483 55.4223C15.3886 53.8527 15.7862 50.9847 15.6981 49.4731L19.8832 51.9291C18.4911 55.0167 15.7843 56.0946 13.6694 56.3353C13.2171 56.3868 13.0944 55.7086 13.4483 55.4223Z" fill="#E1D4E8"/>
</g>
<defs>
<clipPath id="clip0_2_576">
<rect y="0.320068" width="56" height="56" rx="13.0667" fill="white"/>
</clipPath>
</defs>
</svg>
