<svg width="56" height="57" viewBox="0 0 56 57" fill="none" xmlns="http://www.w3.org/2000/svg">
<g clip-path="url(#clip0_2_566)">
<path d="M52.1057 32.0138C51.0219 38.5515 50.48 41.8203 48.7516 44.3279C47.8246 45.6729 46.6635 46.8405 45.3238 47.7751C42.8259 49.5176 39.5602 50.0779 33.0287 51.1985L31.5108 51.4589C21.5066 53.1753 16.5045 54.0335 12.6317 52.2228C10.756 51.3459 9.10455 50.0536 7.80233 48.4438C5.11356 45.1199 4.74389 40.0582 4.00453 29.9348C3.1804 18.6505 2.76833 13.0083 5.28455 9.15151C6.49814 7.29135 8.14746 5.75555 10.0893 4.67748C14.1155 2.44223 19.714 3.25496 30.911 4.8804L32.4351 5.10165C41.573 6.42817 46.142 7.09143 49.1479 9.67095C50.7456 11.042 52.0043 12.7641 52.8256 14.7026C54.3709 18.3497 53.6158 22.9044 52.1057 32.0138Z" fill="#E8F1E8"/>
<path d="M23.5165 55.9779C36.5093 55.9779 47.0421 45.4451 47.0421 32.4523C47.0421 19.4596 36.5093 8.92682 23.5165 8.92682C10.5238 8.92682 -0.00897217 19.4596 -0.00897217 32.4523C-0.00897217 45.4451 10.5238 55.9779 23.5165 55.9779Z" fill="#C6DFD9"/>
<path d="M23.5166 51.2727C33.9109 51.2727 42.3371 42.8465 42.3371 32.4523C42.3371 22.0581 33.9109 13.6319 23.5166 13.6319C13.1224 13.6319 4.69623 22.0581 4.69623 32.4523C4.69623 42.8465 13.1224 51.2727 23.5166 51.2727Z" fill="white"/>
<path d="M23.5167 46.5676C31.3123 46.5676 37.632 40.248 37.632 32.4523C37.632 24.6566 31.3123 18.337 23.5167 18.337C15.721 18.337 9.40137 24.6566 9.40137 32.4523C9.40137 40.248 15.721 46.5676 23.5167 46.5676Z" fill="#FFD9C7"/>
<path d="M23.5166 41.8624C28.7137 41.8624 32.9268 37.6493 32.9268 32.4522C32.9268 27.2551 28.7137 23.042 23.5166 23.042C18.3195 23.042 14.1064 27.2551 14.1064 32.4522C14.1064 37.6493 18.3195 41.8624 23.5166 41.8624Z" fill="white"/>
<path d="M23.5167 37.1575C26.1153 37.1575 28.2219 35.0509 28.2219 32.4524C28.2219 29.8538 26.1153 27.7473 23.5167 27.7473C20.9182 27.7473 18.8116 29.8538 18.8116 32.4524C18.8116 35.0509 20.9182 37.1575 23.5167 37.1575Z" fill="#FFD9C7"/>
<path d="M45.9685 20.4015L37.2506 19.0787L35.9277 10.3608L45.9685 0.320007L47.2913 9.03794L56.0092 10.3608L45.9685 20.4015Z" fill="#F1D8A3"/>
<path d="M23.245 33.0841C22.6621 32.5012 22.6621 31.552 23.245 30.9691L47.8181 6.39597C48.4011 5.81303 50.5124 7.92805 49.9332 8.51099L25.36 33.0841C24.7771 33.6671 23.8279 33.6671 23.245 33.0841Z" fill="#7D92A6"/>
</g>
<defs>
<clipPath id="clip0_2_566">
<rect y="0.320007" width="56" height="56" rx="13.0667" fill="white"/>
</clipPath>
</defs>
</svg>
