<svg width="56" height="57" viewBox="0 0 56 57" fill="none" xmlns="http://www.w3.org/2000/svg">
<path d="M31.6938 5.14757C38.2314 6.23136 41.5003 6.77325 44.0079 8.50167C45.3529 9.42872 46.5205 10.5898 47.4551 11.9295C49.1976 14.4273 49.7579 17.6931 50.8785 24.2246L51.1389 25.7425C52.8553 35.7467 53.7135 40.7488 51.9028 44.6216C51.0259 46.4973 49.7336 48.1488 48.1238 49.451C44.7999 52.1397 39.7382 52.5094 29.6148 53.2488V53.2488C18.3305 54.0729 12.6883 54.485 8.8315 51.9688C6.97134 50.7552 5.43555 49.1058 4.35747 47.164C2.12223 43.1378 2.93495 37.5393 4.56039 26.3423L4.78164 24.8182C6.10816 15.6802 6.77142 11.1113 9.35094 8.10539C10.722 6.50774 12.4441 5.249 14.3826 4.42768C18.0297 2.8824 22.5844 3.63746 31.6938 5.14757V5.14757Z" fill="#FFD9C7"/>
<path d="M35.6495 24.6035C33.8458 26.4073 31.693 28.7509 31.4288 31.801C31.693 34.851 33.8458 37.1947 35.6495 38.9985C38.0923 41.1035 39.639 44.2197 39.639 47.6973C39.639 47.7034 39.6386 47.7094 39.6385 47.7155H39.639V52.6115H16.6817V47.7155H16.6822C16.6822 47.7094 16.6817 47.7034 16.6817 47.6973C16.6817 44.2197 18.2284 41.1035 20.6712 38.9985C22.4749 37.1947 24.6277 34.851 24.8919 31.801C24.6277 28.7509 22.4749 26.4073 20.6712 24.6035C18.2284 22.4985 16.6817 19.3823 16.6817 15.9047V10.9351H39.639V15.9047C39.639 19.3823 38.0923 22.4985 35.6495 24.6035V24.6035Z" fill="#DFF3FD"/>
<path d="M28.1602 46.8117C29.0146 46.8117 33.3577 51.5388 33.3577 51.5388H22.9627C22.9627 51.5388 27.3058 46.8117 28.1602 46.8117ZM27.7014 40.5352C27.6331 40.5343 27.5653 40.547 27.5019 40.5726C27.4385 40.5981 27.3808 40.636 27.3321 40.684C27.2835 40.732 27.2449 40.7892 27.2185 40.8522C27.1922 40.9153 27.1786 40.983 27.1786 41.0513C27.1786 41.1197 27.1922 41.1873 27.2185 41.2504C27.2449 41.3134 27.2835 41.3706 27.3321 41.4186C27.3808 41.4666 27.4385 41.5045 27.5019 41.53C27.5653 41.5556 27.6331 41.5683 27.7014 41.5674C27.8371 41.5656 27.9667 41.5105 28.062 41.4139C28.1574 41.3173 28.2108 41.187 28.2108 41.0513C28.2108 40.9156 28.1574 40.7853 28.062 40.6887C27.9667 40.5922 27.8371 40.537 27.7014 40.5352V40.5352ZM28.2175 42.3703C28.1492 42.3694 28.0814 42.3821 28.018 42.4076C27.9546 42.4332 27.8969 42.4711 27.8483 42.5191C27.7996 42.5671 27.761 42.6243 27.7346 42.6873C27.7083 42.7504 27.6947 42.818 27.6947 42.8864C27.6947 42.9547 27.7083 43.0224 27.7346 43.0854C27.761 43.1485 27.7996 43.2057 27.8483 43.2537C27.8969 43.3017 27.9546 43.3396 28.018 43.3651C28.0814 43.3906 28.1492 43.4033 28.2175 43.4025C28.3532 43.4007 28.4828 43.3455 28.5781 43.2489C28.6735 43.1524 28.7269 43.0221 28.7269 42.8864C28.7269 42.7507 28.6735 42.6204 28.5781 42.5238C28.4828 42.4272 28.3532 42.3721 28.2175 42.3703V42.3703ZM26.967 45.4508C26.8987 45.4499 26.8308 45.4626 26.7674 45.4882C26.7041 45.5137 26.6464 45.5516 26.5977 45.5996C26.5491 45.6476 26.5105 45.7048 26.4841 45.7678C26.4577 45.8309 26.4442 45.8986 26.4442 45.9669C26.4442 46.0353 26.4577 46.1029 26.4841 46.166C26.5105 46.229 26.5491 46.2862 26.5977 46.3342C26.6464 46.3822 26.7041 46.4201 26.7674 46.4456C26.8308 46.4712 26.8987 46.4839 26.967 46.483C27.1027 46.4812 27.2323 46.4261 27.3276 46.3295C27.423 46.2329 27.4764 46.1026 27.4764 45.9669C27.4764 45.8312 27.423 45.7009 27.3276 45.6043C27.2323 45.5078 27.1027 45.4526 26.967 45.4508V45.4508ZM28.5015 38.1828C28.4332 38.1819 28.3654 38.1946 28.302 38.2202C28.2386 38.2457 28.1809 38.2836 28.1323 38.3316C28.0836 38.3796 28.045 38.4368 28.0186 38.4998C27.9923 38.5629 27.9787 38.6306 27.9787 38.6989C27.9787 38.7672 27.9923 38.8349 28.0186 38.898C28.045 38.961 28.0836 39.0182 28.1323 39.0662C28.1809 39.1142 28.2386 39.1521 28.302 39.1776C28.3654 39.2032 28.4332 39.2159 28.5015 39.215C28.6373 39.2132 28.7668 39.1581 28.8621 39.0615C28.9575 38.9649 29.0109 38.8346 29.0109 38.6989C29.0109 38.5632 28.9575 38.4329 28.8621 38.3363C28.7668 38.2397 28.6373 38.1846 28.5015 38.1828V38.1828ZM19.6182 19.8457C19.6182 21.9881 22.0414 23.9079 23.5464 25.2048C24.6576 26.316 26.5575 28.4188 26.5575 31.0587C26.5575 31.1471 26.5617 31.2318 26.5686 31.3139C26.6244 33.4704 26.9006 35.8753 27.5856 36.7335C27.5307 36.8007 27.4936 36.8808 27.4778 36.9661C27.462 37.0515 27.468 37.1395 27.4952 37.222C27.5225 37.3044 27.5701 37.3787 27.6336 37.4378C27.6972 37.497 27.7747 37.5392 27.8589 37.5604C27.943 37.5817 28.0312 37.5814 28.1153 37.5595C28.1993 37.5377 28.2765 37.4949 28.3396 37.4353C28.4028 37.3757 28.4498 37.3011 28.4765 37.2185C28.5031 37.1358 28.5085 37.0478 28.4921 36.9625C29.4119 36.3969 29.7308 33.4579 29.7606 30.8691C29.9179 28.6404 31.7121 26.2667 32.7741 25.2048C34.279 23.9079 36.7023 21.9882 36.7023 19.8457C36.7023 18.8034 19.6182 18.8034 19.6182 19.8457V19.8457ZM28.7532 44.4675C28.6849 44.4667 28.6171 44.4793 28.5537 44.5049C28.4903 44.5304 28.4326 44.5683 28.3839 44.6163C28.3353 44.6643 28.2967 44.7215 28.2703 44.7846C28.244 44.8476 28.2304 44.9153 28.2304 44.9836C28.2304 45.052 28.244 45.1196 28.2703 45.1827C28.2967 45.2457 28.3353 45.3029 28.3839 45.3509C28.4326 45.3989 28.4903 45.4368 28.5537 45.4623C28.6171 45.4879 28.6849 45.5006 28.7532 45.4997C28.8889 45.4979 29.0185 45.4428 29.1138 45.3462C29.2092 45.2496 29.2626 45.1193 29.2626 44.9836C29.2626 44.8479 29.2092 44.7176 29.1138 44.621C29.0185 44.5245 28.8889 44.4693 28.7532 44.4675V44.4675Z" fill="#FEEBC3"/>
<path d="M39.639 12.2166H16.6817C15.9738 12.2166 15.4 11.6428 15.4 10.935C15.4 10.2271 15.9738 9.65332 16.6817 9.65332H39.639C40.3469 9.65332 40.9207 10.2271 40.9207 10.935C40.9207 11.6428 40.3468 12.2166 39.639 12.2166V12.2166ZM40.9207 52.6115C40.9207 51.9036 40.3469 51.3299 39.639 51.3299H16.6817C15.9738 51.3299 15.4 51.9036 15.4 52.6115C15.4 53.3193 15.9738 53.893 16.6817 53.893H39.639C40.3468 53.893 40.9207 53.3193 40.9207 52.6115V52.6115Z" fill="#D0976E"/>
<path d="M36.7023 19.5403C36.7023 20.3334 32.8779 20.9764 28.1602 20.9764C23.4425 20.9764 19.6182 20.3334 19.6182 19.5403C19.6182 18.7471 23.4425 18.1041 28.1602 18.1041C32.8779 18.1041 36.7023 18.7471 36.7023 19.5403Z" fill="#F1D8A3"/>
</svg>
