<svg width="56" height="57" viewBox="0 0 56 57" fill="none" xmlns="http://www.w3.org/2000/svg">
<g clip-path="url(#clip0_2_571)">
<path d="M22.1052 53.2078C13.526 51.354 9.23636 50.4271 6.39473 47.5823C5.90208 47.0892 5.44796 46.559 5.03633 45.9964C2.66205 42.7513 2.40441 38.3545 1.88914 29.5608C1.25858 18.7998 0.943304 13.4193 3.65434 9.53672C4.11639 8.875 4.63623 8.25559 5.20775 7.68575C8.56116 4.34226 13.8953 3.7216 24.5636 2.48028C38.5776 0.849661 45.5846 0.0343532 50.0565 3.68481C50.8058 4.29647 51.4879 4.98607 52.0914 5.74198C55.6929 10.2533 54.7989 17.27 53.0108 31.3032C51.4614 43.4641 50.6867 49.5445 46.7392 52.9601C46.0668 53.5419 45.3392 54.0565 44.5667 54.4967C40.0314 57.0813 34.056 55.7901 22.1052 53.2078Z" fill="#FFF4DE"/>
<rect x="1.40002" y="7.32001" width="53.2" height="35.9333" rx="5.6" fill="#D7DCEA"/>
<rect x="4.66669" y="10.5867" width="46.6667" height="29.4" rx="3.26667" fill="#FFF9EE"/>
<mask id="mask0_2_571" style="mask-type:alpha" maskUnits="userSpaceOnUse" x="4" y="10" width="48" height="30">
<rect x="4.66669" y="10.5867" width="46.6667" height="29.4" rx="3.26667" fill="white"/>
</mask>
<g mask="url(#mask0_2_571)">
<path fill-rule="evenodd" clip-rule="evenodd" d="M34.183 28.8829C35.6054 28.8498 35.7267 23.9155 34.8998 24.0037H34.8942C35.2361 18.4961 34.9163 16.4011 27.9587 16.4011C21.0011 16.4011 20.8081 18.689 21.1058 24.0037C20.2623 23.921 20.5104 28.8829 21.795 28.8829C22.5968 30.6447 23.857 32.2232 25.5604 33.0133V36.2705C16.8121 37.0138 16.8065 40.8996 16.8005 45.0218C16.8004 45.1185 16.8002 45.2152 16.8 45.3121V46.117H16.811C20.152 48.2892 24.0278 49.4304 28.0027 49.4304C31.9777 49.4304 35.859 48.2892 39.2 46.1115V45.8579C39.198 45.5885 39.1984 45.3194 39.1987 45.0512C39.2045 40.9164 39.21 37.0108 30.4396 36.2705V33.0131C32.1347 32.223 33.3812 30.6446 34.183 28.8829Z" fill="#FFDBB7"/>
<path fill-rule="evenodd" clip-rule="evenodd" d="M16.8 46.1225V45.312C16.811 41.0834 16.607 37.0313 25.5604 36.2704C27.2144 37.6818 28.8352 37.6653 30.4285 36.2704C39.7678 37.0588 39.1559 41.4363 39.189 45.8578V46.1115C35.848 48.2892 31.9667 49.4304 27.9917 49.4304C24.0167 49.4304 20.141 48.2892 16.8 46.117V46.1225Z" fill="#FFD9C7"/>
<path fill-rule="evenodd" clip-rule="evenodd" d="M28.0138 37.1415L30.4286 35.2836L30.9744 36.3256L30.3569 39.7603L28.0138 38.0677L25.6321 39.7603L25.0201 36.3256L25.5604 35.2836L28.0138 37.1415Z" fill="white"/>
<path fill-rule="evenodd" clip-rule="evenodd" d="M33.2126 16.8971C36.0684 19.0418 37.331 23.8989 35.3186 26.9366C35.3517 26.0049 34.9603 25.0787 34.1443 24.8968C30.9577 24.18 24.5184 22.1291 23.6087 20.4642C23.333 22.2725 22.5502 24.6211 21.4144 24.9629C20.9348 25.1063 20.6646 25.9994 20.7253 27.0303C18.9942 23.4854 19.6171 19.367 22.8975 16.9027C21.1719 14.0689 23.4819 11.8195 28.0578 11.8195C32.6337 11.8195 34.9493 14.0689 33.2126 16.8971Z" fill="#D0976E"/>
</g>
<rect x="14.6429" y="46.0533" width="26.1333" height="3.48444" rx="1.74222" fill="#D7DCEA"/>
<rect x="18.6667" y="43.2534" width="18.2" height="2.8" fill="#C8D1E9"/>
</g>
<defs>
<clipPath id="clip0_2_571">
<rect y="0.320007" width="56" height="56" rx="13.0667" fill="white"/>
</clipPath>
</defs>
</svg>
