<svg width="20" height="21" viewBox="0 0 20 21" fill="none" xmlns="http://www.w3.org/2000/svg">
<path fill-rule="evenodd" clip-rule="evenodd" d="M10 18.5273C14.4183 18.5273 18 14.9456 18 10.5273C18 6.10907 14.4183 2.52734 10 2.52734C5.58172 2.52734 2 6.10907 2 10.5273C2 14.9456 5.58172 18.5273 10 18.5273ZM20 10.5273C20 16.0502 15.5228 20.5273 10 20.5273C4.47715 20.5273 0 16.0502 0 10.5273C0 5.0045 4.47715 0.527344 10 0.527344C15.5228 0.527344 20 5.0045 20 10.5273Z" fill="#BFA8EF"/>
<path d="M12 8.52734C12 9.63191 11.1046 10.5273 10 10.5273C8.89543 10.5273 8 9.63191 8 8.52734C8 7.42277 8.89543 6.52734 10 6.52734C11.1046 6.52734 12 7.42277 12 8.52734Z" stroke="#BFA8EF" stroke-width="2"/>
<path d="M6 15.2594C7.09804 13.7594 11.1765 12.2594 14 15.2594" stroke="#BFA8EF" stroke-width="2" stroke-linecap="round"/>
</svg>
