<svg width="32" height="32" viewBox="0 0 32 32" fill="none" xmlns="http://www.w3.org/2000/svg">
<rect width="32" height="32" rx="10" fill="#BECCBD"/>
<path d="M8.00321 24L9.08481 20.0256C8.37212 18.8039 7.99769 17.4144 8.00001 16C8.00001 11.5816 11.5816 8 16 8C20.4184 8 24 11.5816 24 16C24 20.4184 20.4184 24 16 24C14.5862 24.0023 13.1973 23.6281 11.976 22.916L8.00321 24ZM13.1128 12.2464C13.0095 12.2528 12.9085 12.28 12.816 12.3264C12.7292 12.3755 12.65 12.437 12.5808 12.5088C12.4848 12.5992 12.4304 12.6776 12.372 12.7536C12.0763 13.1384 11.9173 13.6107 11.92 14.096C11.9216 14.488 12.024 14.8696 12.184 15.2264C12.5112 15.948 13.0496 16.712 13.7608 17.42C13.932 17.5904 14.0992 17.7616 14.2792 17.9208C15.1619 18.698 16.2138 19.2584 17.3512 19.5576L17.8064 19.6272C17.9544 19.6352 18.1024 19.624 18.2512 19.6168C18.4842 19.6048 18.7117 19.5417 18.9176 19.432C19.0224 19.378 19.1246 19.3193 19.224 19.256C19.224 19.256 19.2584 19.2336 19.324 19.184C19.432 19.104 19.4984 19.0472 19.588 18.9536C19.6544 18.8848 19.712 18.804 19.756 18.712C19.8184 18.5816 19.8808 18.3328 19.9064 18.1256C19.9256 17.9672 19.92 17.8808 19.9176 17.8272C19.9144 17.7416 19.8432 17.6528 19.7656 17.6152L19.3 17.4064C19.3 17.4064 18.604 17.1032 18.1792 16.9096C18.1344 16.8901 18.0864 16.879 18.0376 16.8768C17.9829 16.8712 17.9276 16.8773 17.8754 16.8949C17.8232 16.9124 17.7754 16.9409 17.7352 16.9784V16.9768C17.7312 16.9768 17.6776 17.0224 17.0992 17.7232C17.066 17.7678 17.0203 17.8015 16.9678 17.82C16.9154 17.8386 16.8587 17.8411 16.8048 17.8272C16.7527 17.8133 16.7016 17.7956 16.652 17.7744C16.5528 17.7328 16.5184 17.7168 16.4504 17.6872L16.4464 17.6856C15.9887 17.4858 15.565 17.2159 15.1904 16.8856C15.0896 16.7976 14.996 16.7016 14.9 16.6088C14.5853 16.3074 14.311 15.9664 14.084 15.5944L14.0368 15.5184C14.0029 15.4673 13.9755 15.4122 13.9552 15.3544C13.9248 15.2368 14.004 15.1424 14.004 15.1424C14.004 15.1424 14.1984 14.9296 14.2888 14.8144C14.3641 14.7187 14.4343 14.6191 14.4992 14.516C14.5936 14.364 14.6232 14.208 14.5736 14.0872C14.3496 13.54 14.1176 12.9952 13.8792 12.4544C13.832 12.3472 13.692 12.2704 13.5648 12.2552C13.5216 12.2504 13.4784 12.2456 13.4352 12.2424C13.3278 12.2371 13.2201 12.2389 13.1128 12.2464Z" fill="white"/>
</svg>
