<svg width="32" height="32" viewBox="0 0 32 32" fill="none" xmlns="http://www.w3.org/2000/svg">
<rect width="32" height="32" rx="10" fill="#A4CFDC"/>
<path d="M11.267 17.5327L7.65363 16.3799C7.65363 16.3799 7.22179 16.2083 7.36084 15.8193C7.38946 15.7391 7.44721 15.6709 7.61995 15.5536C8.42058 15.0071 22.4391 10.0735 22.4391 10.0735C22.4391 10.0735 22.8349 9.94295 23.0683 10.0298C23.1261 10.0473 23.1781 10.0795 23.2189 10.1231C23.2598 10.1668 23.2881 10.2202 23.3009 10.2781C23.3262 10.3802 23.3367 10.4854 23.3323 10.5904C23.3312 10.6812 23.3199 10.7654 23.3114 10.8975C23.226 12.2463 20.671 22.3133 20.671 22.3133C20.671 22.3133 20.5181 22.9024 19.9704 22.9226C19.8358 22.9268 19.7017 22.9045 19.5761 22.8569C19.4505 22.8094 19.336 22.7375 19.2394 22.6457C18.1646 21.7404 14.4497 19.2959 13.6289 18.7583C13.6103 18.746 13.5948 18.7299 13.5831 18.7111C13.5715 18.6924 13.5641 18.6714 13.5615 18.6496C13.55 18.5929 13.6129 18.5227 13.6129 18.5227C13.6129 18.5227 20.0815 12.8929 20.2536 12.3019C20.2669 12.2561 20.2166 12.2335 20.149 12.2536C19.7193 12.4083 12.2716 17.0136 11.4497 17.5218C11.3905 17.5393 11.328 17.5431 11.267 17.5327V17.5327Z" fill="white"/>
</svg>
