<svg width="32" height="32" viewBox="0 0 32 32" fill="none" xmlns="http://www.w3.org/2000/svg">
<rect width="32" height="32" rx="10" fill="#A8D1EF"/>
<path fill-rule="evenodd" clip-rule="evenodd" d="M25.5411 10.8126C25.6801 10.3442 25.5411 10 24.8794 10H22.6914C22.135 10 21.8786 10.2973 21.7395 10.6252C21.7395 10.6252 20.6268 13.3652 19.0505 15.145C18.5406 15.6602 18.3087 15.8242 18.0306 15.8242C17.8915 15.8242 17.6902 15.6602 17.6902 15.1919V10.8126C17.6902 10.2505 17.5287 10 17.0651 10H13.6268C13.2791 10 13.07 10.2609 13.07 10.5081C13.07 11.0409 13.8581 11.1638 13.9393 12.6626V15.9179C13.9393 16.6316 13.8118 16.761 13.5336 16.761C12.7919 16.761 10.9876 14.0087 9.91744 10.8594C9.70773 10.2473 9.49738 10 8.93819 10H6.75018C6.12504 10 6 10.2973 6 10.6252C6 11.2107 6.74178 14.1146 9.45387 17.9553C11.2619 20.5782 13.8093 22 16.1274 22C17.5182 22 17.6902 21.6842 17.6902 21.1403V19.1579C17.6902 18.5263 17.822 18.4003 18.2624 18.4003C18.5869 18.4003 19.1433 18.5642 20.4414 19.8288C21.9249 21.3276 22.1695 22 23.004 22H25.192C25.8171 22 26.1297 21.6842 25.9494 21.061C25.752 20.4399 25.0437 19.5388 24.1039 18.4705C23.5939 17.8616 22.8289 17.2059 22.5971 16.878C22.2726 16.4565 22.3653 16.2691 22.5971 15.8945C22.5971 15.8945 25.2629 12.1006 25.5411 10.8126V10.8126Z" fill="white"/>
</svg>
