<svg width="160" height="16" viewBox="0 0 160 16" fill="none" xmlns="http://www.w3.org/2000/svg">
<g clip-path="url(#clip0_2_317)">
<path d="M15.3201 3.30689C15.6237 2.31029 16.2082 1.50999 17.0735 0.905997C17.9388 0.301999 19.0622 0 20.4437 0C21.2939 0 22.0226 0.1057 22.6298 0.3171C23.2371 0.513399 23.7305 0.785198 24.11 1.1325C24.5047 1.47979 24.7932 1.9026 24.9753 2.40089C25.1575 2.88409 25.2486 3.40504 25.2486 3.96374V8.81082C25.2486 9.33932 25.3549 9.71681 25.5674 9.94331C25.7951 10.1547 26.0912 10.2604 26.4555 10.2604H27.0931L27.1614 11.5515C26.7971 11.6723 26.3872 11.7327 25.9318 11.7327C25.3549 11.7327 24.8918 11.5515 24.5427 11.1891C24.2087 10.8267 24.0265 10.2831 23.9961 9.55826C23.4344 10.2831 22.7437 10.8342 21.9239 11.2117C21.1041 11.5892 20.1249 11.778 18.9863 11.778C17.6352 11.778 16.6105 11.4835 15.9121 10.8946C15.229 10.3057 14.8874 9.52052 14.8874 8.53902C14.8874 8.05582 14.9785 7.61037 15.1607 7.20267C15.3428 6.77988 15.6313 6.41747 16.026 6.11548C16.4359 5.79838 16.9596 5.54923 17.5972 5.36803C18.25 5.17173 19.0471 5.05848 19.9883 5.02828C21.2332 4.98298 22.144 4.83953 22.7209 4.59793C23.313 4.35633 23.609 3.99393 23.609 3.51074C23.609 2.96714 23.3661 2.49149 22.8803 2.08379C22.3945 1.661 21.5899 1.4496 20.4665 1.4496C19.4797 1.4496 18.7055 1.63834 18.1438 2.01584C17.5821 2.37824 17.1949 2.86144 16.9824 3.46544L15.3201 3.30689ZM23.7001 5.41333C23.0321 6.00223 21.7645 6.33443 19.8972 6.40993C19.2292 6.44013 18.6751 6.51563 18.2349 6.63643C17.8098 6.74213 17.4682 6.89313 17.2101 7.08942C16.952 7.27062 16.7699 7.48202 16.6636 7.72362C16.5573 7.96522 16.5042 8.22947 16.5042 8.51637C16.5042 9.04487 16.7243 9.48277 17.1646 9.83006C17.6048 10.1774 18.3032 10.351 19.2596 10.351C19.9579 10.351 20.5804 10.268 21.1269 10.1019C21.6886 9.92066 22.1592 9.67906 22.5387 9.37706C22.9183 9.07507 23.2067 8.71267 23.4041 8.28987C23.6014 7.86707 23.7001 7.41407 23.7001 6.93088V5.41333Z" fill="#131313"/>
<path d="M34.1615 5.07358C34.7991 5.07358 35.2773 4.92258 35.5961 4.62058C35.9149 4.31858 36.0743 3.91089 36.0743 3.39749C36.0743 2.82369 35.8238 2.35559 35.3228 1.99319C34.837 1.6308 34.1007 1.4496 33.114 1.4496C32.2486 1.4496 31.5427 1.6157 30.9962 1.94789C30.4648 2.26499 30.0474 2.68779 29.7437 3.21629L28.1497 2.85389C28.59 1.96299 29.22 1.2684 30.0398 0.770098C30.8595 0.256699 31.9071 0 33.1823 0C34.6397 0 35.7555 0.309549 36.5297 0.928647C37.304 1.53264 37.6911 2.32539 37.6911 3.30689C37.6911 3.86559 37.5697 4.34878 37.3268 4.75648C37.0839 5.14908 36.7499 5.45108 36.3248 5.66248C36.9169 5.85878 37.3647 6.18343 37.6683 6.63643C37.9872 7.08943 38.1466 7.64057 38.1466 8.28987C38.1466 8.77307 38.0403 9.22606 37.8277 9.64886C37.6304 10.0717 37.3192 10.4416 36.8941 10.7587C36.4842 11.0758 35.9604 11.325 35.3228 11.5062C34.7004 11.6874 33.9717 11.778 33.1367 11.778C30.4497 11.778 28.6507 10.7663 27.7398 8.74287L29.4022 8.42577C29.7513 9.05997 30.2295 9.53561 30.8368 9.85271C31.4592 10.1698 32.241 10.3284 33.1823 10.3284C34.3209 10.3284 35.1634 10.1321 35.71 9.73946C36.2565 9.34687 36.5297 8.84102 36.5297 8.22192C36.5297 7.69342 36.3476 7.27062 35.9832 6.95353C35.6189 6.63643 35.0496 6.47788 34.2753 6.47788H31.11V5.07358H34.1615Z" fill="#131313"/>
<path d="M46.39 0.2265C47.6804 0.2265 48.6368 0.520949 49.2592 1.10985C49.8817 1.68364 50.1929 2.40089 50.1929 3.26159C50.1929 3.83539 50.0562 4.33368 49.783 4.75648C49.5249 5.17928 49.1606 5.49638 48.6899 5.70778C49.3275 5.88898 49.8133 6.20608 50.1473 6.65908C50.4965 7.11207 50.6711 7.67077 50.6711 8.33517C50.6711 9.30157 50.3219 10.0792 49.6236 10.6681C48.9404 11.257 47.855 11.5515 46.3672 11.5515H40.6287V0.2265H46.39ZM42.2455 10.1472H46.4583C47.354 10.1472 48.0068 9.98106 48.4167 9.64886C48.8417 9.31666 49.0543 8.87122 49.0543 8.31252C49.0543 7.76892 48.8645 7.33857 48.485 7.02148C48.1206 6.68928 47.4906 6.52318 46.5949 6.52318H42.2455V10.1472ZM42.2455 5.11888H46.4355C47.1339 5.11888 47.6652 4.96033 48.0295 4.64323C48.3939 4.32613 48.5761 3.90334 48.5761 3.37484C48.5761 2.84634 48.3939 2.42354 48.0295 2.10644C47.6652 1.78934 47.0959 1.63079 46.3217 1.63079H42.2455V5.11888Z" fill="#131313"/>
<path d="M62.1481 11.5515V2.74064L54.4057 11.5515H53.0166V0.2265H54.6334V9.03732L62.3758 0.2265H63.7649V11.5515H62.1481Z" fill="#131313"/>
<path d="M76.0618 0.2265V1.69875H71.5757V11.5515H69.9589V1.69875H65.4728V0.2265H76.0618Z" fill="#131313"/>
<path d="M86.9126 11.5515V2.74064L79.1702 11.5515H77.7811V0.2265H79.3979V9.03732L87.1403 0.2265H88.5294V11.5515H86.9126Z" fill="#131313"/>
<path d="M91.8769 6.40993C91.9831 7.58772 92.4158 8.53902 93.1749 9.26382C93.9491 9.97351 94.9511 10.3284 96.1808 10.3284C97.0916 10.3284 97.8735 10.1547 98.5263 9.80741C99.1942 9.44501 99.7256 8.93917 100.12 8.28987L101.532 8.92407C100.986 9.86026 100.265 10.57 99.3688 11.0532C98.4883 11.5364 97.418 11.778 96.158 11.778C95.2775 11.778 94.4729 11.6421 93.7442 11.3703C93.0155 11.0834 92.393 10.6832 91.8769 10.1698C91.3607 9.64131 90.9584 9.02222 90.67 8.31252C90.3815 7.58772 90.2373 6.77987 90.2373 5.88898C90.2373 5.02828 90.3815 4.23553 90.67 3.51074C90.9584 2.78594 91.3607 2.16684 91.8769 1.65345C92.4082 1.12495 93.0307 0.717248 93.7442 0.430349C94.4729 0.14345 95.2699 0 96.1352 0C96.9702 0 97.7292 0.1359 98.4124 0.407699C99.0955 0.679498 99.68 1.06455 100.166 1.56285C100.667 2.04604 101.046 2.62739 101.304 3.30689C101.578 3.98639 101.714 4.72628 101.714 5.52658V6.40993H91.8769ZM96.0669 1.4496C94.8979 1.4496 93.9491 1.7818 93.2204 2.44619C92.5069 3.11059 92.0666 3.97129 91.8996 5.02828H100.075C99.9988 3.91089 99.5965 3.03509 98.8678 2.40089C98.1391 1.7667 97.2055 1.4496 96.0669 1.4496Z" fill="#131313"/>
<path d="M125.068 6.40993C125.174 7.58772 125.607 8.53902 126.366 9.26381C127.14 9.97351 128.142 10.3284 129.372 10.3284C130.283 10.3284 131.065 10.1547 131.718 9.80741C132.385 9.44501 132.917 8.93917 133.312 8.28987L134.723 8.92407C134.177 9.86026 133.456 10.57 132.56 11.0532C131.68 11.5364 130.609 11.778 129.349 11.778C128.469 11.778 127.664 11.6421 126.935 11.3703C126.207 11.0834 125.584 10.6832 125.068 10.1698C124.552 9.64131 124.15 9.02221 123.861 8.31252C123.573 7.58772 123.429 6.77987 123.429 5.88898C123.429 5.02828 123.573 4.23553 123.861 3.51074C124.15 2.78594 124.552 2.16684 125.068 1.65345C125.599 1.12495 126.222 0.717249 126.935 0.43035C127.664 0.143451 128.461 0 129.326 0C130.161 0 130.92 0.1359 131.604 0.407699C132.287 0.679498 132.871 1.06455 133.357 1.56285C133.858 2.04604 134.238 2.62739 134.496 3.30689C134.769 3.98639 134.906 4.72628 134.906 5.52658V6.40993H125.068ZM129.258 1.4496C128.089 1.4496 127.14 1.78179 126.412 2.44619C125.698 3.11059 125.258 3.97129 125.091 5.02828H133.266C133.19 3.91089 132.788 3.03509 132.059 2.40089C131.33 1.76669 130.397 1.4496 129.258 1.4496Z" fill="#131313"/>
<path d="M138.489 0.2265V3.48809C138.489 4.71118 138.785 5.62473 139.377 6.22873C139.969 6.83272 140.834 7.13472 141.973 7.13472C142.565 7.13472 143.089 7.04412 143.544 6.86292C144.015 6.66662 144.41 6.40237 144.728 6.07018C145.047 5.73798 145.282 5.34538 145.434 4.89238C145.601 4.43938 145.685 3.94864 145.685 3.42014V0.2265H147.302V11.5515H145.685V6.88557C145.275 7.38387 144.744 7.79157 144.091 8.10867C143.438 8.42577 142.679 8.58432 141.814 8.58432C140.25 8.58432 139.035 8.15397 138.17 7.29328C137.305 6.41748 136.872 5.15663 136.872 3.51074V0.2265H138.489Z" fill="#131313"/>
<path d="M158.383 11.325V2.51414L150.641 11.325H149.252V0H150.868V8.81082L158.611 0H160V11.325H158.383Z" fill="#131313"/>
<path fill-rule="evenodd" clip-rule="evenodd" d="M1.62672 6.21325L1.67442 10.0589L1.62877 6.25404L1.62672 6.08388V6.21325Z" fill="#FF9933"/>
<path fill-rule="evenodd" clip-rule="evenodd" d="M1.62672 6.21325L1.67442 10.0589L1.62877 6.25404L1.62672 6.08388V6.21325Z" fill="#FF9933"/>
<path fill-rule="evenodd" clip-rule="evenodd" d="M6.43918 -3.58537e-06C5.29444 -3.58537e-06 3.91923 0.289741 3.27532 0.588023C2.6314 0.886305 1.64557 1.50535 0.890434 2.64612C0.328501 3.49502 -1.99809e-06 5.3349 5.93823e-07 6.17427L2.54511e-07 8.55349L0.0188472 12.7875L0.0188472 14.4858C0.0188471 15.3243 0.886465 15.8437 1.61069 15.5259C1.75628 15.462 1.87128 15.3471 1.97559 15.2272L2.67595 14.4215L4.09418 12.7901L4.32317 12.5266C4.50234 12.392 4.73349 12.3648 4.85086 12.3603C4.89775 12.3585 4.92649 12.3603 4.92649 12.3603H6.41533C7.28979 12.3603 8.10065 12.2113 8.84791 11.9134C9.59518 11.5998 10.2391 11.1764 10.7797 10.6433C11.3361 10.0945 11.7654 9.45154 12.0675 8.71455C12.3696 7.96188 12.5206 7.13864 12.5206 6.24484C12.5206 5.35104 12.3934 4.39844 12.0914 3.64576C11.8052 2.89309 11.3918 2.25018 10.8512 1.71703C10.3106 1.16821 9.66672 0.74483 8.91946 0.446897C8.1722 0.148963 7.34544 -3.58537e-06 6.43918 -3.58537e-06ZM8.08975 10.4941C7.53328 10.7136 6.91321 10.8234 6.22955 10.8234C6.22955 10.8234 5.38847 10.8205 4.46776 10.8234C4.46776 10.8234 3.938 10.8289 3.70043 11.0418C3.46286 11.2548 2.86197 11.9854 2.35281 12.6126C2.14156 12.8729 1.95172 13.1067 1.82045 13.2627C1.6311 13.5584 1.6311 13.178 1.6311 13.178L1.67442 10.0589L1.62672 6.21325V6.08388C1.62672 5.42529 1.686 4.7667 1.89269 4.2022C2.11528 3.63769 2.46938 3.19863 2.86686 2.79093C3.26434 2.36755 3.74927 2.0461 4.32164 1.82657C4.89401 1.59136 5.53793 1.47375 6.2534 1.47375C6.95296 1.47375 7.58098 1.58352 8.13745 1.80305C8.70982 2.02258 9.19475 2.33619 9.59223 2.74389C9.98971 3.13591 10.2918 3.62201 10.4985 4.2022C10.7211 4.7667 10.7608 5.49138 10.7608 6.18133C10.7608 6.87128 10.6972 7.53043 10.4746 8.09493C10.252 8.65944 9.94201 9.14554 9.54453 9.55324C9.14705 9.94526 8.66213 10.2589 8.08975 10.4941Z" fill="#FF9933"/>
<path fill-rule="evenodd" clip-rule="evenodd" d="M1.62672 6.21325L1.67442 10.0589L1.62877 6.25404L1.62672 6.08388V6.21325Z" fill="#FF9933"/>
<path fill-rule="evenodd" clip-rule="evenodd" d="M110.325 6.21325L110.373 10.0589L110.327 6.25404L110.325 6.08388V6.21325Z" fill="#FF6666"/>
<path fill-rule="evenodd" clip-rule="evenodd" d="M110.325 6.21325L110.373 10.0589L110.327 6.25404L110.325 6.08388V6.21325Z" fill="#FF6666"/>
<path fill-rule="evenodd" clip-rule="evenodd" d="M115.138 -3.58537e-06C113.993 -3.58537e-06 112.618 0.289741 111.974 0.588023C111.33 0.886305 110.344 1.50535 109.589 2.64612C109.027 3.49502 108.698 5.3349 108.698 6.17427L108.698 8.55349L108.717 12.7875L108.717 14.4858C108.717 15.3243 109.585 15.8437 110.309 15.5259C110.455 15.462 110.57 15.3471 110.674 15.2272L111.374 14.4215L112.793 12.7901L113.022 12.5266C113.201 12.392 113.432 12.3648 113.549 12.3603C113.596 12.3585 113.625 12.3603 113.625 12.3603H115.114C115.988 12.3603 116.799 12.2113 117.546 11.9134C118.294 11.5998 118.938 11.1764 119.478 10.6433C120.035 10.0945 120.464 9.45154 120.766 8.71455C121.068 7.96188 121.219 7.13864 121.219 6.24484C121.219 5.35104 121.092 4.39844 120.79 3.64576C120.504 2.89309 120.09 2.25018 119.55 1.71703C119.009 1.16821 118.365 0.74483 117.618 0.446897C116.871 0.148963 116.044 -3.58537e-06 115.138 -3.58537e-06ZM116.788 10.4941C116.232 10.7136 115.612 10.8234 114.928 10.8234C114.928 10.8234 114.087 10.8205 113.166 10.8234C113.166 10.8234 112.636 10.8289 112.399 11.0418C112.161 11.2548 111.56 11.9854 111.051 12.6126C110.84 12.8729 110.65 13.1067 110.519 13.2627C110.33 13.5584 110.33 13.178 110.33 13.178L110.373 10.0589L110.325 6.21325V6.08388C110.325 5.42529 110.384 4.7667 110.591 4.2022C110.814 3.63769 111.168 3.19863 111.565 2.79093C111.963 2.36755 112.448 2.0461 113.02 1.82657C113.592 1.59136 114.236 1.47375 114.952 1.47375C115.651 1.47375 116.279 1.58352 116.836 1.80305C117.408 2.02258 117.893 2.33619 118.291 2.74389C118.688 3.13591 118.99 3.62201 119.197 4.2022C119.419 4.7667 119.459 5.49138 119.459 6.18133C119.459 6.87128 119.396 7.53043 119.173 8.09493C118.95 8.65944 118.64 9.14554 118.243 9.55324C117.845 9.94526 117.361 10.2589 116.788 10.4941Z" fill="#FF6666"/>
<path fill-rule="evenodd" clip-rule="evenodd" d="M110.325 6.21325L110.373 10.0589L110.327 6.25404L110.325 6.08388V6.21325Z" fill="#FF6666"/>
</g>
<defs>
<clipPath id="clip0_2_317">
<rect width="160" height="16" fill="white"/>
</clipPath>
</defs>
</svg>
