<svg width="272" height="188" viewBox="0 0 272 188" fill="none" xmlns="http://www.w3.org/2000/svg">
<g clip-path="url(#clip0_39_24229)">
<path d="M259.018 112.509C259.018 173.963 198.072 167.527 136.618 167.527C75.1639 167.527 17.9272 173.963 17.9272 112.509C17.9272 51.0549 75.5274 11.2535 136.618 17.9272C210.182 25.9635 259.018 79.7454 259.018 112.509Z" fill="#EFF3F7"/>
<g opacity="0.6">
<mask id="mask0_39_24229" style="mask-type:alpha" maskUnits="userSpaceOnUse" x="17" y="17" width="243" height="151">
<path d="M259.018 112.619C259.018 174.073 198.072 167.637 136.618 167.637C75.1639 167.637 17.9272 174.073 17.9272 112.619C17.9272 51.165 75.5274 11.3636 136.618 18.0373C210.182 26.0737 259.018 79.8556 259.018 112.619Z" fill="#EFF3F7"/>
</mask>
<g mask="url(#mask0_39_24229)">
<path d="M41.2456 120.655C40.9984 125.601 41.9668 136.934 42.482 141.983L45.2638 144.764C45.0577 143.837 44.3984 138.459 43.4093 124.364C42.1729 106.746 46.8093 95.619 43.4093 73.6736C40.6893 56.1172 41.6577 43.6918 42.482 39.6736H40.3184C40.2153 43.4857 40.0711 51.7899 40.3184 54.5099C40.6274 57.9099 42.482 85.7281 42.482 88.2009C42.482 90.6736 41.5547 114.474 41.2456 120.655Z" fill="white"/>
<path d="M26.8424 136.057C26.4554 140.993 27.1032 152.35 27.4754 157.411L30.1775 160.27C29.9978 159.337 29.4906 153.943 28.9003 139.826C28.1625 122.18 33.1115 111.188 30.3332 89.155C28.1105 71.5288 29.4298 59.1357 30.3673 55.1424L28.2045 55.0813C27.9938 58.8889 27.6149 67.1858 27.7852 69.9117C27.998 73.3191 29.0655 101.179 28.9956 103.65C28.9257 106.122 27.3261 129.886 26.8424 136.057Z" fill="white"/>
<circle cx="35.2364" cy="136.11" r="1.85455" fill="white"/>
<circle cx="35.2364" cy="129.31" r="1.85455" fill="white"/>
<circle cx="35.2364" cy="122.51" r="1.85455" fill="white"/>
<circle cx="35.8545" cy="115.71" r="1.85455" fill="white"/>
<circle cx="36.4727" cy="108.91" r="1.85455" fill="white"/>
<circle cx="36.4727" cy="102.11" r="1.85455" fill="white"/>
<circle cx="36.4727" cy="95.3101" r="1.85455" fill="white"/>
<circle cx="36.4727" cy="88.5101" r="1.85455" fill="white"/>
<circle cx="35.8545" cy="81.71" r="1.85455" fill="white"/>
<circle cx="35.8545" cy="74.91" r="1.85455" fill="white"/>
<circle cx="35.2364" cy="68.1099" r="1.85455" fill="white"/>
<path d="M235.728 77.3209C235.969 71.8809 235.027 59.4142 234.525 53.8609L231.818 50.8009C232.019 51.8209 232.66 57.7369 233.623 73.2409C234.826 92.6209 230.314 104.861 233.623 129.001C236.27 148.313 235.327 161.981 234.525 166.401H236.631C236.731 162.208 236.871 153.073 236.631 150.081C236.33 146.341 234.525 115.741 234.525 113.021C234.525 110.301 235.428 84.1209 235.728 77.3209Z" fill="white"/>
<path d="M250.24 70.0686C250.627 65.1321 249.979 53.7759 249.607 48.7149L246.904 45.8555C247.084 46.7883 247.591 52.1829 248.182 66.2998C248.92 83.9459 243.97 94.9377 246.749 116.97C248.971 134.597 247.652 146.99 246.715 150.983L248.877 151.044C249.088 147.237 249.467 138.94 249.297 136.214C249.084 132.806 248.016 104.947 248.086 102.475C248.156 100.003 249.756 76.2392 250.24 70.0686Z" fill="white"/>
<circle cx="241.227" cy="80.5231" r="1.85455" transform="rotate(-180 241.227 80.5231)" fill="white"/>
<circle cx="241.227" cy="87.8918" r="1.85455" transform="rotate(-180 241.227 87.8918)" fill="white"/>
<circle cx="240.609" cy="95.31" r="1.85455" transform="rotate(-180 240.609 95.31)" fill="white"/>
<circle cx="240.609" cy="102.728" r="1.85455" transform="rotate(-180 240.609 102.728)" fill="white"/>
<circle cx="240.609" cy="110.146" r="1.85455" transform="rotate(-180 240.609 110.146)" fill="white"/>
<circle cx="240.609" cy="117.565" r="1.85455" transform="rotate(-180 240.609 117.565)" fill="white"/>
<circle cx="241.227" cy="124.983" r="1.85455" transform="rotate(-180 241.227 124.983)" fill="white"/>
<circle cx="241.846" cy="132.401" r="1.85455" transform="rotate(-180 241.846 132.401)" fill="white"/>
<circle cx="241.846" cy="139.819" r="1.85455" transform="rotate(-180 241.846 139.819)" fill="white"/>
<path d="M57.1245 114.176C57.4815 119.93 56.8059 133.146 56.4235 139.035L53.7824 142.329C53.9611 141.246 54.4761 134.97 55.1067 118.538C55.8951 97.9977 51.1223 85.1315 53.9139 59.5099C56.1472 39.0126 54.9125 24.5626 54.0161 19.8997L56.1211 19.8572C56.3111 24.2942 56.6468 33.9614 56.4702 37.1337C56.2495 41.0989 55.0998 73.5288 55.1579 76.4082C55.2161 79.2876 56.6783 106.984 57.1245 114.176Z" fill="white"/>
<path d="M70.3487 104.53C70.7357 109.466 70.0879 120.822 69.7157 125.883L67.0136 128.743C67.1933 127.81 67.7005 122.415 68.2908 108.298C69.0286 90.6523 64.0796 79.6605 66.8579 57.6277C69.0806 40.0015 67.7613 27.6083 66.8238 23.6151L68.9866 23.5539C69.1973 27.3616 69.5762 35.6584 69.4059 38.3843C69.1931 41.7917 68.1256 69.6512 68.1955 72.123C68.2654 74.5947 69.865 98.359 70.3487 104.53Z" fill="white"/>
<circle r="1.85455" transform="matrix(-1 0 0 1 61.3366 107.055)" fill="white"/>
<circle r="1.85455" transform="matrix(-1 0 0 1 61.9547 100.255)" fill="white"/>
<circle r="1.85455" transform="matrix(-1 0 0 1 62.5729 93.4554)" fill="white"/>
<circle r="1.85455" transform="matrix(-1 0 0 1 61.9547 86.6556)" fill="white"/>
<circle r="1.85455" transform="matrix(-1 0 0 1 61.3366 79.8555)" fill="white"/>
<circle r="1.85455" transform="matrix(-1 0 0 1 61.3366 73.0555)" fill="white"/>
<circle r="1.85455" transform="matrix(-1 0 0 1 60.7184 66.2554)" fill="white"/>
<circle r="1.85455" transform="matrix(-1 0 0 1 60.1002 59.4554)" fill="white"/>
<circle r="1.85455" transform="matrix(-1 0 0 1 60.7184 52.6556)" fill="white"/>
<circle r="1.85455" transform="matrix(-1 0 0 1 61.3366 45.8555)" fill="white"/>
<circle r="1.85455" transform="matrix(-1 0 0 1 61.9547 39.0555)" fill="white"/>
<circle r="1.85455" transform="matrix(-1 0 0 1 62.5729 32.2554)" fill="white"/>
<path d="M208.579 117.885C208.936 123.639 208.26 136.855 207.878 142.744L205.237 146.038C205.415 144.955 205.93 138.679 206.561 122.247C207.349 101.707 202.577 88.8405 205.368 63.2189C207.601 42.7215 206.367 28.2715 205.47 23.6087L207.575 23.5662C207.765 28.0032 208.101 37.6704 207.924 40.8426C207.704 44.8079 206.554 77.2378 206.612 80.1172C206.67 82.9966 208.133 110.693 208.579 117.885Z" fill="white"/>
<path d="M221.803 108.239C222.19 113.175 221.542 124.531 221.17 129.593L218.468 132.452C218.647 131.519 219.155 126.124 219.745 112.008C220.483 94.3615 215.534 83.3697 218.312 61.3369C220.535 43.7107 219.215 31.3176 218.278 27.3243L220.441 27.2631C220.651 31.0708 221.03 39.3677 220.86 42.0936C220.647 45.501 219.58 73.3604 219.65 75.8322C219.719 78.3039 221.319 102.068 221.803 108.239Z" fill="white"/>
<circle r="1.85455" transform="matrix(-1 0 0 1 212.791 109.528)" fill="white"/>
<circle r="1.85455" transform="matrix(-1 0 0 1 213.409 102.728)" fill="white"/>
<circle r="1.85455" transform="matrix(-1 0 0 1 214.027 95.9283)" fill="white"/>
<circle r="1.85455" transform="matrix(-1 0 0 1 213.409 89.1282)" fill="white"/>
<circle r="1.85455" transform="matrix(-1 0 0 1 212.172 82.3282)" fill="white"/>
<circle r="1.85455" transform="matrix(-1 0 0 1 212.172 75.5281)" fill="white"/>
<circle r="1.85455" transform="matrix(-1 0 0 1 212.172 68.7283)" fill="white"/>
<circle r="1.85455" transform="matrix(-1 0 0 1 212.791 61.9283)" fill="white"/>
<circle r="1.85455" transform="matrix(-1 0 0 1 213.409 55.1282)" fill="white"/>
<circle r="1.85455" transform="matrix(-1 0 0 1 213.409 42.7645)" fill="white"/>
<circle r="1.85455" transform="matrix(-1 0 0 1 214.027 35.9647)" fill="white"/>
<path d="M92.9787 112.359C93.3356 118.113 92.66 131.329 92.2776 137.218L89.6365 140.512C89.8152 139.428 90.3302 133.153 90.9609 116.721C91.7492 96.1806 86.9765 83.3144 89.7681 57.6927C92.0013 37.1954 90.7667 22.7454 89.8702 18.0826L91.9753 18.04C92.1652 22.4771 92.5009 32.1443 92.3244 35.3165C92.1036 39.2818 90.9539 71.7116 91.0121 74.591C91.0703 77.4705 92.5325 105.167 92.9787 112.359Z" fill="white"/>
<path d="M106.203 102.712C106.59 107.649 105.942 119.005 105.57 124.066L102.868 126.925C103.047 125.993 103.555 120.598 104.145 106.481C104.883 88.8351 99.9337 77.8433 102.712 55.8106C104.935 38.1843 103.615 25.7912 102.678 21.7979L104.841 21.7368C105.051 25.5445 105.43 33.8413 105.26 36.5672C105.047 39.9746 103.98 67.8341 104.05 70.3058C104.119 72.7776 105.719 96.5418 106.203 102.712Z" fill="white"/>
<circle r="1.85455" transform="matrix(-1 0 0 1 97.1907 104.002)" fill="white"/>
<circle r="1.85455" transform="matrix(-1 0 0 1 97.8088 97.202)" fill="white"/>
<circle r="1.85455" transform="matrix(-1 0 0 1 98.4271 90.4019)" fill="white"/>
<circle r="1.85455" transform="matrix(-1 0 0 1 97.8088 83.6021)" fill="white"/>
<circle r="1.85455" transform="matrix(-1 0 0 1 96.5725 76.8021)" fill="white"/>
<circle r="1.85455" transform="matrix(-1 0 0 1 96.5725 70.002)" fill="white"/>
<circle r="1.85455" transform="matrix(-1 0 0 1 96.5725 63.202)" fill="white"/>
<circle r="1.85455" transform="matrix(-1 0 0 1 97.1907 56.4019)" fill="white"/>
<circle r="1.85455" transform="matrix(-1 0 0 1 97.8088 49.6021)" fill="white"/>
<circle r="1.85455" transform="matrix(-1 0 0 1 97.8088 37.2383)" fill="white"/>
<circle r="1.85455" transform="matrix(-1 0 0 1 98.4271 30.4383)" fill="white"/>
<path d="M129.161 104.469C128.782 109.961 129.594 122.579 130.048 128.202L133.032 131.354C132.827 130.319 132.223 124.327 131.448 108.639C130.48 89.0284 135.798 76.7597 132.556 52.2931C129.962 32.7197 131.294 18.9291 132.284 14.4804L129.916 14.4338C129.72 18.669 129.38 27.8965 129.591 30.9252C129.855 34.7111 131.277 65.6723 131.223 68.4209C131.169 71.1695 129.634 97.6044 129.161 104.469Z" fill="white"/>
<path d="M114.783 110.538C114.299 115.466 114.723 126.833 114.996 131.9L117.641 134.812C117.48 133.876 117.079 128.472 116.766 114.347C116.375 96.6895 121.539 85.7971 119.195 63.714C117.319 46.0475 118.882 33.6827 119.897 29.7086L117.736 29.6049C117.451 33.4077 116.909 41.6955 117.025 44.4243C117.171 47.8352 117.691 75.7102 117.572 78.1801C117.454 80.65 115.388 104.378 114.783 110.538Z" fill="white"/>
<circle cx="122.775" cy="120.692" r="1.85455" transform="rotate(1.12635 122.775 120.692)" fill="white"/>
<circle cx="123.743" cy="112.037" r="1.85455" transform="rotate(1.12635 123.743 112.037)" fill="white"/>
<circle cx="123.259" cy="105.237" r="1.85455" transform="rotate(1.12635 123.259 105.237)" fill="white"/>
<circle cx="123.393" cy="98.437" r="1.85455" transform="rotate(1.12635 123.393 98.437)" fill="white"/>
<circle cx="124.144" cy="91.637" r="1.85455" transform="rotate(1.12635 124.144 91.637)" fill="white"/>
<circle cx="124.896" cy="84.8369" r="1.85455" transform="rotate(1.12635 124.896 84.8369)" fill="white"/>
<circle cx="125.648" cy="78.0371" r="1.85455" transform="rotate(1.12635 125.648 78.0371)" fill="white"/>
<circle cx="125.782" cy="71.2371" r="1.85455" transform="rotate(1.12635 125.782 71.2371)" fill="white"/>
<circle cx="125.297" cy="64.437" r="1.85455" transform="rotate(1.12635 125.297 64.437)" fill="white"/>
<circle cx="124.813" cy="57.637" r="1.85455" transform="rotate(1.12635 124.813 57.637)" fill="white"/>
<circle cx="124.328" cy="50.8369" r="1.85455" transform="rotate(1.12635 124.328 50.8369)" fill="white"/>
<circle cx="124.462" cy="44.0371" r="1.85455" transform="rotate(1.12635 124.462 44.0371)" fill="white"/>
<circle cx="123.978" cy="37.2371" r="1.85455" transform="rotate(1.12635 123.978 37.2371)" fill="white"/>
<circle cx="123.978" cy="30.437" r="1.85455" transform="rotate(1.12635 123.978 30.437)" fill="white"/>
<circle cx="123.978" cy="23.637" r="1.85455" transform="rotate(1.12635 123.978 23.637)" fill="white"/>
<path d="M189.784 121.124C189.658 126.962 191.048 140.299 191.759 146.238L194.885 149.443C194.632 148.355 193.754 142.031 192.26 125.439C190.394 104.699 195.144 91.4538 190.783 65.67C187.295 45.043 187.993 30.3661 188.778 25.606L186.41 25.6645C186.408 30.1621 186.492 39.9575 186.842 43.158C187.279 47.1585 190.12 79.9085 190.192 82.8241C190.264 85.7397 189.943 113.827 189.784 121.124Z" fill="white"/>
<path d="M175.731 129.08C175.466 134.101 176.393 145.615 176.89 150.745L179.662 153.58C179.459 152.637 178.819 147.173 177.881 132.854C176.709 114.957 181.385 103.672 178.065 81.3714C175.408 63.531 176.423 27.2186 177.262 23.1406L175.098 23.1329C174.981 27.0042 174.806 59.1339 175.043 61.8973C175.34 65.3515 177.094 93.611 177.085 96.1224C177.076 98.6337 176.063 122.802 175.731 129.08Z" fill="white"/>
<circle cx="184.802" cy="130.5" r="1.85455" transform="rotate(-1.41568 184.802 130.5)" fill="white"/>
<circle cx="184.016" cy="123.7" r="1.85455" transform="rotate(-1.41568 184.016 123.7)" fill="white"/>
<circle cx="183.848" cy="116.9" r="1.85455" transform="rotate(-1.41568 183.848 116.9)" fill="white"/>
<circle cx="184.298" cy="110.1" r="1.85455" transform="rotate(-1.41568 184.298 110.1)" fill="white"/>
<circle cx="184.748" cy="103.3" r="1.85455" transform="rotate(-1.41568 184.748 103.3)" fill="white"/>
<circle cx="185.198" cy="96.5001" r="1.85455" transform="rotate(-1.41568 185.198 96.5001)" fill="white"/>
<circle cx="185.03" cy="89.7" r="1.85455" transform="rotate(-1.41568 185.03 89.7)" fill="white"/>
<circle cx="184.243" cy="82.9" r="1.85455" transform="rotate(-1.41568 184.243 82.9)" fill="white"/>
<circle cx="183.457" cy="76.0999" r="1.85455" transform="rotate(-1.41568 183.457 76.0999)" fill="white"/>
<circle cx="182.671" cy="69.3001" r="1.85455" transform="rotate(-1.41568 182.671 69.3001)" fill="white"/>
<circle cx="182.504" cy="62.5001" r="1.85455" transform="rotate(-1.41568 182.504 62.5001)" fill="white"/>
<circle cx="181.718" cy="55.7" r="1.85455" transform="rotate(-1.41568 181.718 55.7)" fill="white"/>
<circle cx="181.603" cy="48.9" r="1.85455" transform="rotate(-1.41568 181.603 48.9)" fill="white"/>
<circle cx="181.34" cy="42.0999" r="1.85455" transform="rotate(-1.41568 181.34 42.0999)" fill="white"/>
<circle cx="181.791" cy="35.3917" r="1.85455" transform="rotate(-1.41568 181.791 35.3917)" fill="white"/>
<path d="M156.912 126.219C156.423 132.687 156.798 147.568 157.046 154.2L159.611 157.947C159.458 156.725 159.086 149.656 158.83 131.158C158.51 108.035 163.576 93.6325 161.369 64.7613C159.603 41.6644 161.167 25.4252 162.17 20.1927L160.066 20.1123C159.775 25.1016 159.219 35.9734 159.323 39.5453C159.453 44.0102 159.863 80.5162 159.739 83.7551C159.615 86.9939 157.522 118.133 156.912 126.219Z" fill="white"/>
<path d="M143.883 116.516C143.376 122.129 143.746 135.065 143.995 140.831L146.627 144.124C146.47 143.06 146.095 136.912 145.849 120.835C145.543 100.738 150.76 88.2955 148.52 63.1764C146.728 43.0811 148.484 21.5635 149.519 17.0312C149.519 17.0312 147.661 12.5998 147.357 16.9311C147.054 21.2624 146.338 38.1304 146.442 41.2357C146.572 45.1173 146.959 76.8449 146.828 79.6575C146.698 82.4701 144.518 109.498 143.883 116.516Z" fill="white"/>
<circle cx="151.458" cy="122.52" r="1.85455" transform="rotate(1.03215 151.458 122.52)" fill="white"/>
<circle cx="151.336" cy="129.282" r="1.85455" transform="rotate(1.03215 151.336 129.282)" fill="white"/>
<circle cx="152.198" cy="115.733" r="1.85455" transform="rotate(1.03215 152.198 115.733)" fill="white"/>
<circle cx="151.703" cy="108.923" r="1.85455" transform="rotate(1.03215 151.703 108.923)" fill="white"/>
<circle cx="153.061" cy="102.146" r="1.85455" transform="rotate(1.03215 153.061 102.146)" fill="white"/>
<circle cx="153.802" cy="95.3584" r="1.85455" transform="rotate(1.03215 153.802 95.3584)" fill="white"/>
<circle cx="153.546" cy="40.9074" r="1.85455" transform="rotate(1.03215 153.546 40.9074)" fill="white"/>
<circle cx="154.543" cy="88.5705" r="1.85455" transform="rotate(1.03215 154.543 88.5705)" fill="white"/>
<circle cx="153.669" cy="34.7268" r="1.85455" transform="rotate(1.03215 153.669 34.7268)" fill="white"/>
<circle cx="154.665" cy="81.7717" r="1.85455" transform="rotate(1.03215 154.665 81.7717)" fill="white"/>
<circle cx="153.791" cy="27.3208" r="1.85455" transform="rotate(1.03215 153.791 27.3208)" fill="white"/>
<circle cx="154.788" cy="74.9726" r="1.85455" transform="rotate(1.03215 154.788 74.9726)" fill="white"/>
<circle cx="154.292" cy="68.1628" r="1.85455" transform="rotate(1.03215 154.292 68.1628)" fill="white"/>
<circle cx="153.796" cy="61.3527" r="1.85455" transform="rotate(1.03215 153.796 61.3527)" fill="white"/>
<circle cx="153.301" cy="54.5427" r="1.85455" transform="rotate(1.03215 153.301 54.5427)" fill="white"/>
<circle cx="152.805" cy="47.7326" r="1.85455" transform="rotate(1.03215 152.805 47.7326)" fill="white"/>
</g>
</g>
<path d="M272 160.418C272 175.27 232.436 187.309 136 187.309C39.5636 187.309 0 175.27 0 160.418C0 145.567 60.8893 133.527 136 133.527C211.111 133.527 272 145.567 272 160.418Z" fill="#FEEBC3"/>
<path d="M252.836 160.418C252.836 173.221 218.848 183.6 136 183.6C53.1524 183.6 19.1636 173.221 19.1636 160.418C19.1636 147.615 71.4731 137.236 136 137.236C200.527 137.236 252.836 147.615 252.836 160.418Z" fill="#F1D8A3" fill-opacity="0.5"/>
<path d="M240.473 160.418C240.473 171.855 210.081 181.127 136 181.127C61.9193 181.127 31.5273 171.855 31.5273 160.418C31.5273 148.981 78.3013 139.709 136 139.709C193.699 139.709 240.473 148.981 240.473 160.418Z" fill="#FEEBC3"/>
<path d="M195.964 160.418C195.964 167.076 178.52 172.473 136 172.473C93.4803 172.473 76.0364 167.076 76.0364 160.418C76.0364 153.761 102.883 148.364 136 148.364C169.117 148.364 195.964 153.761 195.964 160.418Z" fill="#F1D8A3" fill-opacity="0.5"/>
<path d="M134.03 182.884C135.479 182.492 136.947 182.448 138.402 182.849C139.292 183.094 139.672 182.008 138.792 181.768C137.117 181.306 135.312 181.352 133.643 181.804C132.761 182.043 133.138 183.126 134.032 182.884H134.03Z" fill="#F1D8A3"/>
<path d="M224.447 176.358C225.188 176.017 225.953 175.986 226.801 175.986C227.783 175.986 227.783 174.865 226.801 174.865C225.689 174.865 224.64 174.949 223.676 175.39C222.846 175.773 223.61 176.742 224.445 176.358H224.447Z" fill="#F1D8A3"/>
<path d="M230.743 174.217C231.195 174.063 231.699 174.069 232.186 174.069C233.168 174.069 233.168 172.948 232.186 172.948C231.406 172.948 230.688 173.005 229.974 173.249C229.599 173.378 229.507 173.771 229.701 174.016C229.926 174.298 230.367 174.346 230.743 174.217V174.217Z" fill="#F1D8A3"/>
<path d="M217.505 170.875C217.748 170.786 217.99 170.698 218.236 170.614C218.325 170.584 218.414 170.56 218.506 170.536C218.559 170.522 218.843 170.495 218.643 170.503C219.058 170.487 219.405 170.261 219.405 169.943C219.405 169.65 219.059 169.366 218.643 169.383C217.965 169.409 217.331 169.689 216.736 169.907C216.366 170.043 216.265 170.423 216.464 170.674C216.683 170.951 217.137 171.01 217.505 170.875V170.875Z" fill="#F1D8A3"/>
<path d="M256.059 167.69C256.941 167.27 257.927 167.107 258.963 167.094C259.923 167.083 259.925 165.963 258.963 165.973C257.676 165.989 256.403 166.2 255.307 166.723C254.497 167.109 255.244 168.079 256.059 167.69V167.69Z" fill="#F1D8A3"/>
<path d="M259.192 165.137C259.094 165.202 259.299 165.107 259.192 165.137C259.272 165.118 259.354 165.104 259.436 165.094C259.673 165.075 259.913 165.079 260.151 165.079C261.113 165.079 261.113 163.957 260.151 163.957C259.434 163.957 258.697 163.968 258.133 164.346C257.83 164.549 257.858 164.934 258.133 165.139C258.433 165.364 258.884 165.341 259.188 165.139L259.192 165.137Z" fill="#F1D8A3"/>
<path d="M125.772 178.125C126.572 177.934 127.377 177.921 128.21 177.921C129.152 177.921 129.152 176.799 128.21 176.8C127.254 176.8 126.303 176.825 125.384 177.044C124.486 177.257 124.869 178.34 125.772 178.125H125.772Z" fill="#F1D8A3"/>
<path d="M100.258 180.393H101.427C101.826 180.393 102.159 180.141 102.159 179.834C102.159 179.526 101.823 179.273 101.427 179.273H100.258C99.8594 179.273 99.5273 179.525 99.5273 179.834C99.5273 180.142 99.8636 180.393 100.258 180.393Z" fill="#F1D8A3"/>
<path d="M250.12 153.613C250.888 153.431 251.689 153.361 252.423 153.109C252.797 152.978 252.89 152.588 252.696 152.342C252.473 152.061 252.032 152.011 251.659 152.141C251.061 152.35 250.346 152.384 249.718 152.533C248.793 152.753 249.187 153.835 250.12 153.614V153.613Z" fill="#F1D8A3"/>
<path d="M247.191 155.651C247.466 155.647 247.734 155.566 247.966 155.419C248.004 155.396 248.037 155.37 248.071 155.344C248.162 155.28 247.903 155.428 248.012 155.38L247.89 155.418C247.964 155.405 247.933 155.408 247.797 155.427C248.21 155.412 248.554 155.182 248.554 154.866C248.554 154.572 248.209 154.292 247.797 154.306C247.522 154.31 247.254 154.39 247.022 154.537C246.984 154.56 246.951 154.588 246.916 154.612C246.826 154.677 247.084 154.528 246.975 154.577L247.098 154.539C247.024 154.551 247.055 154.549 247.191 154.53C246.778 154.544 246.434 154.774 246.434 155.09C246.434 155.386 246.779 155.665 247.191 155.651V155.651Z" fill="#F1D8A3"/>
<path d="M12.9556 162.488C13.3676 162.336 13.7249 162.32 14.1621 162.32C15.2022 162.32 15.2022 161.064 14.1621 161.065C13.4749 161.057 12.7916 161.171 12.1442 161.401C12.0587 161.427 11.9806 161.473 11.9164 161.535C11.8521 161.597 11.8037 161.674 11.7751 161.758C11.7464 161.843 11.7384 161.933 11.7518 162.021C11.7651 162.11 11.7993 162.193 11.8517 162.266C12.0888 162.58 12.5579 162.637 12.9556 162.491V162.488Z" fill="#F1D8A3"/>
<path d="M16.7434 160.315H18.6772C19.7172 160.315 19.7172 159.061 18.6772 159.061H16.7434C15.7033 159.061 15.7033 160.315 16.7434 160.315V160.315Z" fill="#F1D8A3"/>
<path d="M31.7623 150.805H33.6962C34.7362 150.805 34.7362 149.55 33.6962 149.55H31.7623C30.7223 149.55 30.7223 150.805 31.7623 150.805Z" fill="#F1D8A3"/>
<path d="M16.7433 164.329C17.0119 164.316 17.2766 164.259 17.5269 164.161C17.5993 164.135 17.6699 164.106 17.7422 164.077C17.8145 164.047 17.8137 164.052 17.7102 164.088C17.7767 164.068 17.9246 164.069 17.7102 164.078C18.1491 164.06 18.5174 163.807 18.5174 163.451C18.5174 163.123 18.15 162.806 17.7102 162.824C17.4416 162.837 17.1769 162.894 16.9266 162.992C16.8543 163.018 16.7837 163.048 16.7114 163.076C16.6391 163.105 16.6399 163.101 16.7433 163.065C16.6769 163.085 16.5289 163.084 16.7433 163.075C16.3044 163.093 15.937 163.346 15.937 163.702C15.937 164.03 16.3036 164.348 16.7433 164.329V164.329Z" fill="#F1D8A3"/>
<path d="M155.307 181.13C155.952 180.903 156.7 180.912 157.355 180.682C157.431 180.659 157.5 180.618 157.557 180.563C157.614 180.508 157.658 180.44 157.683 180.365C157.709 180.29 157.716 180.21 157.705 180.132C157.693 180.053 157.663 179.978 157.617 179.914C157.401 179.631 156.979 179.586 156.616 179.713C155.971 179.94 155.225 179.931 154.57 180.162C154.494 180.184 154.424 180.225 154.367 180.279C154.309 180.334 154.266 180.402 154.24 180.477C154.214 180.553 154.207 180.633 154.219 180.711C154.231 180.79 154.261 180.864 154.308 180.929C154.524 181.211 154.946 181.257 155.307 181.13Z" fill="#F1D8A3"/>
<path d="M159.032 179.188H159.913C160.312 179.188 160.645 178.936 160.645 178.627C160.645 178.319 160.308 178.067 159.913 178.067H159.036C158.638 178.067 158.305 178.32 158.305 178.627C158.305 178.935 158.642 179.188 159.036 179.188H159.032Z" fill="#F1D8A3"/>
<path d="M192.1 163.533H193.5C193.977 163.533 194.375 163.28 194.375 162.972C194.375 162.663 193.977 162.411 193.5 162.411H192.1C191.624 162.411 191.225 162.663 191.225 162.972C191.225 163.28 191.624 163.533 192.1 163.533Z" fill="#F1D8A3"/>
<path d="M198.894 160.816C199.74 160.648 200.582 160.613 201.461 160.612C202.59 160.612 202.591 159.49 201.461 159.491C200.435 159.491 199.415 159.538 198.43 159.735C197.356 159.949 197.814 161.032 198.894 160.816V160.816Z" fill="#F1D8A3"/>
<path d="M205.139 179.129C206.489 178.553 207.968 178.34 209.427 178.513C210.386 178.635 210.797 177.555 209.831 177.432C207.979 177.19 206.096 177.442 204.372 178.161C203.518 178.518 204.288 179.487 205.14 179.129H205.139Z" fill="#F1D8A3"/>
<path d="M214.429 173.966C214.994 173.758 215.536 173.603 216.177 173.594C217.157 173.58 217.159 172.458 216.177 172.473C215.259 172.486 214.471 172.7 213.66 172.997C212.781 173.32 213.553 174.287 214.429 173.966Z" fill="#F1D8A3"/>
<circle cx="17.9272" cy="54.4" r="4.32727" fill="#EFF3F7"/>
<circle cx="240.473" cy="46.3637" r="4.32727" fill="#EFF3F7"/>
<circle cx="40.8" cy="22.8727" r="12.3636" fill="#EFF3F7"/>
<path opacity="0.6" d="M37.7888 13.8904C33.307 15.4599 36.3762 19.0047 38.1147 20.603C36.4848 20.3899 34.8549 19.3244 32.573 19.644C30.314 19.9605 30.2911 26.3567 32.899 26.3567C33.8393 26.3567 36.7021 25.7174 38.1147 25.0781C37.1368 25.8239 35.1157 27.6353 34.8549 28.9139C34.5289 30.5121 36.8108 32.4299 40.0707 32.1103C41.9598 31.9251 41.9179 28.4877 41.7006 26.3567C41.9179 28.0615 42.9393 30.3202 45.2865 30.8317C48.2203 31.471 49.6792 27.9233 49.1983 26.037C48.5463 23.4799 46.2644 24.1191 43.9825 23.4799H47.2424C51.8178 23.4799 49.8503 17.7261 48.2203 16.7672C45.1787 14.9777 43.0045 17.3 41.7006 19.644C42.6786 17.7262 42.3526 12.2922 37.7888 13.8904Z" fill="white"/>
<path d="M38.5814 15.653C34.9976 16.9173 37.5551 19.7307 38.9454 21.0183C37.642 20.8466 35.8701 20.3757 34.0453 20.6332C32.2389 20.8881 32.3252 25.6186 34.4106 25.6186C35.1625 25.6186 37.4518 25.2424 38.5814 24.7273C37.7994 25.3282 37.0123 27.0734 36.8037 28.1035C36.543 29.391 37.5387 30.5114 40.1455 30.2539C41.6562 30.1047 41.6227 26.7532 41.4489 25.0364C41.6227 26.4098 42.4394 28.8118 44.3163 29.2238C46.6624 29.7388 47.9153 27.7555 47.5307 26.2359C47.0094 24.1758 44.7884 24.006 42.9636 23.491C43.3112 23.491 45.4036 22.963 45.9983 22.812C49.6762 21.8782 47.9658 18.6657 46.6624 17.8932C44.2302 16.4516 42.4916 18.5117 41.4489 20.4001C42.2309 18.855 42.2309 14.3654 38.5814 15.653Z" fill="#EFF3F7"/>
<circle opacity="0.6" r="1.85455" transform="matrix(-1 0 0 1 40.4909 22.8726)" fill="white"/>
<path d="M157.636 159.8C164.189 157.343 152.897 153.618 148.054 153.927L46.0544 160.727L40.4909 161.964C36.1636 166.6 47.6 168.623 58.7272 166.6C64.6516 165.523 72.9454 163.526 76.9636 164.127C110.036 169.073 134.783 171.697 140.327 170.927C151.454 169.382 148.054 166.291 145.273 163.509C142.569 160.806 150.218 162.582 157.636 159.8Z" fill="#E7CF9B"/>
<path d="M107.626 105.57C105.799 103.743 100.089 66.7451 93.2376 60.8071C91.9434 67.6586 89.3551 81.9097 89.3551 84.1021V126.81L119.502 128.18C116 121.176 109.453 107.397 107.626 105.57Z" fill="#F7F0F0"/>
<path d="M85.4374 160.66C85.4374 160.66 129.941 162.026 147.317 159.119C148.219 158.968 149.06 158.596 149.776 158.028C157.484 151.913 161.826 143.566 139.091 133.527C123.628 127.247 85.7762 117.489 85.7762 117.489L85.4374 160.66Z" fill="#959FCC"/>
<path d="M74.5005 155.44C74.5005 155.44 67.365 158.172 65.5619 159.08C63.7588 159.989 59.8862 160.99 57.9758 161.099C56.0676 161.207 45.9703 157.697 45.6502 154.6C45.33 151.504 52.4657 145.129 54.2956 144.082C56.1256 143.035 60.8499 143.294 65.4586 144.434C70.0682 145.572 74.1938 146.225 74.1938 146.225L74.4992 155.44L74.5005 155.44Z" fill="#F8735E"/>
<path d="M66.4076 161.319C66.4076 161.319 59.2722 164.051 57.4691 164.959C55.6659 165.867 51.7934 166.868 49.883 166.977C47.9748 167.085 37.8775 163.575 37.5573 160.479C37.2372 157.382 44.3729 151.008 46.2028 149.96C48.0327 148.913 52.757 149.172 57.3658 150.312C61.9754 151.45 66.1009 152.103 66.1009 152.103L66.4063 161.318L66.4076 161.319Z" fill="#FD8370"/>
<path d="M72.1733 159.789C72.1733 159.789 61.8377 162.356 58.9756 163.711C56.1136 165.065 52.8322 165.822 50.9935 165.209C47.2646 163.964 41.8689 161.335 47.3612 153.012C49.4214 149.89 52.1876 150.262 54.8477 150.539C57.5092 150.817 65.5532 152.128 71.1639 152.158C71.5939 155.41 72.172 159.788 72.172 159.788L72.1733 159.789Z" fill="#FFB38F"/>
<path d="M62.5014 114.935C62.5014 114.935 61.1977 117.413 60.7987 118.338C58.8303 122.905 53.8368 144.315 77.0347 150.169L70.7817 151.454C70.7817 151.454 69.719 156.053 70.7817 161.036C70.7817 161.036 132.212 172.859 140.056 165.449C159.926 146.679 122.543 136.436 100.775 127.951C86.2077 122.273 75.9374 116.108 64.8125 115.136C64.4076 115.1 62.8955 114.919 62.5014 114.935Z" fill="#A3B1D7"/>
<path d="M60.3021 116.505C61.5091 115.291 55.7114 135.82 66.4545 142.491C78.0485 149.689 98.9091 150.086 98.9091 150.086C98.9091 150.086 72.6363 153.618 65.7661 150.086C55.3272 143.418 56.6282 127.116 60.3021 116.505Z" fill="#898FC3"/>
<path d="M117.072 154.854C109.963 148.673 108.491 150.527 76.9637 150.218C74.386 150.193 71.2899 149.909 78.7451 149.909C90.7997 149.909 112.436 145.582 117.072 154.854Z" fill="#898FC3"/>
<path d="M116.763 150.218C115.527 150.218 112.23 150.115 111.509 150.836C112.024 151.249 113.054 151.949 113.054 151.455C113.054 150.96 116.042 150.939 116.763 150.218Z" fill="#898FC3"/>
<path d="M67.3231 117.538C66.7947 119.171 66.6485 120.9 67.0189 122.583C67.3695 124.177 68.1814 125.626 69.1967 126.887C71.57 129.838 75.0119 131.854 78.365 133.485C81.9502 135.229 85.72 136.573 89.5106 137.79C91.0474 138.283 92.5911 138.75 94.1319 139.228C96.3728 139.923 98.602 140.652 100.853 141.319C103.928 142.229 107.013 143.113 110.058 144.125C111.496 144.602 112.924 145.11 114.329 145.676C115.386 146.101 116.391 146.65 117.364 147.239C119.507 148.535 121.682 150.161 122.996 152.341C123.494 153.168 123.83 154.105 123.848 155.078C123.854 155.405 123.786 155.742 123.663 156.022C123.352 156.724 122.737 157.222 122.08 157.61C121.161 158.154 120.129 158.495 119.103 158.77C116.172 159.554 113.098 159.802 110.079 159.956C106.306 160.148 102.521 160.113 98.7462 159.985C94.8884 159.854 91.0336 159.613 87.1867 159.298C83.9413 159.032 83.3892 159.065 80.1557 158.684C78.2278 158.457 76.291 158.232 74.3799 157.883C73.5789 157.737 72.7908 157.47 71.9977 157.283C71.6846 157.209 71.3676 157.132 71.0466 157.1C70.8135 157.078 70.5873 157.274 70.7819 157.496C70.9567 157.694 71.2451 157.403 71.0713 157.206C71.0436 157.306 71.015 157.406 70.9873 157.504C70.9547 157.507 70.9518 157.508 70.9784 157.507C71.0011 157.507 71.0239 157.509 71.0466 157.51C71.1078 157.515 71.169 157.527 71.2293 157.537C71.4505 157.576 71.6708 157.627 71.889 157.678C72.4155 157.801 72.9389 157.937 73.4614 158.072C73.9236 158.192 74.3779 158.3 74.849 158.377C75.7537 158.525 76.6614 158.65 77.57 158.77C80.4253 159.148 80.602 159.105 83.4692 159.378C87.1798 159.731 90.8973 160.013 94.6198 160.213C98.4983 160.42 102.384 160.538 106.267 160.484C109.636 160.438 113.025 160.281 116.357 159.753C117.645 159.55 118.931 159.284 120.172 158.88C121.112 158.574 122.057 158.185 122.853 157.587C123.463 157.129 123.984 156.529 124.176 155.773C124.293 155.317 124.258 154.853 124.195 154.39C124.039 153.253 123.462 152.201 122.781 151.296C121.265 149.284 119.113 147.758 116.951 146.519C114.602 145.173 112.006 144.325 109.443 143.491C106.396 142.498 103.312 141.623 100.24 140.708C98.123 140.078 96.0272 139.384 93.9175 138.732C90.4785 137.67 87.0395 136.612 83.6756 135.324C79.9265 133.888 76.1902 132.197 72.9359 129.813C70.2613 127.853 67.7181 125.159 67.2796 121.725C67.1038 120.349 67.2915 118.96 67.7162 117.647C67.7981 117.395 67.4031 117.287 67.3221 117.538H67.3231Z" fill="#D9DDE5"/>
<path d="M62.773 121.382C62.1508 123.58 61.8268 125.869 61.9443 128.155C62.0609 130.434 62.6456 132.669 63.6777 134.703C63.9829 135.303 64.3305 135.882 64.7088 136.439V136.232C64.2713 137.115 63.9019 138.038 63.5848 138.97C63.4555 139.348 63.333 139.734 63.254 140.126C63.2115 140.338 63.1473 140.624 63.3034 140.805C63.4762 141.006 63.7636 140.714 63.5927 140.516C63.5967 140.52 63.6303 140.593 63.6184 140.554C63.6036 140.507 63.6204 140.602 63.6164 140.544C63.6125 140.501 63.6164 140.457 63.6194 140.413C63.6293 140.294 63.6589 140.174 63.6866 140.059C63.7764 139.674 63.9019 139.298 64.0313 138.927C64.3246 138.079 64.6634 137.243 65.0624 136.439C65.094 136.376 65.1048 136.295 65.0624 136.232C63.7468 134.294 62.8816 132.102 62.5192 129.784C62.1656 127.526 62.3177 125.205 62.7947 122.978C62.9014 122.478 63.0278 121.984 63.1671 121.492C63.2392 121.237 62.8451 121.129 62.773 121.383V121.382Z" fill="#D9DDE5"/>
<path d="M71.4338 111.734C72.1422 112.426 77.6346 119.282 100.548 121.176C117.556 122.581 138.698 113.636 138.698 113.636L137.679 109.363C122.318 108.269 114.614 108.986 100.954 106.573C86.5496 104.03 77.7746 81.4921 77.7746 81.4921C77.7746 81.4921 61.2933 76.848 64.8491 90.7597C65.6691 93.9697 65.6863 97.2199 71.4338 102.83L71.4338 111.734Z" fill="#FFB38F"/>
<path d="M150.064 116.478C150.064 116.478 153.736 114.178 154.636 113.922C155.536 113.666 156.598 113.953 156.303 115.15C156.008 116.344 151.018 116.699 150.061 116.479L150.064 116.478Z" fill="#EE8B64"/>
<path d="M150.451 116.33C150.451 116.33 154.648 115.002 156.362 114.63C158.075 114.26 158.972 114.405 158.989 115.371C159.008 116.339 158.637 116.249 158.637 116.249C158.637 116.249 152.963 117.048 150.451 116.328L150.451 116.33Z" fill="#F79F7C"/>
<path d="M131.149 109.527C131.149 109.527 138.843 106.797 141.862 107.219C144.882 107.641 147.507 109.14 149.303 109.87C150.868 110.505 151.985 111.35 151.631 112.137C151.276 112.925 149.632 112.752 148.408 112.297C147.185 111.842 144.976 110.69 143.874 111.246C142.927 111.723 143.628 113.008 146.154 114.32C148.68 115.632 150.882 116.109 151.956 116.108C153.03 116.104 158.134 115.302 159.376 115.836C160.074 116.136 159.792 117.687 157.779 118.018C155.766 118.352 151.631 119.64 151.052 119.953C150.472 120.265 147.077 121.355 144.944 121.279C142.812 121.203 134.906 117.122 133.243 116.281C131.579 115.439 131.311 115.387 130.51 115.015C129.709 114.643 129.229 110.161 131.151 109.528L131.149 109.527Z" fill="#FFB38F"/>
<path d="M80.6769 10.7913C95.1107 -8.02743 120.187 0.285687 121.329 16.5008L108.768 20.6117C105.038 21.6014 102.602 25.7732 98.034 27.2348C93.4663 28.6965 91.2586 33.1727 92.7812 35.2282C90.9541 38.9584 92.2331 45.414 87.3 47.7892C81.1336 50.7582 78.1643 64.2328 70.1709 71.7694C63.7762 77.7987 61.4924 84.102 58.9804 84.102C58.9804 63.5476 62.6347 34.3147 80.6769 10.7913Z" fill="#5E2E07"/>
<path d="M123.457 27.659C129.016 13.3249 119.825 10.8231 114.535 11.3641C114.786 16.5615 117.386 25.3425 117.218 25.8644C117.051 26.3863 117.446 34.543 122.196 37.5681C120.666 35.1585 122.399 29.9581 123.457 27.659Z" fill="#5E2E07"/>
<path d="M98.9253 42.5946C96.5684 47.4728 94.1795 52.4561 93.4761 57.8277C93.1427 60.349 93.1929 62.9069 93.2432 65.4511C89.3972 60.6551 85.2955 56.06 80.9608 51.6979C80.0655 50.7935 79.1565 49.8983 78.3572 48.9071C78.2796 48.8112 78.2019 48.7015 78.2019 48.5782C78.2019 48.4229 78.3389 48.3042 78.4577 48.2037C81.3673 45.8239 84.0074 43.0879 86.0446 39.9317C88.0817 36.7754 89.4977 33.1807 89.8814 29.4443" fill="#FFB38F"/>
<path d="M93.2158 42.3754C92.115 39.5709 91.6491 34.6972 91.8729 31.6323C91.9277 30.8512 90.0915 31.2669 89.6896 30.8512C89.7672 30.3853 89.8357 29.9194 89.8814 29.449L98.9254 42.5947C97.9981 44.5131 97.0709 46.4498 96.235 48.4184C94.714 46.2259 94.1933 44.8694 93.2158 42.3754Z" fill="#F79F7C"/>
<path d="M81.1338 45.0487C85.1534 44.5006 90.4974 34.467 92.7812 29.7471C92.629 28.7574 92.3702 26.6868 92.5529 26.3214C92.7356 25.9559 88.5181 27.0826 86.3865 27.6917C82.8847 33.5535 77.1143 45.5968 81.1338 45.0487Z" fill="#5E2E07"/>
<path d="M119.507 13.9097C121.539 17.139 122.531 19.8156 122.572 23.6251C122.585 24.8538 122.261 27.3386 121.827 28.485C121.288 29.9101 119.165 32.7335 118.479 34.0946C117.497 36.045 117.301 38.14 118.073 40.1817C118.283 40.7344 118.546 41.1562 118.382 41.7272C118.218 42.2936 117.726 42.6361 117.146 42.7458C116.565 42.8554 116.511 42.7823 115.926 42.7184C115.721 42.6955 115.51 42.6772 115.319 42.7458C115.022 42.8462 114.83 43.1249 114.656 43.3852C112.918 45.1272 113.127 45.4363 112.918 46.0544C112.325 46.926 111.788 47.4649 110.964 48.2181C110.036 47.909 109.418 49.4544 108.8 50.0726C108.182 50.6908 107.703 51.0214 106.327 50.9999C104.952 50.9784 102.883 49.3326 102.618 49.1454C102 48.5272 101.94 48.6284 100.291 47.0343C98.3449 45.1478 96.559 43.0558 95.3622 40.6258C93.2748 36.3916 93.1561 31.2393 95.0425 26.9138" fill="#FFB38F"/>
<path d="M112.447 46.9202C112.447 46.9202 112.152 48.2183 110.964 48.2183C109.41 47.3168 108.759 44.8974 108.877 44.0553C109.663 44.802 110.854 45.6778 110.997 45.7026C111.141 45.7274 112.694 46.1456 112.748 46.1831C112.801 46.2205 112.2 46.6729 112.2 46.6729L112.447 46.9202Z" fill="#E57257"/>
<path d="M112.922 46.6352C112.71 46.9226 112.322 46.9791 112.015 46.7964V46.7964C111.779 46.656 111.599 46.6146 110.615 45.9209C109.63 45.2279 108.897 44.2352 108.877 44.0548C110.346 45.1273 111.474 45.0423 112.509 45.4364C112.798 45.5462 112.958 45.9333 112.958 45.9333C112.958 46.0062 112.951 45.7898 113.004 45.7454C113.189 45.8798 113.172 46.2962 112.922 46.6352Z" fill="#DE5343"/>
<path d="M117.339 28.5479C117.339 28.5479 114.307 26.1245 113.281 25.7381C112.256 25.3518 110.235 25.805 110.056 25.7295C109.876 25.654 111.809 24.1281 113.813 24.7237C115.816 25.3194 118.026 27.2623 118.017 27.6184C118.008 27.9744 117.781 28.8939 117.339 28.5475L117.339 28.5479Z" fill="#5E2E07"/>
<path d="M110.039 30.185C110.039 30.185 109.62 31.275 109.668 31.7107C109.717 32.1468 110.289 33.6157 111.877 34.1208C113.464 34.626 113.103 34.693 113.436 34.618C113.771 34.5432 114.364 34.618 114.982 33.7525C115.6 32.8871 116.125 30.7519 113.767 29.4415C111.41 28.1311 110.124 29.4428 110.039 30.185Z" fill="white"/>
<mask id="mask1_39_24229" style="mask-type:alpha" maskUnits="userSpaceOnUse" x="109" y="28" width="7" height="7">
<path d="M110.04 30.185C110.04 30.185 109.621 31.275 109.668 31.7107C109.717 32.1468 110.289 33.6157 111.877 34.1208C113.464 34.626 113.103 34.693 113.436 34.618C113.771 34.5432 114.364 34.618 114.982 33.7525C115.6 32.8871 116.125 30.7519 113.768 29.4415C111.41 28.1311 110.124 29.4428 110.04 30.185Z" fill="white"/>
</mask>
<g mask="url(#mask1_39_24229)">
<g style="mix-blend-mode:multiply">
<path d="M115.284 33.9078C115.814 32.9321 115.58 31.7802 114.761 31.335C113.942 30.8897 112.848 31.3197 112.317 32.2954C111.787 33.2711 112.021 34.423 112.84 34.8682C113.66 35.3135 114.754 34.8835 115.284 33.9078Z" fill="#7BA08C"/>
</g>
<path d="M114.428 33.4424C114.652 33.0298 114.553 32.5428 114.207 32.3545C113.86 32.1662 113.398 32.348 113.174 32.7606C112.949 33.1731 113.048 33.6602 113.395 33.8485C113.741 34.0367 114.204 33.8549 114.428 33.4424Z" fill="#434645"/>
<path d="M113.81 32.3559C113.936 32.1241 113.88 31.8504 113.686 31.7446C113.491 31.6388 113.231 31.741 113.105 31.9728C112.979 32.2046 113.035 32.4783 113.229 32.5841C113.424 32.6899 113.684 32.5878 113.81 32.3559Z" fill="white"/>
</g>
<path d="M114.228 34.4731C114.249 34.4625 114.239 34.4319 114.216 34.4358C113.83 34.4997 112.649 34.5007 111.366 33.6442C110.008 32.7367 109.724 31.8099 109.692 31.4636C109.69 31.4413 109.658 31.4392 109.653 31.4611C109.577 31.8039 109.512 32.8562 111.19 33.9366C112.831 34.9918 113.899 34.6345 114.228 34.4731V34.4731Z" fill="#F79F7C"/>
<path d="M115.388 32.8296C115.36 32.8846 115.653 31.1528 113.685 29.9688C111.716 28.7848 110.415 29.7117 110.251 29.9039C110.088 30.0953 110.033 30.1986 110.033 30.1986C110.033 30.1986 109.606 29.6418 109.436 29.2404C109.264 28.8387 109.29 28.7673 109.29 28.7673C109.29 28.7673 110.738 27.3881 113.679 28.7863C115.296 29.5552 115.943 31.7098 115.387 32.8305L115.388 32.8296Z" fill="#5E2E07"/>
<path d="M114.24 43.891C114.487 42.9019 113.643 41.2122 113.436 40.8L113.861 41.5074C114.185 42.0482 114.693 42.4551 115.291 42.6546L114.749 43.1962C114.698 43.2472 114.652 43.3025 114.611 43.3615L114.24 43.891Z" fill="#D67751"/>
<path opacity="0.5" d="M105.786 34.3572C103.666 36.4184 108.567 40.7428 110.578 38.5882C112.698 36.527 107.797 32.2026 105.786 34.3572Z" fill="#FF835E"/>
<path d="M99.6925 30.536C99.8798 33.9618 96.5774 39.1689 93.243 35.364C87.5289 29.1155 96.6094 19.2357 99.4733 30.0747" fill="#FFB38F"/>
<path d="M97.2122 30.5542C97.5274 32.2625 95.9926 34.4367 94.531 32.8334C92.0234 30.1887 96.0657 25.9271 97.2122 30.5542Z" fill="#F79F7C"/>
<path d="M106.941 24.0375C122.288 24.9511 121.862 15.4351 119.731 10.563C114.858 12.39 104.977 16.0442 104.429 16.0442C103.881 16.0442 99.3284 22.5911 97.1207 25.8646C98.9477 23.6721 104.429 23.733 106.941 24.0375Z" fill="#5E2E07"/>
<path d="M81.8141 44.7642C76.1087 48.4743 72.0161 51.7265 69.0289 56.6961C66.0462 61.6657 64.1692 66.2686 63.0319 71.9554C61.0632 81.7986 60.3324 91.852 59.8848 101.883C59.661 106.916 59.5057 111.95 59.4189 116.988C59.4098 117.559 59.4052 118.148 59.6518 118.664C59.9213 119.226 60.4557 119.61 60.9947 119.929C62.3696 120.742 63.8906 121.281 65.4299 121.715C75.2504 124.497 88.3999 123.018 97.3636 121.715C97.5965 118.198 95.9053 115.001 96.1885 111.488C96.9604 101.883 102.478 94.7309 100.774 85.2439C100.061 81.2791 97.142 75.195 96.1885 70.8558C95.3754 67.156 95.0922 63.6103 93.2149 60.317C91.9405 58.0789 89.9582 56.3523 88.2179 54.4567C85.8336 51.8577 83.7553 47.7149 81.8095 44.7687" fill="white"/>
<path d="M98.3035 121.126C98.3035 121.126 79.5533 124.301 72.9074 118.605C66.2661 112.909 61.3147 95.5427 65.0374 76.9341C68.76 58.3255 72.3228 54.886 78.1967 57.7134C84.0707 60.5408 88.9718 58.5949 91.6119 67.1776C94.252 75.7602 95.1927 89.5328 100.089 95.521C100.089 95.521 99.6233 98.2342 98.4905 100.774" fill="#F7F0F0"/>
<path d="M80.6312 51.1042C83.253 51.9401 85.3724 53.959 86.8112 56.3022C88.25 58.6454 89.0722 61.3129 89.7573 63.9759C90.6846 67.5889 91.3788 71.2613 91.8356 74.9611C92.6898 81.8582 92.9227 89.3811 97.3305 94.7573C99.0936 96.9041 101.409 98.5301 103.812 99.9324C110.919 104.08 119.045 106.469 127.267 106.834C128.075 106.871 129.007 106.948 129.464 107.615C129.697 107.953 129.756 108.383 129.802 108.789C130.003 110.433 130.199 112.078 130.4 113.718C130.583 115.207 130.706 116.892 129.729 118.029C129.181 118.669 128.372 119.011 127.587 119.317C114.651 124.342 99.797 124.214 86.9482 118.966C82.3532 117.088 77.9637 114.549 74.4923 111C68.2666 104.637 65.5031 95.5338 65.0875 86.6406C64.5896 75.8974 67.2754 65.031 72.72 55.7587" fill="white"/>
<path d="M227.59 160.987C227.59 161.183 227.306 163.622 224.546 163.813C223.243 163.904 218.172 162.758 217.572 162.213C215.768 160.581 217.728 158.204 218.611 157.357C220.981 155.083 205.117 155.27 202.94 155.655C197.939 156.539 185.387 162.22 184.334 160.916C182.664 158.846 199.425 150.218 206.693 150.218C210.772 150.218 234.869 150.438 237.926 154.427C239.022 155.858 227.59 160.405 227.59 160.987Z" fill="#E7CF9B"/>
<path d="M181.375 154.628C184.601 155.341 185.442 155.341 187.286 155.579C186.927 154.322 191.754 152.005 190.376 151.251C188.999 150.497 185.74 150.942 181.722 151.251C177.704 151.56 176.126 153.467 181.375 154.628Z" fill="#E7CF9B"/>
<path d="M192.566 135.052C194.118 135.491 196.025 135.69 197.201 135.205C198.417 134.703 199.922 133.014 201.066 130.529C195.587 129.583 190.719 128.134 187.631 125.986C187.452 126.744 185.005 129.486 185.21 130.571C186.466 131.846 189.562 134.201 192.567 135.052L192.566 135.052Z" fill="#FFB38F"/>
<path d="M202.322 123.279C200.112 124.601 196.476 127.346 194.636 128.832C195.87 131.204 198.648 135.439 199.658 136.615C203.458 134.742 207.481 132.846 208.74 131.488C209.223 130.967 211.515 126.01 210.061 124.648C207.775 122.505 204.433 122.015 202.322 123.279V123.279Z" fill="#C6DFD9"/>
<path opacity="0.3" d="M204.153 131.173C204.153 133.277 204.042 134.672 203.259 134.967C202.354 135.308 200.707 136.089 200.366 136.241C200.643 133.237 202.009 128.948 202.845 128.948C203.681 128.948 204.153 129.069 204.153 131.172V131.173Z" fill="#9FA099"/>
<path d="M189.828 124.182C190.096 126.006 189.989 127.853 189.444 128.783C188.558 130.295 187.296 131.296 185.551 130.958C184.273 130.712 182.521 129.505 180.808 127.042C181.769 126.109 184.644 122.915 186.599 121.862C186.815 123.104 189.119 123.904 189.828 124.181V124.182Z" fill="#FFB38F"/>
<path d="M186.875 128.324C185.344 129.67 182.581 129.016 181.462 127.328C181.902 127.092 183.786 123.402 185.417 122.767C187.191 122.631 187.275 124.932 187.839 124.713C187.282 125.436 186.207 126.935 186.875 128.324Z" fill="#F79F7C"/>
<path d="M168.289 119.675L179.897 115.485L183.321 111.382L170.626 116.304L168.289 119.675Z" fill="#F3C2C5"/>
<path d="M172.807 115.94C172.538 116.044 172.275 116.163 172.02 116.299C171.828 116.391 171.652 116.512 171.496 116.657C171.396 116.768 171.396 116.836 171.502 116.836C171.717 116.804 171.927 116.743 172.127 116.657L173.532 116.144C173.438 116.22 173.351 116.303 173.269 116.391C172.97 116.7 172.945 116.873 173.219 116.904C173.825 116.858 174.417 116.705 174.968 116.453C175.746 116.174 176.5 115.833 177.222 115.433C177.738 115.16 178.213 114.817 178.633 114.413C178.807 114.245 178.957 114.054 179.076 113.844C179.145 113.684 178.889 113.745 178.265 113.943L172.807 115.94ZM175.011 115.724C175.099 115.631 175.18 115.557 175.249 115.495L177.122 114.815C177.065 114.89 177.002 114.96 176.935 115.025C176.79 115.169 176.624 115.29 176.441 115.384C176.19 115.514 175.932 115.63 175.667 115.73C175.458 115.819 175.237 115.877 175.011 115.903C174.899 115.891 174.905 115.835 175.011 115.724Z" fill="white" fill-opacity="0.3"/>
<path d="M168.289 119.675L173.158 131.419L184.988 127.075L179.897 115.393L168.289 119.675Z" fill="#E5ABB7"/>
<path d="M178.768 125.519C178.975 125.77 179.199 125.913 179.458 125.941C179.712 125.982 179.95 125.893 180.188 125.68C180.389 125.491 180.476 125.267 180.442 124.996C180.409 124.725 180.304 124.503 180.123 124.322L176.074 120.032C175.764 119.717 175.411 119.622 175.013 119.771C174.595 119.927 174.389 120.253 174.379 120.744L174.177 126.575C174.15 126.869 174.21 127.118 174.339 127.342C174.467 127.566 174.652 127.667 174.911 127.661C175.254 127.669 175.505 127.553 175.644 127.319C175.788 127.096 175.851 126.812 175.839 126.476L175.817 125.476L178.015 124.655L178.768 125.519ZM175.788 122.088L177.05 123.497L175.767 123.976L175.788 122.088Z" fill="white" fill-opacity="0.5"/>
<path d="M184.988 127.075L188.205 122.56L183.321 111.383L179.897 115.394L184.988 127.075Z" fill="#EAB7CA"/>
<path d="M184.988 127.075L188.205 122.56L183.321 111.383L179.897 115.394L184.988 127.075Z" fill="#E395A5"/>
<path d="M184.215 117.772L183.454 118.615L182.782 117.047C182.668 116.805 182.547 116.619 182.435 116.525C182.305 116.424 182.203 116.41 182.109 116.521C182.016 116.627 181.987 116.785 182.005 117.008C182.016 117.236 182.082 117.465 182.183 117.719C182.183 117.719 182.704 118.912 183.224 120.099C183.745 121.275 184.267 122.423 184.267 122.423C184.375 122.665 184.496 122.839 184.615 122.922C184.733 123.011 184.848 122.997 184.935 122.886C185.029 122.78 185.07 122.617 185.046 122.405C185.04 122.189 184.974 121.965 184.861 121.723L184.111 120.091L184.866 119.23L185.622 120.846C185.73 121.082 185.833 121.25 185.969 121.339C186.088 121.422 186.197 121.403 186.291 121.292C186.384 121.186 186.418 121.045 186.406 120.834C186.382 120.64 186.322 120.416 186.208 120.168C186.208 120.168 185.68 119.049 185.163 117.918C184.636 116.765 184.12 115.6 184.12 115.6C184.013 115.347 183.897 115.184 183.78 115.078C183.661 114.995 183.552 115.032 183.461 115.058C183.361 115.169 183.326 115.327 183.344 115.544C183.362 115.744 183.428 115.985 183.535 116.232L184.215 117.772Z" fill="white" fill-opacity="0.3"/>
<path d="M185.388 122.261C185.028 122.884 185.011 123.595 186.596 124.495C187.608 125.069 188.935 125.103 189.266 124.464C189.597 123.826 188.023 122.6 186.934 121.964C185.845 121.327 185.619 121.861 185.388 122.262V122.261Z" fill="#E395A5"/>
<path d="M185.955 121.816C184.823 123.105 186.669 124.314 187.82 124.986C188.97 125.659 189.951 125.486 189.893 124.789C189.825 123.958 189.819 123.155 188.604 122.613C187.404 122.08 186.263 121.465 185.955 121.816Z" fill="#FFB38F"/>
<path d="M196.455 154.438C195.422 153.651 194.522 146.88 193.806 145.958C195.483 145.417 196.545 144.938 201.17 144.329C203.527 144.018 206.841 145.223 207.883 147.346C209.105 149.837 207.919 152.956 205.264 154.19C202.872 155.302 199.079 154.588 196.455 154.438Z" fill="#FFB38F"/>
<path d="M198.562 153.096C195.906 155.766 189.224 157.627 186.993 159.225C186.36 158.536 184.238 154.645 183.824 153.863C187.118 150.996 188.82 149.098 192.354 146.649C193.729 145.696 196.079 145.216 197.77 145.843C199.458 146.469 198.508 151.043 198.562 153.096V153.096Z" fill="#FFB38F"/>
<path d="M188.536 157.032C187.293 160.627 184.901 161.313 183.273 160.317C182.462 159.822 181.922 158.969 180.702 158.095C178.958 156.847 177.656 156.5 177.388 155.391C177.125 155.163 177.012 155.086 176.925 154.812C176.689 154.071 176.945 151.996 177.791 152.275C177.654 151.83 178.099 151.219 178.446 151.32C178.689 151.39 179.68 151.706 179.939 151.761C183.48 152.507 184.818 154.086 186.691 154.373C187.119 154.825 188.542 156.711 188.538 157.032H188.536Z" fill="#FFB38F"/>
<path opacity="0.19" d="M178.025 154.504C178.268 154.104 178.683 153.572 178.651 153.583C178.402 153.666 178.09 154.014 177.846 154.413C177.603 154.813 177.56 155.245 177.59 155.262C177.619 155.28 177.782 154.903 178.025 154.503L178.025 154.504Z" fill="#7F1703"/>
<path opacity="0.19" d="M178.828 153.461C178.689 153.461 178.459 153.391 178.16 153.059C177.736 152.588 177.819 152.241 177.819 152.241C177.848 152.433 178.047 152.721 178.312 152.966C178.523 153.16 178.828 153.461 178.828 153.461V153.461Z" fill="#7F1703"/>
<path d="M196.754 154.616C200.27 152.904 197.884 146.102 195.175 145.532C195.095 145.515 194.744 145.667 194.622 145.704C194.6 145.498 194.913 145.195 195.179 145.123C196.513 144.762 201.633 144.166 203.762 143.849C207.341 143.932 219.622 143.898 224.034 143.565C224.118 144.148 224.929 144.447 225.509 144.729C227.47 145.683 229.927 145.701 232.075 147.118C234.354 148.623 235.105 151.776 233.483 153.962C231.493 156.644 224.284 155.761 223.893 156.263C217.275 154.734 210.862 154.991 207.535 155.046C204.996 155.088 198.541 154.687 196.755 154.616L196.754 154.616Z" fill="#B2CDC7"/>
<path d="M203.743 122.715C206.62 121.573 219.044 121.573 222.189 122.916C223.372 132.91 224.423 141.501 224.521 144.149C223.93 144.618 215.949 147.137 209.664 147.054C205.788 147.002 202.317 145.585 200.86 144.212C200.277 138.842 202.348 125.35 203.743 122.715H203.743Z" fill="#C6DFD9"/>
<path opacity="0.3" d="M214.277 155.003C214.864 155.12 217.441 154.973 219.772 155.763C222.232 156.598 224.854 151.595 222.26 151.727C218.706 151.907 214.663 154.49 214.277 155.003Z" fill="#9FA099"/>
<path d="M220.989 160.602C217.103 161.071 212.216 162.276 214.87 157.418C217.649 155.763 224.842 149.023 227.544 147.522C232.483 144.781 235.941 152.767 232.071 155.482C229.455 157.318 223.798 159.572 220.989 160.602V160.602Z" fill="#FFB38F"/>
<path d="M220.989 160.602C217.772 160.991 213.957 161.948 214.092 159.197C214.194 158.72 214.389 158.255 214.713 157.847C215.759 156.531 216.887 156.002 218.633 155.702C220.079 154.087 222.913 153.882 224.229 155.982C225.01 157.228 225.014 158.052 225.096 159.016C223.593 159.617 222.046 160.231 220.989 160.602V160.602Z" fill="#F79F7C"/>
<path d="M214.645 161.997C215.892 162.713 216.917 162.013 219.22 162.781C220.228 163.117 221.641 163.049 222.362 162.725C223.843 162.06 223.707 158.305 223.208 157.407C223.09 157.195 222.777 157.038 222.378 157.148C222.667 156.882 222.979 155.974 222.527 155.464C221.97 154.837 220.156 154.728 218.783 156.246C217.108 156.764 215.417 156.794 214.555 157.437C213.096 158.524 213.332 161.244 214.645 161.997H214.645Z" fill="#FFB38F"/>
<path d="M217.402 156.587C217.68 157.271 218.867 159.494 219.204 159.383C219.517 159.279 218.854 157.341 218.838 156.204L218.783 156.246C218.316 156.39 217.854 156.495 217.402 156.587V156.587Z" fill="#F79F7C"/>
<path opacity="0.3" d="M226.522 138.292L221.304 139.185L220.098 131.147L226.053 133.179L226.522 138.292Z" fill="#9FA099"/>
<path d="M228.191 142.313C229.214 141.067 230.159 139.398 230.184 138.127C230.211 136.812 229.264 134.757 227.444 132.714C224.386 137.358 221.111 141.241 217.908 143.213C218.531 143.68 220.066 147.019 221.142 147.264C222.813 146.622 226.21 144.726 228.191 142.313Z" fill="#FFB38F"/>
<path d="M228.003 127.574C228.895 129.991 230.256 133.449 230.757 135.759C228.308 136.833 223.338 138.11 221.814 138.393C220.147 133.408 217.739 125.941 217.135 123.955C217.742 123.538 219.494 122.827 221.481 122.685C223.667 123.085 227.151 125.267 228.003 127.575V127.574Z" fill="#C6DFD9"/>
<path d="M218.366 123.038C218.379 122.684 218.312 122.444 218.224 122.109C214.594 121.897 209.058 121.745 205.281 122.302C205.253 122.455 205.215 122.568 205.209 122.727C205.112 125.461 207.944 127.624 211.59 127.754C215.235 127.884 218.269 125.773 218.366 123.038H218.366Z" fill="#FFB38F"/>
<path d="M216.34 115.712V123.396C216.353 125.056 214.284 126.419 211.682 126.439C209.079 126.46 206.928 125.13 206.916 123.47V115.712H216.341H216.34Z" fill="#FFB38F"/>
<path d="M206.911 122.155C207.177 124.928 210.211 124.465 212.062 124.061C213.781 123.685 215.237 122.891 216.34 121.882V116.898C216.34 116.898 208.742 117.871 206.912 118.414V120.545L206.911 122.155Z" fill="#F79F7C"/>
<path opacity="0.19" d="M221.049 157.514C221.17 157.586 221.407 157.645 221.841 157.51C222.455 157.318 222.563 156.971 222.563 156.971C222.438 157.124 222.115 157.272 221.756 157.348C221.472 157.409 221.049 157.514 221.049 157.514Z" fill="#7F1703"/>
<path d="M214.548 152.203C216.036 151.515 217.639 150.546 220.436 148.497C222.46 147.015 221.886 144.826 220.949 143.68C220.411 143.021 216.345 140.617 215.065 140.624C214.221 140.629 212.517 140.716 212.424 140.903C211.977 141.808 213.201 142.498 214.61 142.555C215.025 142.614 215.404 142.751 215.92 143.272C215.997 143.628 213.231 143.387 212.065 143.538C211.134 143.658 209.032 145.185 209.055 145.531C209.111 146.386 211.167 145.697 212.029 145.501C212.329 145.433 213.284 145.523 213.879 145.671C213.285 146.07 212.065 146.492 211.644 146.722C210.833 147.165 208.924 147.855 208.968 148.575C209.002 149.138 210.331 149.012 211.871 148.553C212.245 148.442 213.646 148.076 214.568 147.866C214.586 147.908 212.677 149.018 212.375 149.098C211.48 149.337 210.226 149.532 210.126 150.569C210.099 150.852 212.263 150.924 213.159 150.588C213.559 150.438 214.457 150.147 215.483 149.669C214.967 150.106 213.92 150.769 213.698 150.905C212.28 151.03 211.721 151.135 211.633 151.91C211.606 152.149 213.838 152.53 214.547 152.202L214.548 152.203Z" fill="#FFB38F"/>
<path d="M194.109 106.702C194.128 109.88 195.967 111.694 197.361 111.303C198.435 111.002 198.827 108.162 198.856 106.649C198.893 104.663 198.127 102.681 197.14 102.583C195.594 102.43 194.093 104.123 194.109 106.702V106.702Z" fill="#FFB38F"/>
<path d="M196.074 104.249C196.528 99.7302 195.825 97.2983 197.117 93.1181C199.049 86.8699 205.566 84.6509 212.674 85.4736C219.324 86.2431 226.443 89.7766 227.402 97.2998C228.208 103.627 224.289 112.718 221.12 116.27C217.249 120.608 208.431 121.187 206.247 120.832C203.635 120.406 198.065 117.259 196.35 114.051C194.409 110.418 195.836 106.628 196.074 104.249Z" fill="#FFB38F"/>
<path d="M211.158 107.278C211.146 107.258 211.17 107.237 211.188 107.252C211.486 107.509 212.5 108.13 214.051 108.067C215.694 108 216.424 107.353 216.633 107.072C216.647 107.054 216.675 107.069 216.668 107.09C216.554 107.425 216.057 108.363 214.049 108.41C212.086 108.456 211.356 107.589 211.158 107.278V107.278Z" fill="#F79F7C"/>
<path d="M199.518 105.237C199.513 105.216 199.538 105.199 199.549 105.216C199.743 105.505 200.456 106.238 201.777 106.383C203.175 106.535 203.935 106.005 204.174 105.761C204.189 105.745 204.21 105.763 204.199 105.783C204.028 106.092 203.399 106.933 201.698 106.715C200.035 106.5 199.615 105.565 199.518 105.237V105.237Z" fill="#F79F7C"/>
<path d="M206.106 116.886C208.029 117.082 207.744 114.796 205.836 114.486V114.486C204.037 114.193 203.088 115.994 204.809 116.596C205.209 116.736 205.642 116.838 206.106 116.886Z" fill="#E57257"/>
<path d="M204.898 111.046C205.631 111.705 207.057 111.061 207.144 110.878C206.116 111.42 204.386 110.681 205.219 109.274C204.385 109.636 204.419 110.616 204.898 111.046Z" fill="#D67751"/>
<path d="M196.381 108.495C196.176 109.435 197.217 110.478 198.707 110.826C200.197 111.174 201.57 110.693 201.775 109.753C201.98 108.812 200.938 107.769 199.449 107.422C197.959 107.075 196.586 107.555 196.381 108.495Z" fill="#FF9B76"/>
<path d="M228.952 95.8221C229.836 99.6446 228.506 104.486 227.327 107.63C226.476 107.746 224.419 108.192 223.112 108.881C221.623 107.747 225.267 101.404 223.943 96.958C222.303 91.4475 215.312 89.5181 211.352 89.1927C205.848 88.7409 201.473 88.7174 198.578 91.974C195.917 94.9682 196.958 101.665 196.213 105.647C196.15 104.191 196.21 102.535 195.294 103.324C195.225 99.4778 194.83 94.4233 197.576 90.2968C199.814 86.9317 205.092 83.8491 213.846 85.0627C222.139 86.2129 227.688 90.346 228.953 95.8226L228.952 95.8221Z" fill="#B07346"/>
<path d="M229.65 111.071C228.376 114.95 224.594 116.415 222.303 115.507C220.539 114.807 221.098 111.744 221.844 109.667C222.569 107.651 223.624 105.662 225.941 105.426C228.663 105.147 230.646 108.036 229.649 111.071H229.65Z" fill="#FFB38F"/>
<path d="M226.687 111.346C226.005 113.021 224.134 113.766 222.964 113.259C222.593 113.097 222.794 112.093 223.258 110.823C223.78 109.396 224.39 108.311 225.469 108.341C226.636 108.372 227.259 109.94 226.686 111.346L226.687 111.346Z" fill="#F79F7C"/>
<path d="M211.785 112.084C211.788 113.212 213.517 114.122 215.647 114.116C217.778 114.111 219.503 113.191 219.5 112.064C219.497 110.936 217.768 110.026 215.637 110.032C213.507 110.037 211.782 110.955 211.785 112.084Z" fill="#FF9B76"/>
<path d="M218.359 106.208C216.557 106.399 216.324 105.811 216.433 105.494L216.759 104.54C216.754 105.57 217.824 106.081 218.359 106.208Z" fill="#B07346"/>
<path d="M218.28 105.189C216.547 105.718 216.207 105.185 216.254 104.853L216.393 103.855C216.583 104.867 217.73 105.166 218.28 105.189Z" fill="#B07346"/>
<path d="M216.417 103.855C215.02 102.438 212.133 102.927 211.345 104.607C212.178 103.34 213.8 102.892 215.149 103.517C215.983 103.905 216.596 104.634 216.789 105.468C216.942 106.133 216.812 106.893 216.417 107.362C216.882 107.047 217.814 105.271 216.417 103.855Z" fill="#B07346"/>
<path d="M211.462 104.321C210.464 105.441 210.702 106.952 211.462 107.495C212.607 108.315 215.127 108.182 216.344 107.495C217.447 106.521 217.093 104.593 215.482 103.671C214.072 102.864 212.428 103.238 211.462 104.321Z" fill="#F9FEFF"/>
<mask id="mask2_39_24229" style="mask-type:alpha" maskUnits="userSpaceOnUse" x="210" y="103" width="7" height="6">
<path d="M211.462 104.321C210.464 105.441 210.702 106.952 211.462 107.495C212.607 108.315 215.127 108.182 216.344 107.495C217.447 106.521 217.093 104.593 215.482 103.671C214.072 102.864 212.428 103.238 211.462 104.321Z" fill="#F9FEFF"/>
</mask>
<g mask="url(#mask2_39_24229)">
<path d="M215.023 105.087C215.396 106.474 214.738 107.949 213.553 108.381C212.369 108.813 211.106 108.038 210.734 106.65C210.361 105.263 211.019 103.788 212.204 103.356C213.388 102.924 214.651 103.699 215.023 105.087Z" fill="#7BA08C"/>
<path d="M213.649 105.437C213.838 106.124 213.504 106.853 212.903 107.066C212.301 107.28 211.66 106.897 211.471 106.211C211.282 105.524 211.616 104.795 212.218 104.581C212.819 104.368 213.46 104.751 213.649 105.437Z" fill="#484A49"/>
<path d="M214.081 104.838C214.185 105.223 214.002 105.633 213.673 105.752C213.345 105.872 212.994 105.657 212.891 105.272C212.787 104.886 212.97 104.477 213.299 104.358C213.627 104.238 213.978 104.453 214.081 104.838Z" fill="#FEFFFE"/>
</g>
<path d="M198.436 102.901C199.723 103.74 200.157 103.297 200.213 102.971L200.382 101.993C199.936 102.921 198.899 102.985 198.436 102.901Z" fill="#B07346"/>
<path d="M198.942 102.014C200.028 103.131 200.52 102.778 200.63 102.461L200.96 101.512C200.373 102.352 199.37 102.197 198.942 102.014Z" fill="#B07346"/>
<path d="M200.315 101.925C201.743 100.758 204.047 101.701 204.383 103.477C203.932 102.1 202.67 101.399 201.431 101.797C200.665 102.043 200.018 102.661 199.7 103.449C199.447 104.078 199.41 104.845 199.649 105.369C199.323 104.984 198.886 103.091 200.315 101.925Z" fill="#B07346"/>
<path d="M200.198 102.421C199.194 103.363 199.163 104.843 199.715 105.465C200.547 106.403 202.672 106.609 203.793 106.112C204.862 105.323 204.859 103.427 203.654 102.329C202.599 101.368 201.169 101.509 200.198 102.421Z" fill="#F9FEFF"/>
<mask id="mask3_39_24229" style="mask-type:alpha" maskUnits="userSpaceOnUse" x="199" y="101" width="6" height="6">
<path d="M200.198 102.422C199.194 103.365 199.163 104.848 199.714 105.47C200.545 106.409 202.671 106.615 203.792 106.117C204.861 105.327 204.859 103.428 203.654 102.329C202.599 101.367 201.169 101.509 200.198 102.422Z" fill="#F9FEFF"/>
</mask>
<g mask="url(#mask3_39_24229)">
<path d="M203.047 103.679C203.141 105.098 202.361 106.468 201.304 106.738C200.247 107.008 199.314 106.075 199.22 104.655C199.126 103.235 199.907 101.866 200.964 101.596C202.02 101.326 202.953 102.259 203.047 103.679Z" fill="#7BA08C"/>
<path d="M201.845 103.843C201.895 104.546 201.502 105.222 200.966 105.353C200.431 105.485 199.955 105.021 199.905 104.319C199.854 103.616 200.247 102.94 200.783 102.808C201.319 102.677 201.794 103.141 201.845 103.843Z" fill="#484A49"/>
<path d="M202.299 103.309C202.325 103.703 202.109 104.082 201.815 104.157C201.522 104.232 201.263 103.973 201.237 103.579C201.211 103.185 201.428 102.805 201.721 102.73C202.014 102.655 202.273 102.914 202.299 103.309Z" fill="#FEFFFE"/>
</g>
<path d="M201.245 88.6571C201.515 89.3821 201.96 89.5277 202.52 89.4346C201.912 88.0997 202.651 86.5177 204.776 86.3833C204.257 87.0582 204.362 88.0202 205.409 88.1782C206.416 88.3302 207.5 87.5546 209.499 87.3246C212.238 87.0091 215.16 87.5645 217.254 89.3508C217.356 89.5549 217.508 89.9616 217.433 90.5521C217.303 91.5881 215.827 92.5554 214.865 92.66C215.75 92.0386 216.202 90.9116 216.025 90.1278C215.217 92.0134 209.583 94.4555 204.554 93.6468C206.039 93.4084 207.01 92.3936 207.135 91.9592C203.423 93.1589 200.934 90.9066 201.245 88.6574L201.245 88.6571Z" fill="#B07346"/>
<path d="M219.53 101.693C218.544 100.478 217.218 99.751 216.328 99.4077C216.203 99.3591 216.222 99.1608 216.356 99.1534C218.761 99.0213 219.582 100.535 219.736 101.616C219.752 101.735 219.606 101.787 219.53 101.693Z" fill="#B07346"/>
<path d="M198.735 99.5867C199.977 98.6355 201.436 98.2377 202.382 98.1116C202.515 98.0937 202.543 97.8964 202.414 97.8577C200.107 97.1682 198.955 98.4481 198.553 99.4637C198.509 99.5755 198.64 99.6598 198.735 99.5867Z" fill="#B07346"/>
<path d="M180.509 41.4519H140.532V79.1273H180.509V41.4519Z" fill="#D7E1EA" fill-opacity="0.4"/>
<path d="M178.45 38.9456H138.473V76.621H178.45V38.9456Z" fill="#FEEBC3"/>
<path d="M172.957 71.4554H144.424L143.661 43.8069H172.957V71.4554Z" fill="#C6DFD9"/>
<path d="M145.857 43.741L143.661 43.8069L144.424 71.4555H144.856C145.166 64.2153 145.666 53.4326 145.857 43.741Z" fill="#B2CDC7"/>
<path d="M163.284 66.5405C163.205 66.4814 163.103 66.4031 163.056 66.3743C162.944 66.3014 162.834 66.2272 162.718 66.1599C162.504 66.0334 162.285 65.9178 162.059 65.8136L162.032 65.804C161.902 65.7587 161.772 65.7119 161.64 65.6666C161.368 65.5851 161.091 65.5195 160.812 65.4701L160.748 65.4577H160.674C160.522 65.4467 160.37 65.4344 160.218 65.4316C159.899 65.4215 159.58 65.428 159.262 65.4509L158.961 65.477L158.66 65.5223C158.294 65.591 157.93 65.6693 157.57 65.7683C157.113 65.8878 156.663 66.0323 156.223 66.2011L156.13 66.2368L156.009 66.2973C155.828 66.3839 155.647 66.4704 155.472 66.5721C155.121 66.7631 154.782 66.9624 154.446 67.1836C154.282 67.2949 154.118 67.4062 153.958 67.523L153.847 67.6041L153.777 67.6618C152.5 68.7382 151.341 69.9459 150.318 71.2647L150.168 71.4557H166.52C166.481 71.3568 166.443 71.2565 166.403 71.1575L166.379 71.1026C166.258 70.8278 166.132 70.5529 166 70.2781C165.741 69.7416 165.454 69.2187 165.141 68.7116C164.963 68.4286 164.78 68.1469 164.581 67.8775L164.53 67.8116C164.459 67.7264 164.392 67.6412 164.317 67.5587C164 67.1932 163.654 66.8528 163.284 66.5405Z" fill="white"/>
<path d="M155.342 49.239C155.918 45.8752 152.545 45.0933 150.872 47.1779C149.991 48.2772 150.012 49.5853 150.505 50.8165C151.109 52.328 151.316 52.2662 151.014 53.8396C150.433 56.8626 150.04 61.1952 152.118 63.7648C153.747 65.7834 156.797 66.6889 159.288 66.6628C165.714 66.5927 166.626 59.369 165.989 54.3411C168.623 54.2037 170.371 53.6115 170.514 50.6777C170.652 47.8704 169.087 46.2036 166.129 46.598C163.682 46.925 162.265 49.0631 161.456 49.1744C159.329 49.4685 157.854 49.3558 155.707 49.2459C155.352 49.228 156.034 49.1511 155.707 49.2459C155.68 49.1648 155.749 49.3338 155.707 49.2459C155.569 49.338 155.419 49.0645 155.346 49.2459L155.342 49.239Z" fill="white"/>
<path d="M155.146 62.5486C157.131 63.8293 160.667 63.4487 161.68 61.3325C162.322 59.9832 162.685 57.8808 161.224 57.0082C159.501 55.9776 156.787 56.0147 155.344 57.4795C154.095 58.7465 153.334 61.3793 155.146 62.5486Z" fill="#C6DFD9" fill-opacity="0.4"/>
<path d="M157.417 59.0872C158.245 59.5475 159.738 59.4114 160.16 58.6502C160.436 58.1651 160.583 57.4135 159.97 57.0961C159.245 56.725 158.105 56.7388 157.499 57.2651C156.975 57.7213 156.655 58.6667 157.417 59.0872Z" fill="#B2CDC7"/>
<path d="M155.618 55.4004C156.049 55.7494 156.819 55.6464 157.037 55.0693C157.175 54.7024 157.255 54.1294 156.938 53.8916C156.564 53.6168 155.972 53.6168 155.661 54.0194C155.391 54.3643 155.225 55.0816 155.618 55.4004Z" fill="#B2CDC7"/>
<path d="M159.789 55.1325C160.275 55.5242 161.139 55.4074 161.386 54.7588C161.542 54.3466 161.63 53.7007 161.274 53.4328C160.853 53.1181 160.191 53.1291 159.837 53.5784C159.532 53.9659 159.347 54.7739 159.789 55.1325Z" fill="#B2CDC7"/>
<path d="M218.836 23.4497H190.82V50.6909H218.836V23.4497Z" fill="#D7E1EA" fill-opacity="0.4"/>
<path d="M217.18 21.6365H189.164V48.8776H217.18V21.6365Z" fill="#FEEBC3"/>
<path d="M213.331 45.1425H193.334L192.8 25.1511H213.331V45.1425Z" fill="white"/>
<path d="M194.907 25.2002L192.8 25.1511L193.334 45.1425H194.143C194.449 40.8092 194.677 31.6541 194.907 25.2002Z" fill="#FAF5F2"/>
<path d="M198.805 33.6817C199.218 34.4373 200.24 33.4488 200.609 33.178C201.468 32.5622 202.28 31.5963 203.325 31.3079C204.112 33.2095 197.776 34.3038 198.648 36.2998C199.681 36.4711 202.72 34.392 202.73 35.2999C202.73 35.7659 201.249 36.8375 200.932 37.1196C200.164 37.8034 198.592 39.1672 198.694 40.288C198.926 42.8154 202.169 37.1511 202.561 39.2126C202.786 40.3913 201.996 44.1478 204.028 44.0382C206.915 44.3681 204.439 36.3691 205.809 37.5087C206.488 38.0729 207.153 38.9481 207.96 39.1836C209.013 39.4909 209.069 37.9432 208.961 37.3098C208.616 35.2672 206.135 34.8806 206.095 32.8531C207.23 32.3809 207.905 34.9864 208.77 33.8933C209.426 33.0659 207.785 31.6265 207.351 31.1379C206.406 30.0839 205.972 28.2151 204.656 27.5892C203.798 27.1825 202.978 28.9405 202.204 29.5411C201.584 30.0298 198.295 32.7473 198.805 33.6817Z" fill="#BECCBD"/>
<path d="M177.456 171.522C174.23 172.235 173.389 172.235 171.545 172.473C171.904 171.216 167.077 168.899 168.455 168.145C169.832 167.391 173.091 167.836 177.109 168.145C181.127 168.455 182.705 170.361 177.456 171.522Z" fill="#E7CF9B"/>
<path d="M159.491 159.894L171.688 160.217L176.182 158.038L165.59 157.636L159.491 159.894Z" fill="#E2D4E8"/>
<path d="M170.046 159.011C169.941 159.109 169.808 159.187 169.659 159.238C169.413 159.34 169.451 159.415 169.767 159.465C169.912 159.486 170.06 159.494 170.207 159.487C170.391 159.487 170.575 159.47 170.754 159.434C171.07 159.391 171.356 159.256 171.557 159.056C171.722 158.848 171.557 158.678 171.042 158.534C170.302 158.355 169.534 158.261 168.762 158.255C167.895 158.219 167.026 158.256 166.169 158.364C165.494 158.463 165.069 158.633 164.894 158.837C164.719 159.041 164.818 159.166 165.102 159.279C165.276 159.343 165.463 159.38 165.654 159.389C165.847 159.409 166.042 159.409 166.235 159.389C166.556 159.344 166.646 159.272 166.509 159.17C166.465 159.142 166.424 159.112 166.386 159.079C166.369 159.059 166.358 159.035 166.353 159.011C166.344 158.997 166.339 158.981 166.339 158.965C166.339 158.95 166.344 158.934 166.353 158.92C166.424 158.833 166.632 158.765 166.991 158.716C167.46 158.665 167.934 158.649 168.407 158.671C168.846 158.675 169.282 158.714 169.711 158.788C170.013 158.844 170.117 158.92 170.046 159.011Z" fill="white" fill-opacity="0.3"/>
<path d="M159.491 159.894V172.032L171.614 172.548L171.688 160.217L159.491 159.894Z" fill="#D0B8DC"/>
<path d="M162.643 168.938C162.643 169.501 162.93 169.83 163.513 169.926C164.023 170.011 164.649 170.053 165.382 170.053C167.441 170.053 168.471 169.289 168.471 167.75C168.471 167.367 168.375 167.028 168.184 166.709C167.993 166.401 167.707 166.178 167.324 166.03C167.579 165.902 167.781 165.701 167.929 165.446C168.078 165.191 168.163 164.915 168.163 164.597C168.163 163.928 167.898 163.429 167.377 163.111C166.857 162.792 166.167 162.622 165.318 162.622C164.702 162.622 164.108 162.665 163.535 162.75C162.94 162.845 162.643 163.174 162.643 163.748V168.938ZM165.456 166.975C166.157 166.975 166.507 167.229 166.507 167.739C166.507 168.259 166.146 168.514 165.435 168.514C165 168.514 164.671 168.503 164.448 168.471V166.975H165.456ZM165.265 164.162C165.881 164.162 166.199 164.406 166.199 164.883C166.199 165.106 166.125 165.276 165.976 165.404C165.828 165.531 165.605 165.595 165.329 165.595H164.448V164.204C164.755 164.183 165.031 164.162 165.265 164.162Z" fill="white" fill-opacity="0.5"/>
<path d="M171.567 172.473L176.153 169.698L176.182 158.038L171.688 160.217L171.567 172.473Z" fill="#C5A6D4"/>
<path d="M172.785 164.712C172.785 165.634 172.952 166.187 173.285 166.365L172.884 167.914C172.804 168.181 172.771 168.46 172.785 168.738C172.773 168.928 172.835 169.115 172.958 169.26C173.063 169.358 173.18 169.334 173.309 169.199C173.462 169.003 173.564 168.773 173.605 168.529L174.117 166.23C174.218 166.168 174.313 166.099 174.401 166.021V167.632C174.39 167.842 174.426 168.052 174.506 168.246C174.518 168.276 174.536 168.303 174.56 168.325C174.584 168.347 174.612 168.362 174.644 168.371C174.675 168.38 174.707 168.382 174.739 168.376C174.771 168.37 174.801 168.357 174.827 168.338C174.981 168.232 175.092 168.076 175.141 167.896C175.214 167.665 175.252 167.425 175.253 167.183V161.885C175.264 161.675 175.228 161.465 175.148 161.271C175.127 161.211 175.084 161.161 175.028 161.13C174.973 161.1 174.907 161.091 174.845 161.105C174.593 161.174 174.35 161.275 174.124 161.406C173.673 161.694 173.335 162.128 173.167 162.635C172.906 163.296 172.776 164.002 172.785 164.712V164.712ZM174.161 163.084C174.241 163.041 174.315 163.01 174.401 162.973V164.792C174.328 164.849 174.25 164.898 174.167 164.94C174.025 165.02 173.92 165.007 173.834 164.89C173.733 164.702 173.69 164.488 173.71 164.276C173.702 164.023 173.742 163.771 173.828 163.532C173.88 163.347 173.998 163.188 174.161 163.084V163.084Z" fill="white" fill-opacity="0.3"/>
<path d="M202.487 177.446C196.753 178.954 192.93 178.624 191.018 178.624C191.416 177.367 191.639 173.486 193.169 172.732C194.698 171.978 200.496 173.046 203.204 173.675C205.354 174.303 208.221 175.937 202.487 177.446Z" fill="#E7CF9B"/>
<path d="M201.527 163.818V176.227L190.836 178.655V165.982L201.527 163.818Z" fill="#BECCBD"/>
<path d="M197.335 170.296L195.168 170.787V169.139C195.172 169.032 195.155 168.924 195.116 168.824C195.077 168.724 195.018 168.635 194.943 168.561C194.856 168.49 194.754 168.442 194.647 168.421C194.539 168.4 194.427 168.406 194.322 168.44C194.072 168.493 193.847 168.636 193.686 168.845C193.552 169.043 193.484 169.283 193.494 169.527V174.568C193.484 174.68 193.498 174.792 193.535 174.897C193.573 175.003 193.631 175.098 193.708 175.175C193.799 175.244 193.904 175.289 194.014 175.308C194.125 175.326 194.238 175.316 194.344 175.28C194.589 175.234 194.809 175.096 194.965 174.892C195.111 174.69 195.19 174.442 195.19 174.187V172.377L197.385 171.886V173.695C197.376 173.807 197.391 173.92 197.429 174.025C197.467 174.13 197.527 174.225 197.604 174.302C197.695 174.372 197.8 174.417 197.911 174.434C198.022 174.451 198.135 174.44 198.241 174.401C198.487 174.355 198.709 174.217 198.866 174.013C199 173.806 199.065 173.558 199.053 173.308V168.266C199.057 168.16 199.039 168.054 199.003 167.954C198.966 167.855 198.91 167.764 198.839 167.688C198.752 167.615 198.65 167.565 198.542 167.542C198.433 167.519 198.32 167.523 198.213 167.555C197.967 167.597 197.743 167.73 197.582 167.93C197.421 168.131 197.334 168.385 197.335 168.648V170.296Z" fill="white" fill-opacity="0.5"/>
<path d="M190.878 178.655L182.426 175.068L182.462 162.541L190.878 165.982V178.655Z" fill="#C6DFD9"/>
<path opacity="0.4" d="M185.511 166.345C185.433 166.299 185.339 166.282 185.248 166.296C185.157 166.31 185.074 166.355 185.017 166.422C184.878 166.636 184.813 166.884 184.832 167.132C184.842 168.392 184.782 169.651 184.653 170.905C184.581 171.456 184.427 171.643 184.206 171.55C183.843 171.373 183.64 171.55 183.61 172.1C183.572 172.427 183.641 172.757 183.807 173.048C183.953 173.296 184.186 173.49 184.468 173.598C185.064 173.83 185.464 173.565 185.708 172.794C186.027 171.356 186.165 169.889 186.119 168.421L187.067 168.796L187.114 173.598C187.111 173.876 187.176 174.151 187.305 174.403C187.412 174.621 187.603 174.796 187.841 174.893C187.926 174.939 188.025 174.956 188.122 174.94C188.218 174.923 188.305 174.875 188.366 174.805C188.506 174.612 188.567 174.38 188.539 174.149L188.473 168.531C188.471 168.258 188.406 167.987 188.282 167.738C188.179 167.523 187.998 167.348 187.77 167.243L185.511 166.345Z" fill="white"/>
<path d="M201.475 163.797L190.889 165.991L182.311 162.561L192.476 160.613L201.475 163.797Z" fill="#E1EDEA"/>
<path d="M196.829 163.96C197.076 163.905 197.212 163.843 197.218 163.769C197.225 163.694 197.126 163.608 196.903 163.521C196.671 163.434 196.427 163.382 196.18 163.367C195.922 163.343 195.661 163.358 195.407 163.41L194.233 163.664L190.326 162.161C190.072 162.061 189.806 161.994 189.534 161.964C189.261 161.941 188.986 161.96 188.718 162.019C188.471 162.069 188.36 162.143 188.36 162.229C188.36 162.316 188.496 162.409 188.737 162.501L192.644 164.004L191.451 164.251C191.21 164.3 191.086 164.368 191.08 164.449C191.074 164.529 191.179 164.616 191.395 164.696C191.625 164.783 191.867 164.835 192.112 164.85C192.367 164.869 192.623 164.852 192.873 164.801L196.829 163.96Z" fill="white" fill-opacity="0.5"/>
</g>
<defs>
<clipPath id="clip0_39_24229">
<rect width="272" height="187.309" fill="white"/>
</clipPath>
</defs>
</svg>
