<svg width="100" height="101" viewBox="0 0 100 101" fill="none" xmlns="http://www.w3.org/2000/svg">
<g clip-path="url(#clip0_2_529)">
<path d="M93.0459 57.3528C91.1106 69.0273 90.1429 74.8645 87.0565 79.3424C85.401 81.7441 83.3277 83.8291 80.9353 85.4981C76.4749 88.6097 70.6432 89.6102 58.9799 91.6113L56.2693 92.0764C38.4047 95.1414 29.4724 96.6739 22.5567 93.4405C19.2072 91.8745 16.2581 89.5667 13.9327 86.6921C9.13136 80.7566 8.47122 71.7179 7.15095 53.6404C5.67928 33.4898 4.94344 23.4145 9.43668 16.5274C11.6038 13.2057 14.549 10.4632 18.0166 8.53801C25.2062 4.54652 35.2035 5.9978 55.1982 8.90036L57.9198 9.29546C74.2376 11.6643 82.3964 12.8487 87.7641 17.4549C90.6171 19.9032 92.8648 22.9784 94.3315 26.44C97.0909 32.9527 95.7426 41.0861 93.0459 57.3528Z" fill="#E8F1E8"/>
<circle cx="74.1666" cy="50.7569" r="25.8333" fill="#EFD1BC"/>
<circle cx="74.1666" cy="50.7569" r="25.8333" fill="white" fill-opacity="0.2"/>
<circle cx="74.1667" cy="50.7569" r="20.0926" fill="#EABFA1"/>
<circle cx="74.1667" cy="50.7569" r="20.0926" fill="white" fill-opacity="0.2"/>
<path d="M72.8499 40.4073H76.8971V64.0161H72.2428V45.3314L67.7908 46.5793L66.6441 42.5996L72.8499 40.4073Z" fill="#DCB484"/>
<circle cx="25.8333" cy="50.7569" r="25.8333" fill="#DEDEDE"/>
<circle cx="25.8333" cy="50.7569" r="25.8333" fill="white" fill-opacity="0.2"/>
<circle cx="25.8334" cy="50.7569" r="20.0926" fill="#CECECE"/>
<circle cx="25.8334" cy="50.7569" r="20.0926" fill="white" fill-opacity="0.2"/>
<circle cx="51.6667" cy="50.7568" r="30" fill="#FEEBC3"/>
<circle cx="51.6666" cy="50.7569" r="23.3333" fill="#F1D8A3" fill-opacity="0.5"/>
<path d="M50.1375 38.6734H54.8375V66.0901H49.4325V44.3918L44.2625 45.8409L42.9308 41.2193L50.1375 38.6734Z" fill="#EBD098"/>
</g>
<defs>
<clipPath id="clip0_2_529">
<rect y="0.756836" width="100" height="100" rx="16.6667" fill="white"/>
</clipPath>
</defs>
</svg>
