<svg width="100" height="101" viewBox="0 0 100 101" fill="none" xmlns="http://www.w3.org/2000/svg">
<g clip-path="url(#clip0_2_536)">
<path d="M8.62075 44.1609C10.5561 32.4865 11.5238 26.6493 14.6102 22.1714C16.2657 19.7697 18.3389 17.6847 20.7314 16.0157C25.1918 12.9041 31.0235 11.9036 42.6868 9.90249L45.3974 9.43744C63.262 6.37243 72.1943 4.83993 79.11 8.07332C82.4595 9.63932 85.4086 11.9471 87.734 14.8217C92.5353 20.7571 93.1955 29.7959 94.5157 47.8734C95.9874 68.024 96.7233 78.0993 92.23 84.9864C90.0629 88.3081 87.1177 91.0506 83.6501 92.9758C76.4605 96.9673 66.4632 95.516 46.4685 92.6134L43.7469 92.2183C27.4291 89.8495 19.2703 88.6651 13.9026 84.0589C11.0496 81.6106 8.80187 78.5354 7.33523 75.0738C4.57581 68.5611 5.92413 60.4277 8.62075 44.1609Z" fill="#EDF4F5"/>
<path d="M83.7279 59.851C84.2325 59.4853 84.6214 58.933 84.8932 58.2C83.6932 57.6868 82.6696 56.7586 81.8369 55.4286C81.1661 54.3573 81.0808 53.0908 81.6186 52.2031C81.8991 51.7391 82.5959 50.9801 84.1038 51.0928C84.8802 51.1521 85.5654 51.5034 86.0844 52.1106C87.0401 53.2267 87.2685 55.0266 87.1731 56.2295C87.1572 56.4261 87.1384 56.6198 87.1138 56.8078C88.0477 56.8338 88.7749 56.7427 89.7421 56.51C90.1643 56.4088 90.5763 56.2627 90.9681 56.0762L93.3333 54.9558C92.1493 56.6762 88.4713 58.7985 86.709 58.6496C86.31 59.8293 85.6796 60.7373 84.8223 61.3589C84.1674 61.8346 83.4388 62.0933 82.7101 62.2177C82.5121 61.5888 82.2677 60.9744 81.9193 60.4409C82.5598 60.4004 83.1988 60.237 83.7294 59.8525L83.7279 59.851ZM85.3182 56.0849C85.3905 55.1712 85.191 53.9293 84.6705 53.3221C84.4725 53.0894 84.2469 52.9723 83.9621 52.9506C83.9115 52.9462 83.8595 52.9448 83.806 52.9448C83.5703 52.9448 83.3188 52.9911 83.2118 53.1689C83.0701 53.4031 83.0932 53.9293 83.4156 54.444C83.9708 55.3302 84.5852 55.9519 85.2965 56.3365C85.3052 56.2541 85.3124 56.1717 85.3182 56.0864V56.0849Z" fill="#FFD9C7"/>
<path d="M81.9194 60.4408C82.2678 60.9743 82.5121 61.5873 82.7102 62.2176C82.5338 62.248 82.3574 62.2682 82.1811 62.2841C81.9512 61.661 81.691 61.0494 81.4033 60.4466C81.5739 60.4524 81.7474 60.4509 81.9208 60.4408H81.9194Z" fill="#FFD9C7"/>
<path d="M12.9048 72.796C13.0104 71.6091 14.404 71.2462 15.312 70.7994C18.8525 69.0559 18.4694 64.6421 19.7995 61.4499C20.8896 58.8317 22.4958 56.4607 24.4229 54.389C25.5997 55.8145 26.3819 57.5219 27.018 59.4765C27.1785 59.9695 27.6585 60.2905 28.1731 60.237C32.9758 59.7281 36.7925 55.2131 37.2089 49.5415C37.2537 48.9343 36.9039 48.3647 36.3328 48.1521C35.5911 47.876 34.8611 47.6432 34.144 47.4466C39.3356 45.0337 45.1416 43.8815 50.8248 43.8815C64.831 43.8815 76.7741 50.7718 81.4019 60.4466C81.6896 61.048 81.9498 61.661 82.1797 62.2841C83.0095 64.5308 83.4562 66.9032 83.4562 69.3595C83.4562 69.8814 83.4331 70.4004 83.3941 70.9151C69.8664 85.0948 54.1196 85.3724 41.3278 82.3089C37.6412 81.4024 34.2365 80.2733 31.3291 79.1586C28.0835 77.9139 24.8537 76.3395 21.3797 76.2354C18.7166 76.1559 16.162 76.9467 13.7217 78.0729C13.713 76.8903 13.6768 75.8913 13.3024 74.7217C13.1014 74.0943 12.847 73.4567 12.9048 72.8003V72.796Z" fill="#FFD9C7"/>
<path d="M43.4675 46.6455C47.2192 45.3892 54.6473 45.4947 58.4221 46.8682C59.0785 47.1067 59.2867 47.7819 58.8501 48.259L58.8182 48.2922C58.4901 48.6507 57.906 48.765 57.413 48.5828C54.3351 47.4494 47.3479 47.338 44.3494 48.3717C43.8622 48.5394 43.3042 48.4209 42.9977 48.0768L42.9716 48.0479C42.5437 47.5679 42.7837 46.874 43.4675 46.6455Z" fill="#B07346"/>
<path d="M24.8697 63.7919C25.8196 63.9524 26.4022 65.1928 26.1709 66.5619C25.9396 67.931 24.9811 68.9098 24.0312 68.7493C23.0814 68.5888 22.4987 67.3484 22.7301 65.9793C22.9614 64.6102 23.9199 63.6314 24.8697 63.7919Z" fill="#B07346"/>
<path d="M37.2088 49.5402C36.7924 55.2117 32.9757 59.7282 28.173 60.2356C27.6583 60.2906 27.1769 59.9682 27.0179 59.4752C26.3832 57.5206 25.6011 55.8146 24.4228 54.3877C23.3356 53.0721 21.913 51.9935 19.9526 51.1825C18.5835 50.6158 18.637 48.6496 20.0292 48.1407C24.0859 46.6574 28.7802 45.9779 34.1438 47.4438C34.8609 47.6405 35.591 47.8732 36.3327 48.1494C36.9023 48.3619 37.2522 48.9315 37.2088 49.5387V49.5402ZM21.6412 49.1469C20.7723 49.3565 19.1791 49.8394 20.3314 50.9223C20.6118 51.1854 20.9718 51.343 21.3174 51.5136C23.1448 52.4128 24.722 53.8065 25.8642 55.4922C26.8646 56.9697 27.0468 59.6819 29.4698 58.6627C35.0084 56.3322 32.9208 52.754 29.1734 50.6606C26.8241 49.3479 23.8228 48.6192 21.6412 49.1469Z" fill="#FFD9C7"/>
<path d="M29.4699 58.664C27.0468 59.6832 26.8647 56.971 25.8642 55.4935C24.7221 53.8078 23.1463 52.4141 21.3174 51.5149C20.9719 51.3457 20.6119 51.1881 20.3314 50.9236C19.1792 49.8407 20.7724 49.3579 21.6413 49.1482C23.8229 48.6205 26.8242 49.3506 29.1735 50.6619C32.9208 52.7553 35.0085 56.332 29.4699 58.664Z" fill="#FFD9C7"/>
<path d="M21.378 76.2312C24.8521 76.3353 28.0819 77.9111 31.3275 79.1544C34.3491 80.3124 37.7205 81.4416 41.3262 82.3047C54.1194 85.3681 69.8648 85.0906 83.3925 70.9109C83.2566 72.6761 82.8879 74.3936 82.3139 76.0432H82.3154C79.9314 84.2231 69.1246 100.862 66.8158 100.862H59.5785C58.6156 100.862 57.965 100.509 57.5385 99.9584C58.2122 100.18 58.9394 100.282 59.5452 100.292C60.7958 100.314 62.2747 100.577 63.466 100.077C64.8944 99.477 65.1893 96.1041 64.1224 95.1413C63.0988 94.216 61.4593 94.362 60.1914 94.4603C59.2618 94.5326 57.8205 94.401 56.9371 94.9446C56.8966 94.774 56.833 94.6107 56.7304 94.4574C56.7217 94.443 56.713 94.43 56.7029 94.4155C54.796 94.6859 52.8313 94.8304 50.8231 94.8304C48.4334 94.8304 46.0378 94.6266 43.6769 94.216C43.2721 96.3253 41.3985 100.862 39.3556 100.862H32.1183C31.1931 100.862 30.3647 100.443 29.8674 99.7358C31.6095 100.524 34.5876 100.178 35.9524 99.8746C36.1577 99.8283 36.3644 99.7763 36.548 99.6751C37.5037 99.143 37.6627 97.7436 37.7697 96.7749C37.8694 95.8627 38.2959 94.0801 37.521 93.4367C35.4507 91.7192 32.4798 91.1641 29.9093 90.6725C29.8269 90.6566 29.7401 90.6422 29.6534 90.6364C29.6302 90.2186 29.5652 89.8051 29.425 89.4104C29.2327 88.8668 28.8206 88.3738 28.4187 87.9343C27.5744 87.3184 26.7735 86.6548 26.0477 85.9349C23.856 83.7619 23.3876 83.1186 20.2605 82.3957C18.3608 81.9562 16.5898 81.0628 14.8593 80.1939C14.0135 79.7703 13.7244 79.0763 13.7186 78.1713C13.7186 78.1352 13.7186 78.1019 13.7186 78.0658C16.159 76.9396 18.7136 76.1488 21.3766 76.2283L21.378 76.2312Z" fill="#FFD9C7"/>
<path d="M37.5239 93.4395C38.2989 94.0829 37.8724 95.864 37.7726 96.7777C37.6671 97.7463 37.5066 99.1458 36.551 99.6778C36.3674 99.7805 36.1606 99.8325 35.9553 99.8773C34.5891 100.181 31.6124 100.526 29.8703 99.7385C29.6462 99.419 29.49 99.0431 29.4221 98.6181C29.0534 96.2847 29.4944 93.8834 29.6476 91.5514C29.6679 91.2492 29.6737 90.9427 29.6563 90.6377C29.7416 90.6435 29.8284 90.6579 29.9122 90.6738C32.4827 91.1654 35.4537 91.722 37.5239 93.4381V93.4395Z" fill="#FFD9C7"/>
<path d="M64.1239 95.144C65.1909 96.1069 64.896 99.4798 63.4676 100.08C62.2763 100.58 60.7973 100.315 59.5468 100.295C58.9425 100.285 58.2153 100.182 57.5401 99.9612C56.9647 99.2181 56.7985 98.1136 56.8433 97.0134C56.8693 96.37 57.0934 95.6052 56.9387 94.9474C57.822 94.4038 59.2634 94.5354 60.193 94.4631C61.4609 94.3648 63.1004 94.2188 64.1239 95.144Z" fill="#FFD9C7"/>
</g>
<circle cx="50.8603" cy="34.9505" r="6.69363" fill="#FEEBC3"/>
<circle cx="50.8603" cy="34.9504" r="5.20616" fill="#F1D8A3" fill-opacity="0.5"/>
<circle cx="45.8603" cy="7.45047" r="6.69363" fill="#FEEBC3"/>
<circle cx="45.8603" cy="7.45042" r="5.20616" fill="#F1D8A3" fill-opacity="0.5"/>
<circle cx="59.9729" cy="19.1171" r="6.69363" fill="#FEEBC3"/>
<circle cx="59.9728" cy="19.117" r="5.20616" fill="#F1D8A3" fill-opacity="0.5"/>
<defs>
<clipPath id="clip0_2_536">
<rect y="0.756836" width="100" height="100" rx="16.6667" fill="white"/>
</clipPath>
</defs>
</svg>
