<svg width="100" height="101" viewBox="0 0 100 101" fill="none" xmlns="http://www.w3.org/2000/svg">
<g clip-path="url(#clip0_2_526)">
<path d="M56.5959 9.37765C68.2704 11.313 74.1076 12.2806 78.5855 15.3671C80.9872 17.0226 83.0722 19.0958 84.7412 21.4883C87.8528 25.9487 88.8533 31.7803 90.8544 43.4437L91.3195 46.1543C94.3845 64.0189 95.917 72.9512 92.6836 79.8669C91.1176 83.2164 88.8098 86.1655 85.9352 88.4909C79.9998 93.2922 70.961 93.9524 52.8835 95.2726V95.2726C32.7329 96.7443 22.6576 97.4801 15.7705 92.9869C12.4488 90.8198 9.70625 87.8746 7.78112 84.407C3.78962 77.2174 5.2409 67.2201 8.14347 47.2254L8.53856 44.5038C10.9074 28.186 12.0918 20.0271 16.698 14.6595C19.1463 11.8065 22.2215 9.55877 25.6831 8.09212C32.1958 5.3327 40.3292 6.68102 56.5959 9.37765V9.37765Z" fill="#FFD9C7"/>
<mask id="mask0_2_526" style="mask-type:alpha" maskUnits="userSpaceOnUse" x="5" y="6" width="90" height="91">
<path d="M56.5959 9.37765C68.2704 11.313 74.1076 12.2806 78.5855 15.3671C80.9872 17.0226 83.0722 19.0958 84.7412 21.4883C87.8528 25.9487 88.8533 31.7803 90.8544 43.4437L91.3195 46.1543C94.3845 64.0189 95.917 72.9512 92.6836 79.8669C91.1176 83.2164 88.8098 86.1655 85.9352 88.4909C79.9998 93.2922 70.961 93.9524 52.8835 95.2726V95.2726C32.7329 96.7443 22.6576 97.4801 15.7705 92.9869C12.4488 90.8198 9.70625 87.8746 7.78112 84.407C3.78962 77.2174 5.2409 67.2201 8.14347 47.2254L8.53856 44.5038C10.9074 28.186 12.0918 20.0271 16.698 14.6595C19.1463 11.8065 22.2215 9.55877 25.6831 8.09212C32.1958 5.3327 40.3292 6.68102 56.5959 9.37765V9.37765Z" fill="#FFD9C7"/>
</mask>
<g mask="url(#mask0_2_526)">
<path d="M75.4792 21.712L72.3776 38.2915C72.142 39.5509 70.6468 40.0728 69.7067 39.2024C67.4712 37.1327 64.0199 33.7379 62.0314 30.7934C60.043 27.849 58.1833 23.3793 57.0986 20.5325C56.6424 19.3352 57.6852 18.1432 58.9414 18.3952L75.4792 21.712Z" fill="#D7DCEA"/>
<path d="M69.6932 29.9795L65.7383 24.1232L92.8423 4.39844L98.1154 12.2068L69.6932 29.9795Z" fill="#D7DCEA"/>
</g>
<path d="M36.0802 95.2886L37.4907 124.588C37.1484 125.467 32.447 126.038 31.2119 124.524C31.207 119.2 31.8331 71.5889 32.1644 64.8326C32.1461 61.4551 34.3361 59.7049 34.7806 64.5817L35.9316 91.832C36.5857 91.5153 37.3336 91.1097 38.1411 90.5129C39.8706 89.2559 41.7122 87.2572 43.0935 84.943C44.6269 82.3742 46.7889 83.7177 45.8254 85.4399C43.7707 89.111 41.18 93.1279 36.079 95.2886H36.0802Z" fill="#D0976E"/>
<path d="M62.6602 79.9991C61.748 76.6362 56.8163 75.0467 51.6435 76.4498C46.4718 77.8529 43.0188 81.7164 43.9311 85.0793C44.8434 88.4422 49.7751 90.0317 54.9467 88.6298C60.1195 87.2266 63.5725 83.3632 62.6602 79.9991Z" fill="#BECCBD"/>
<path d="M31.5978 84.9612C33.8206 81.6847 31.5381 76.2574 26.4993 72.8384C21.4604 69.4195 15.5738 69.305 13.351 72.5814C11.1282 75.8591 13.4107 81.2865 18.4495 84.7042C23.4884 88.1231 29.375 88.2376 31.5978 84.9599V84.9612Z" fill="#BECCBD"/>
<path d="M45.8116 54.7791C50.8419 54.1117 54.5531 50.817 54.1025 47.4212C53.6518 44.0255 49.2086 41.8136 44.1782 42.4823C39.1479 43.1497 35.4367 46.4444 35.8873 49.8402C36.338 53.2359 40.7812 55.4478 45.8116 54.7791V54.7791Z" fill="white"/>
<path d="M32.5622 63.7995C34.751 68.3767 39.031 70.8895 42.1223 69.4108C45.2123 67.9322 45.9431 63.0237 43.7532 58.4464C41.5632 53.8692 37.2844 51.3565 34.1931 52.8351C31.1031 54.3138 30.3723 59.2223 32.5622 63.7995Z" fill="white"/>
<path d="M40.4206 40.1536C41.3402 35.1634 39.3537 30.6154 35.9847 29.9942C32.6169 29.3731 29.1396 32.9162 28.22 37.9064C27.3016 42.8965 29.2869 47.4445 32.6559 48.0657C36.0249 48.6868 39.5011 45.1437 40.4206 40.1548V40.1536Z" fill="white"/>
<path d="M19.6054 55.7741C15.9295 59.271 14.8614 64.1186 17.223 66.5997C19.5835 69.0819 24.4787 68.2586 28.1546 64.7629C31.8305 61.2661 32.8987 56.4184 30.537 53.9374C28.1765 51.4551 23.2814 52.2785 19.6054 55.7741V55.7741Z" fill="white"/>
<path d="M24.9412 40.7381C20.4797 38.3216 15.5395 38.8052 13.9086 41.8173C12.2777 44.8294 14.5724 49.23 19.0339 51.6465C23.4954 54.063 28.4356 53.5795 30.0665 50.5674C31.6974 47.5553 29.4027 43.1546 24.9412 40.7381Z" fill="white"/>
<path d="M26.9351 53.5102C28.4125 56.6002 32.1165 57.9071 35.2065 56.4297C38.2966 54.9511 39.6035 51.2484 38.126 48.1583C36.6474 45.0682 32.9447 43.7613 29.8546 45.2388C26.7646 46.7162 25.4577 50.4201 26.9351 53.5102Z" fill="#FEEBC3"/>
<path d="M64.3808 38.2568C64.0039 39.0208 63.1349 42.0183 63.0341 43.6793C62.88 46.2262 60.1442 45.8044 60.0078 44.0918C59.835 41.9082 62.57 39.5688 64.3808 38.2577V38.2568Z" fill="#DFF3FD"/>
<path d="M57.0123 35.7568C55.9206 36.3167 55.1549 37.9217 54.5069 39.0338C53.7574 40.3204 51.8288 39.5099 52.7393 38.0217C53.5312 36.7275 55.4818 35.8246 57.0123 35.7568Z" fill="#DFF3FD"/>
<path d="M56.4688 54.0903C56.2346 54.8585 55.2333 58.2828 55.1558 60.3012C55.0603 62.7835 52.5758 63.3057 52.2548 61.2725C51.7726 58.2247 55.1594 55.154 56.4697 54.0901L56.4688 54.0903Z" fill="#DFF3FD"/>
<path d="M61.2235 64.0902C61.034 64.8127 61.2513 67.3086 61.5997 68.4939C62.4009 71.2262 59.7411 71.2035 59.5249 69.6653C59.2701 67.847 60.2006 66.1781 61.2235 64.0902Z" fill="#DFF3FD"/>
<path d="M57.2271 25.8339C55.4611 26.1075 52.9337 28.5214 51.4278 30.7694C50.0209 32.8707 47.2987 31.5427 48.7445 29.1126C50.441 26.2617 54.6082 25.4875 57.2263 25.8339H57.2271Z" fill="#DFF3FD"/>
</g>
<defs>
<clipPath id="clip0_2_526">
<rect y="0.756836" width="100" height="100" rx="16.6667" fill="white"/>
</clipPath>
</defs>
</svg>
