<svg width="100" height="101" viewBox="0 0 100 101" fill="none" xmlns="http://www.w3.org/2000/svg">
<g clip-path="url(#clip0_2_533)">
<path d="M39.4737 95.1992C24.1536 91.8889 16.4936 90.2337 11.4192 85.1538C10.5395 84.2731 9.72857 83.3263 8.99353 82.3217C4.75374 76.527 4.29367 68.6755 3.37353 52.9725C2.24754 33.7564 1.68455 24.1484 6.52569 17.2152C7.35076 16.0335 8.27905 14.9274 9.29963 13.9099C15.2879 7.93935 24.8131 6.83102 43.8637 4.61438C68.8887 1.70256 81.4012 0.246655 89.3866 6.76534C90.7247 7.85759 91.9427 9.08902 93.0204 10.4388C99.4516 18.4948 97.8552 31.0245 94.6623 56.084C91.8954 77.7997 90.512 88.6576 83.4628 94.757C82.2622 95.7958 80.963 96.7148 79.5836 97.5009C71.4847 102.116 60.8144 99.8105 39.4737 95.1992Z" fill="#FFF4DE"/>
<path d="M88.0556 4.11838C85.606 2.83291 82.5656 3.77678 81.2802 6.22635C80.5055 7.70178 80.542 9.38857 81.2263 10.779L71.6493 5.74804C70.7844 5.29254 69.7048 5.62853 69.2493 6.49337L65.2842 14.0417C66.2564 14.0234 67.2475 14.2427 68.1724 14.7265C71.0946 16.2617 72.2194 19.8748 70.6842 22.7969C69.1489 25.7191 65.5358 26.844 62.6137 25.3087C61.6915 24.8252 60.9474 24.133 60.4107 23.32L56.4456 30.8684C55.9901 31.7332 56.3261 32.8129 57.1912 33.2657L64.7526 37.2377C64.7299 36.254 64.9477 35.2518 65.4374 34.322C66.9727 31.3998 70.5857 30.275 73.5079 31.8102C76.4301 33.3455 77.5549 36.9586 76.0197 39.8807C75.5296 40.8132 74.8287 41.5618 74.0046 42.1001L81.5657 46.0748C82.4305 46.5303 83.5102 46.1943 83.963 45.3292L88.9769 35.7833C89.2149 37.2994 90.1403 38.6905 91.6004 39.4553C94.0499 40.7407 97.0903 39.7969 98.3757 37.3473C99.6612 34.8977 98.7173 31.8574 96.2678 30.5719C94.808 29.8044 93.1387 29.8317 91.7557 30.4976L96.7696 20.9517C97.2251 20.0869 96.8891 19.0072 96.024 18.5544L86.447 13.5235C87.981 13.2984 89.3889 12.3692 90.1635 10.8938C91.449 8.4442 90.5051 5.40386 88.0556 4.11838Z" fill="#C6DFD9"/>
<path d="M23.6855 64.2071C23.3256 62.5809 23.8021 60.9622 24.829 59.7996L14.268 62.1372C13.3152 62.3482 12.3601 61.7415 12.1486 60.786L9.81864 50.2596C9.19064 51.6606 7.934 52.7568 6.32377 53.1132C3.62231 53.7111 0.937262 51.9993 0.339308 49.2979C-0.258645 46.5964 1.45318 43.9113 4.15464 43.3134C5.76488 42.957 7.3694 43.4199 8.52729 44.4255L6.19734 33.8991C5.98643 32.9463 6.59306 31.9912 7.54856 31.7797L15.8872 29.934C15.607 30.8755 15.5547 31.9005 15.7821 32.9279C16.4955 36.151 19.6876 38.1861 22.9108 37.4727C26.1339 36.7593 28.169 33.5671 27.4556 30.344C27.2282 29.3167 26.7482 28.4094 26.0968 27.6741L34.4355 25.8284C35.3883 25.6175 36.3434 26.2242 36.5549 27.1797L38.3976 35.505C37.4632 35.2316 36.45 35.1822 35.4333 35.4073C32.2102 36.1207 30.1751 39.3128 30.8885 42.536C31.6019 45.7591 34.7941 47.7942 38.0172 47.0808C39.0339 46.8558 39.9343 46.3828 40.6634 45.7413L42.5061 54.0666C42.717 55.0194 42.1104 55.9745 41.1549 56.186L30.5939 58.5236C32.0129 59.1448 33.1307 60.4106 33.4906 62.0368C34.0886 64.7383 32.3768 67.4234 29.6753 68.0213C26.9738 68.6193 24.2888 66.9074 23.6908 64.206L23.6855 64.2071Z" fill="#FFD9C7"/>
<path d="M51.6308 76.231C50.0046 76.5909 48.3859 76.1144 47.2233 75.0875L49.5609 85.6485C49.7718 86.6013 49.1652 87.5564 48.2097 87.7679L37.6833 90.0978C39.0842 90.7258 40.1804 91.9825 40.5368 93.5927C41.1348 96.2942 39.423 98.9792 36.7215 99.5772C34.02 100.175 31.335 98.4633 30.7371 95.7618C30.3806 94.1516 30.8435 92.5471 31.8492 91.3892L21.3228 93.7191C20.37 93.93 19.4149 93.3234 19.2034 92.3679L17.3577 84.0293C18.2991 84.3095 19.3242 84.3618 20.3515 84.1344C23.5747 83.421 25.6098 80.2288 24.8964 77.0057C24.1829 73.7826 20.9908 71.7475 17.7677 72.4609C16.7403 72.6883 15.8331 73.1683 15.0978 73.8196L13.2521 65.481C13.0412 64.5282 13.6478 63.5731 14.6033 63.3616L22.9286 61.5188C22.6552 62.4532 22.6059 63.4665 22.8309 64.4832C23.5444 67.7063 26.7365 69.7414 29.9596 69.028C33.1828 68.3146 35.2179 65.1224 34.5045 61.8993C34.2794 60.8826 33.8065 59.9822 33.1649 59.2531L41.4902 57.4103C42.443 57.1994 43.3982 57.8061 43.6096 58.7616L45.9473 69.3226C46.5685 67.9036 47.8343 66.7858 49.4605 66.4258C52.162 65.8279 54.847 67.5397 55.445 70.2412C56.0429 72.9426 54.3311 75.6277 51.6296 76.2256L51.6308 76.231Z" fill="#DFF3FD"/>
<path d="M63.6411 48.4032C64.0011 50.0294 63.5246 51.6481 62.4976 52.8107L73.0613 50.4725C74.0141 50.2616 74.9692 50.8682 75.1807 51.8237L77.5106 62.3501C78.1386 60.9491 79.3953 59.853 81.0055 59.4965C83.707 58.8986 86.392 60.6104 86.99 63.3119C87.5879 66.0133 85.8761 68.6984 83.1746 69.2963C81.5644 69.6528 79.9599 69.1899 78.802 68.1842L81.1319 78.7106C81.3428 79.6634 80.7362 80.6185 79.7807 80.83L71.4421 82.6757C71.7223 81.7343 71.7746 80.7092 71.5472 79.6818C70.8338 76.4587 67.6416 74.4236 64.4185 75.137C61.1954 75.8504 59.1603 79.0426 59.8737 82.2657C60.1011 83.2931 60.5811 84.2003 61.2324 84.9356L52.8938 86.7813C51.941 86.9922 50.9859 86.3856 50.7744 85.4301L48.9316 77.1048C49.866 77.3782 50.8793 77.4275 51.896 77.2025C55.1191 76.489 57.1542 73.2969 56.4408 70.0738C55.7274 66.8506 52.5352 64.8155 49.3121 65.5289C48.2954 65.754 47.395 66.2269 46.6659 66.8685L44.8231 58.5432C44.6122 57.5903 45.2189 56.6352 46.1744 56.4237L56.7354 54.0861C55.3164 53.4649 54.1986 52.1991 53.8386 50.5729C53.2407 47.8714 54.9525 45.1864 57.654 44.5884C60.3554 43.9905 63.0405 45.7023 63.6384 48.4038L63.6411 48.4032Z" fill="#E1D4E8"/>
</g>
<defs>
<clipPath id="clip0_2_533">
<rect y="0.756836" width="100" height="100" rx="16.6667" fill="white"/>
</clipPath>
</defs>
</svg>
