<svg width="20" height="21" viewBox="0 0 20 21" fill="none" xmlns="http://www.w3.org/2000/svg">
<path fill-rule="evenodd" clip-rule="evenodd" d="M10 18.3333C14.4183 18.3333 18 14.7515 18 10.3333C18 5.91497 14.4183 2.33325 10 2.33325C5.58172 2.33325 2 5.91497 2 10.3333C2 14.7515 5.58172 18.3333 10 18.3333ZM20 10.3333C20 15.8561 15.5228 20.3333 10 20.3333C4.47715 20.3333 0 15.8561 0 10.3333C0 4.8104 4.47715 0.333252 10 0.333252C15.5228 0.333252 20 4.8104 20 10.3333Z" fill="#BFA8EF"/>
<path fill-rule="evenodd" clip-rule="evenodd" d="M10 4.33325C10.5523 4.33325 11 4.78097 11 5.33325V10.2707C11 10.2707 11 10.2706 11 10.2707C11.0001 10.4827 11.0719 10.6575 11.1588 10.7618L12.7682 12.6931C13.1218 13.1173 13.0645 13.7479 12.6402 14.1015C12.2159 14.455 11.5853 14.3977 11.2318 13.9734L9.62254 12.0424C9.62251 12.0423 9.62257 12.0424 9.62254 12.0424C9.20942 11.5467 9.00011 10.9075 9 10.271V5.33325C9 4.78097 9.44772 4.33325 10 4.33325Z" fill="#BFA8EF"/>
</svg>
